<?xml version="1.0" encoding="utf-8"?>
<!-- Generator: Adobe Illustrator 14.0.0, SVG Export Plug-In . SVG Version: 6.00 Build 43363)  -->
<!DOCTYPE svg PUBLIC "-//W3C//DTD SVG 1.1//EN" "http://www.w3.org/Graphics/SVG/1.1/DTD/svg11.dtd">
<svg version="1.1"
	 id="AG" xmlns:rdf="http://www.w3.org/1999/02/22-rdf-syntax-ns#" xmlns:sodipodi="http://inkscape.sourceforge.net/DTD/sodipodi-0.dtd" sodipodi:docbase="C:\Documents and Settings\David Nelson\Archives\Svg" xmlns:cc="http://web.resource.org/cc/" sodipodi:docname="Flag_of_Canton_of_Aargau.svg" sodipodi:version="0.32" xmlns:svg="http://www.w3.org/2000/svg" inkscape:version="0.43" xmlns:inkscape="http://www.inkscape.org/namespaces/inkscape" xmlns:dc="http://purl.org/dc/elements/1.1/"
	 xmlns="http://www.w3.org/2000/svg" xmlns:xlink="http://www.w3.org/1999/xlink" x="0px" y="0px" width="600px" height="600px"
	 viewBox="0 0 600 600" enable-background="new 0 0 600 600" xml:space="preserve">
<rect id="rect2249" x="0" y="0" width="600" height="600"/>
<path id="rect2310" fill="#0039AD" d="M300,0v238.037H0v122.313h300V600h300V0H300z"/>
<path id="path2251" fill="#FFFFFF" d="M26.513,212.256C13.738,212.557,6.718,215.717,0,218.994v39.551
	c7.069-3.449,14.476-6.738,28.564-6.738c29.938,0,29.973,14.722,59.912,14.722c29.938,0,29.898-14.722,59.839-14.722
	c29.939,0,29.973,14.722,59.912,14.722c29.938,0,29.898-14.722,59.839-14.722c16.28,0,23.73,4.382,31.934,8.35v-39.551
	c-8.202-3.968-15.652-8.35-31.934-8.35c-29.939,0-29.899,14.722-59.839,14.722c-29.94,0-29.974-14.722-59.912-14.722
	c-29.939,0-29.899,14.722-59.839,14.722c-29.94,0-29.974-14.722-59.912-14.722C27.863,212.256,27.183,212.24,26.513,212.256z"/>
<path id="path2276" fill="#FFFFFF" d="M28.198,272.827C14.352,272.88,7.003,276.077,0,279.492v39.622
	c7.062-3.443,14.49-6.664,28.564-6.664c29.938,0,29.973,14.722,59.912,14.722c29.938,0,29.898-14.722,59.839-14.722
	c29.939,0,29.973,14.722,59.912,14.722c29.938,0,29.898-14.722,59.839-14.722c16.275,0,23.732,4.31,31.934,8.275v-39.55
	c-8.202-3.968-15.652-8.35-31.934-8.35c-29.939,0-29.899,14.722-59.839,14.722c-29.94,0-29.974-14.722-59.912-14.722
	c-29.939,0-29.899,14.722-59.839,14.722c-29.94,0-29.974-14.722-59.912-14.722C28.447,272.827,28.314,272.826,28.198,272.827z"/>
<path id="path2280" fill="#FFFFFF" d="M25.854,333.471c-12.343,0.392-19.263,3.45-25.854,6.666v39.551
	c7.062-3.444,14.493-6.666,28.564-6.666c29.938,0.001,29.973,14.723,59.912,14.723c29.938,0,29.898-14.723,59.839-14.723
	c29.938,0.001,29.973,14.723,59.912,14.723c29.938,0,29.898-14.723,59.839-14.723c16.28,0,23.73,4.382,31.934,8.35v-39.623
	c-8.2-3.968-15.657-8.276-31.934-8.276c-29.939,0-29.899,14.723-59.839,14.723c-29.939-0.001-29.974-14.723-59.912-14.723
	c-29.939,0-29.899,14.723-59.839,14.723c-29.939-0.001-29.974-14.723-59.912-14.723C27.629,333.471,26.733,333.444,25.854,333.471z"
	/>
<path id="path2241" sodipodi:arg2="-0.9424778" inkscape:rounded="0" sodipodi:cx="159.53333" sodipodi:arg1="-1.5707963" inkscape:randomized="0" inkscape:flatsided="false" sodipodi:r2="8.7738276" sodipodi:r1="22.968134" sodipodi:cy="101.85057" sodipodi:type="star" sodipodi:sides="5" fill="#FFFFFF" d="
	M373.624,184.881l12.087,37.194l39.11,0.002l-31.641,22.988l12.084,37.196l-31.642-22.987l-31.642,22.987l12.084-37.196
	l-31.64-22.988l39.109-0.002L373.624,184.881z"/>
<path id="path2241_1_" sodipodi:arg2="-0.9424778" inkscape:rounded="0" sodipodi:cx="159.53333" sodipodi:arg1="-1.5707963" inkscape:randomized="0" inkscape:flatsided="false" sodipodi:r2="8.7738276" sodipodi:r1="22.968134" sodipodi:cy="101.85057" sodipodi:type="star" sodipodi:sides="5" fill="#FFFFFF" d="
	M526.374,184.881l12.087,37.194l39.109,0.002l-31.641,22.988l12.085,37.196l-31.642-22.987l-31.642,22.987l12.085-37.196
	l-31.642-22.988l39.111-0.002L526.374,184.881z"/>
<path id="path2241_4_" sodipodi:arg2="-0.9424778" inkscape:rounded="0" sodipodi:cx="159.53333" sodipodi:arg1="-1.5707963" inkscape:randomized="0" inkscape:flatsided="false" sodipodi:r2="8.7738276" sodipodi:r1="22.968134" sodipodi:cy="101.85057" sodipodi:type="star" sodipodi:sides="5" fill="#FFFFFF" d="
	M449.999,302.432l12.087,37.194l39.109,0.002l-31.641,22.988l12.085,37.196l-31.642-22.987l-31.642,22.987l12.085-37.196
	L398.8,339.628l39.111-0.002L449.999,302.432z"/>
</svg>
