<?xml version="1.0" encoding="utf-8"?>
<!-- Generator: Adobe Illustrator 14.0.0, SVG Export Plug-In . SVG Version: 6.00 Build 43363)  -->
<!DOCTYPE svg PUBLIC "-//W3C//DTD SVG 1.1//EN" "http://www.w3.org/Graphics/SVG/1.1/DTD/svg11.dtd">
<svg version="1.1"
	 id="AI" xmlns:rdf="http://www.w3.org/1999/02/22-rdf-syntax-ns#" xmlns:sodipodi="http://inkscape.sourceforge.net/DTD/sodipodi-0.dtd" sodipodi:docbase="C:\Documents and Settings\David Nelson\Archives\Svg" xmlns:cc="http://web.resource.org/cc/" sodipodi:docname="Flag_of_Appenzell_Innerrhoden.svg" sodipodi:version="0.32" xmlns:svg="http://www.w3.org/2000/svg" inkscape:version="0.43" xmlns:inkscape="http://www.inkscape.org/namespaces/inkscape" xmlns:dc="http://purl.org/dc/elements/1.1/"
	 xmlns="http://www.w3.org/2000/svg" xmlns:xlink="http://www.w3.org/1999/xlink" x="0px" y="0px" width="600px" height="600px"
	 viewBox="0 0 600 600" enable-background="new 0 0 600 600" xml:space="preserve">
<rect id="rect2369" x="0" y="0" fill="#FFFFFF" width="600" height="600"/>
<path id="path2324" fill="#FF0000" d="M137.151,488.845c-9.088,0.544-13.91,4.042-16.58,9.027h22.743
	c-0.599-3.109-0.985-6.171-1.129-9.027C140.387,488.761,138.694,488.753,137.151,488.845z"/>
<path id="path2322" fill="#FF0000" d="M139.755,475.391c-6.47,0.392-11.145,2.564-14.844,5.729l17.274,4.515
	c0.062-4.662,0.796-8.419,2.344-10.156C142.851,475.371,141.238,475.301,139.755,475.391z"/>
<path id="path2246" sodipodi:nodetypes="ccc" fill="#FFFFFF" stroke="#000000" d="M273.152,80.667l3.757,14.158l4.045-14.158"/>
<path id="path2266" sodipodi:nodetypes="ccssssc" fill="#FF0000" stroke="#000000" d="M319.239,112.634l3.017-8.947
	c-6.794-4.545-24.715-3.039-38.317-3.145c-60.9-0.476-44.734-15.799-54.026-15.799c-7.336,0-4.13,26.721,25.16,26.721
	c21.62,0,30.181-3.511,49.15-3.511C314.384,107.953,314.878,110.294,319.239,112.634z"/>
<path id="path2246_1_" sodipodi:nodetypes="ccc" fill="#FFFFFF" stroke="#000000" d="M284.421,80.667l3.757,14.158l4.046-14.158"/>
<path id="path2252" sodipodi:nodetypes="ccc" fill="#FFFFFF" stroke="#000000" d="M277.486,118.519l0.289-13.58l6.646,13.58"/>
<path id="path2252_1_" sodipodi:nodetypes="ccc" fill="#FFFFFF" stroke="#000000" d="M288.467,118.519l0.288-13.58l6.646,13.58"/>
<path id="path2294" fill="#FF0000" d="M118.501,187.616c0.109-12.831-3.265-18.384-7.159-25.338
	c11.585,4.85,16.952,15.477,17.797,24.547"/>
<path id="path1352" fill="#FF0000" d="M99.068,223.236c-5.604-5.563-12.89-7.767-20.66-9c5.171-4.771,10.933-8.837,21.479-7.158"/>
<path id="path2315" fill="#FF0000" d="M99.068,223.236c-14.959,1.512-16.294,8.784-17.387,16.16
	c3.785-2.497,11.048-7.752,17.578-9.102"/>
<path id="path2354" fill="#FF0000" d="M309.286,517.057c-6.821,0.408-13.236,2.734-18.056,8.247
	c7.089,2.771,14.724,4.184,22.83,5.382c0.357-3.889,1.296-7.143,2.777-9.288c0.69-1,1.383-2.521,2.518-3.733
	C315.997,517.125,312.593,516.86,309.286,517.057z"/>
<path id="path2365" fill="#FF0000" d="M313.973,532.16c-9.86,2.231-17.634,6.376-19.271,16.146l20.312-4.688
	C314.108,539.683,313.793,535.74,313.973,532.16z"/>
<path id="path2363" fill="#FF0000" d="M315.536,545.963c-7.865,7.159-11.398,15.063-11.979,23.438l16.491-13.715
	C318.059,552.712,316.536,549.407,315.536,545.963z"/>
<path id="path2361" fill="#FF0000" d="M323.348,559.852c-6.684,5.993-6.621,12.368,0.348,19.011
	c3.336-6.64,6.109-10.365,8.854-13.455C328.925,564.229,325.844,562.343,323.348,559.852z"/>
<path id="path2359" fill="#FF0000" d="M351.821,564.8c-5.75,1.761-10.795,2.244-15.104,1.648c2.188,6.481,4.81,13.041,15.625,16.754
	c-1.403-6.988-1.03-12.748-0.434-18.402C351.88,564.809,351.848,564.791,351.821,564.8z"/>
<path id="path2313" sodipodi:nodetypes="cssssssssssssssssssssssssssssssssssccccccccsssssssssssssssssssssssssssssssssssccscscsssscsssscssssssssssssssssssssssssssssssssssssssssscccssssssssssssssssssssssssssssssssssssssssssssssssssssssssssss" d="
	M316.86,521.358c-7.797,11.289-1.658,55.039,35.384,43.341c2.538-0.802,3.96-2.3,6.404-2.911c3.027-0.757,4.591-2.021,8.15-2.91
	c2.742-0.687,10.848,0.288,13.391-1.746c3.198-2.559,9.479-5.863,13.973-6.986c4.158-1.039,5.422-4.84,8.151-7.568
	c1.346-1.347,4.039-3.476,6.403-4.658c2.698-1.349,2.586-4.504,4.075-6.985c1.008-1.681,5.793-6.347,6.404-7.568
	c1.26-2.52-0.534-3.379-2.329-7.567c-1.681-3.922-3.032-7.471-4.075-11.645c-0.858-3.436-2.01-5.709-2.911-9.314
	c-0.948-3.797-2.094-6.955-5.239-9.315c-3.482-2.612-4.071-4.062-5.239-8.732c-0.811-3.236-4.075-6.038-4.075-8.732
	c0-3.497-0.566-5.789-1.747-8.15c-1.31-2.618-3.37-6.844-4.075-9.314c-0.234-0.825-0.471-1.651-0.706-2.478
	c0,0,2.308-58.275,0-77.762c-2.021-17.067-2.938-21.997,4.166-2.159c3.764-0.14,6.047-2.907,5.374-10.934
	c2.436,1.124,2.602,3.948,3.15,6.485c2.598-2.736,4.478-5.212,4.478-10.977c0-44.965-34.812-12.489-34.812-130.307
	c0-2.123,1.148-3.354,3.019-3.354c2.32,0,3.02,0.486,3.02-2.013c0-0.561-0.186-5.32,0-5.367c1.444-0.36,2.601-0.377,4.024,0.336
	c1.147,0.573,2.367,2.608,3.021,0c0.291-1.166,1.029-2.566,0.67-4.36c-0.353-1.759-0.67-3.505-0.67-5.031
	c0-2.729,2.001-2.349,4.359-2.349c1.967,0,3.476,0.533,5.367,1.007c0.747,0.187,5.281,1.592,3.354-0.335
	c-1.045-1.046-3.141-2.828-3.354-3.69c-0.379-1.513-1.319-2.641-2.013-4.025c-0.778-1.557-1.007-2.083-1.007-4.359
	c0-2.457-0.858-2.536-2.349-4.025c-0.57-0.57-2.522-4.656,0-4.024c2.4,0.601,1.44,2.229,3.02,3.02
	c0.441,0.221,3.783,1.584,4.696,0.671c0.636-0.636,2.349-1.526,2.349-3.02c0-1.745,0.527-4.901-0.336-6.373
	c-0.304-0.519-0.665-1.006-0.91-1.553c-0.652-1.454-1.537-1.817-2.553-3.511c-0.526-0.877-3.214-3.488-2.234-4.468
	c1.313-1.312,2.573-1.935,3.511-2.872c0.875-0.875,1.915-2.105,1.915-3.511c0-1.933-1.26-2.803-1.596-4.148
	c-0.493-1.973,0-3.919,0-6.062c0-1.702,0-3.404,0-5.105c0-2.04,1.596-2.547,1.596-4.148c0-2.28-0.13-3.632,0.318-5.426
	c0.312-1.243,0.787-3.389,1.596-4.468c1.055-1.404,1.277-2.393,1.277-4.468c0-1.313-0.186-3.562-0.639-4.468
	c-0.562-1.124-2.105-1.92-1.915-2.872c0.295-1.474,1.059-3.107,0.639-4.787c-0.276-1.104-0.116-3.161-0.639-4.468
	c-0.481-1.204-0.575-3.129-1.597-4.148c-1.301-1.302-2.545-1.113-4.147-1.915c-1.416-0.708-0.908-1.335-0.908-3.523
	c0-1.384,0.47-3.396,2.49-3.073c17.784,2.836,42.791-40.418-15.056-34.035c-1.28-1.611-2.911-4.22-4.79-6.098
	c-2.677-2.677-3.074-2.665-4.791-6.1c-1.185-2.366-1.467-2.218-2.613-3.92c-10.145-15.04-28.645-5.452-43.303-1.052
	c-13.49,4.049-30.6,7.447-55.653,7.447c0,0,0,4.816,0,9.314c0,4.939,4.054,5.606,4.141,10.005c0.086,4.398-3.796,4.141-3.796,7.59
	c0,3.124,3.186,4.83,5.176,4.83c8.623,0,28.98,0,28.98,0s14.489,8.186,14.489,18.285c0,9.762,4.036,13.801-42.436,13.801
	c0,0-4.261,7.936,11.385,7.936c17.667,0,20.013,3.104,24.841,7.245c-35.004,15.617-56.16,37.564-56.58,68.992
	c19.902-4.224,27.379,4.266,15.039,4.82c-2.582,0.116-5.457-0.141-7.83,0.452c-1.547,0.387-3.593,0.614-4.915,0.614
	c-1.858,0-2.291,1.844-4.301,1.844c-1.552,0-3.698,1.539-4.915,1.843c-1.812,0.453-3.575,0.203-5.224,0.614
	c-1.339,0.335-2.91,1.112-4.606,1.536c-1.644,0.411-3.593,1.205-4.916,1.536c-1.961,0.49-2.846,1.229-4.915,1.229
	c-0.193,0-2.836,1.879-3.379,2.15c-2.077,1.039-4.793,3.231-7.065,3.687c-1.354,0.271-2.029,1.229-3.994,1.229
	c-1.999,0-4.15,0-6.144,0c-1.951,0-4.104,1.786-5.224,2.457c-1.922,1.153-4.861,1.699-6.759,2.458
	c-2.762,1.104-5.607,2.093-8.294,2.765c-1.706,0.427-2.107,0.922-4.301,0.922c-2.312,0-4.879-0.239-7.066,0.308
	c-2.46,0.614-5.816,0.614-8.294,0.614c-1.945,0-3.892,0-5.837,0c-2.19,0-4.509,0.308-6.759,0.308c-2.445,0-3.52-0.686-5.223-1.536
	c-1.367-0.684-2.391-1.408-3.38-2.15c-1.372-1.028-1.913-1.606-3.071-2.765c-0.989-0.99-2.013-1.761-2.766-2.765
	c-1.466-1.954,1.225-3.072,2.15-3.072c1.299,0,2.598,3.044,3.072,3.994c0.951,1.901,2.645,2.367,3.993,3.379
	c1.905,1.429,5.132,1.536,7.986,1.536c3.77,0,3.522-0.328,2.15-3.072c-1.125-2.251-1.93-3.675-3.993-5.223
	c-1.075-0.807-1.638-3.481-2.765-4.607c-1.448-1.448-2.418-2.726-3.688-3.994c-1.284-1.283-2.149-2.498-2.149-4.301
	c0-0.969-1.061-2.427-1.536-3.379c-0.34-0.679-0.4-0.801-0.614-1.229l-15.857-15.784l-10.637,0.791l-5.521,2.48l-6.751,7.773
	l-6.342,9.205l-0.817,16.158l0.191,7.06c3.242-0.67,6.305-0.377,8.672,1.692c1.347,1.178,3.208,3.271,3.934,4.72
	c1.029,2.059,2.933,0.899,3.539,3.933c0.468,2.34,1.793,2.107,3.933,1.573c1.926-0.481,3.125,2.151,4.325,2.753
	c1.604,0.801,1.573,2.312,1.573,4.325c0,2.447-0.494,3.809,1.572,4.326c1.115,0.277,2.512,1.845,3.539,2.358
	c1.552,0.775,2.816,1.604,4.326,2.359c3.062,1.531,2.95,3.098,5.112,4.719c1.907,1.431,3.68,3.287,4.719,4.326
	c1.687,1.686,4.336,2.466,6.292,3.933c1.284,0.963,4.335,0.394,5.898,0.394c2.056,0,4.479,0.394,6.686,0.394
	c2.309,0,4.275,0.395,6.687,0.395c2.792,0,3.801,0.295,5.505,1.572c2.408,1.807,3.804,2.752,7.079,2.752
	c1.176,0,1.631-3.354,2.358-4.324c2.272-3.03,7.741,1.479,9.438,2.753c1.379,1.033,4.432,1.079,5.898,0.786
	c2.247-0.449,2.281-1.495,3.934-3.146c1.686-1.686,2.979-0.223,4.325,0.787c1.433,1.074,2.6,2.54,3.933,3.539
	c2.075,1.557,3.15-1.185,3.539-1.573c1.63-1.629-0.507-2.753,3.146-2.753c3.031,0,4.335-1.17,6.686,1.181
	c1.215,1.215,2.352,3.045,4.326,3.539c1.906,0.478,1.854-3.708,3.539-4.72c1.351-0.81,4.531-0.051,5.897-0.393
	c2.051-0.514,3.394,3.146,5.506,3.146c1.602,0,1.621-2.801,2.753-3.933c0.813-0.812,3.765-0.523,4.27-0.394
	c1.529,0.396,3.368,2.546,3.368,3.742c0,10.618,56.814,76.834,56.508,93.181c-0.017,0.819-0.647,1.513-0.972,2.27
	c-1.491,3.484-2.446,5.928-4.141,9.314c-1.187,2.372-0.518,6.636-0.518,9.315c0,2.587,0,5.175,0,7.763
	c0,2.963-0.161,4.979-1.035,6.729c-1.007,2.015-1.035,4.423-1.035,7.244c0,2.87-0.518,4.869-0.518,7.245
	c0,2.995-3.107,2.793,1.553,4.657c2.585,1.034,2.07,4.91,2.07,7.763c0,2.896-1.33,4.067,0,6.729c1.721,3.441,6.21-2.763,6.21,3.622
	c0,3.421-2.07,3.325-2.07,6.728c0,2.975,1.959,5.472,3.104,7.764c0.427,0.854,2.498-6.03,2.588-6.21
	c2.058-4.113,3.622-0.438,3.622,2.588c0,3.021-0.793,4.624,0.519,7.245c1.265,2.528,2.837,3.354,5.175,5.691
	c1.204,1.203,2.629,5.538,3.105,6.729c1.854,4.636,3.622,1.592,3.622-2.07c0-1.973,4.169,1.15,4.656,3.104
	c0.438,1.744-1.216,4.474-0.797,6.146c0.613,2.455,3.872,4.198,6.49,4.722c3.956,0.792-0.417-5.073,4.14-0.518
	c1.194,1.194,2.334,4.668,3.105,6.21c0.595,1.188,4.062,1.917,5.175,4.141c0.976,1.951,0.983,4.089,2.587,5.692
	c2.436,2.434,5.442,2.854,7.763,5.175c0.244,0.244,0.647,2.128,0.972,2.674c1.146,1.938,0.798,3.796,1.833,5.865
	c1.049,2.097,0.411,4.346,0.731,6.599c0.366,2.56,0.62,4.26-0.365,6.231c-1.14,2.277,0.271,4.671-2.199,2.199
	c-1.265-1.264-1.848-4.089-2.199-5.498c-0.494-1.979-1.88-4.126-2.566-5.499c-1.337-2.674-4.24-3.666-7.696-3.666
	c-4.191,0-3.771-0.603-7.698-2.565c-2.32-1.16-5.091-1.263-7.331-0.366c-2.469,0.986-5.537,1.935-8.064,2.565
	c-2.106,0.527-3.305,1.56-5.864,2.199c-2.96,0.739-3.56,0.354-5.865,2.198C318.528,518.263,317.697,520.145,316.86,521.358z"/>
<path id="path2309" fill="#FF0000" d="M99.886,207.076c-4.335-6.699-10.111-12.066-21.479-12.273
	c8.248-8.21,17.963-3.21,27.819,3.068"/>
<path id="path2305" fill="#FF0000" d="M106.227,197.871c-3.36-9.169-9.797-16.287-16.364-23.319
	c8.798,0.03,15.834,0.196,23.115,15.546"/>
<path id="path2227" sodipodi:nodetypes="ccc" fill="none" stroke="#FF0000" d="M349.053,52.067
	c-13.577,1.622-19.83,8.476-27.257,14.49c13.861-2.608,26.718-3.456,36.915,0.345"/>
<path id="path2229" sodipodi:nodetypes="csc" fill="none" stroke="#FFFFFF" stroke-width="1.5" d="M303.591,130.529
	c58.741,6.521,70.527-14.869,70.527-35.104c0-18.771,12.765-27.445,12.765-27.445"/>
<path id="path2231" sodipodi:nodetypes="ccc" d="M365.061,36.309l18.443,24.12C405.672,58.899,383.094,20.043,365.061,36.309z"/>
<path id="path2242" d="M118.922,69.054c0.924,0.269,2.182,0.182,2.864,0.607c1.976,1.229,3.521,3.114,4.602,5.815
	c1.439,3.601,0.521,3.62,0.521,8.072c0,2.312-1.72,6.891-0.521,9.288c1.314,2.631,2.864,3.423,2.864,7.466
	c0,2.371-0.933,7.043,1.128,8.073c1.609,0.804,4.104,4.087,4.602,6.076c0.369,1.477,2.342,3.098,4.08,4.946
	c2.273,2.422,8.227,1.566,8.507,3.561c0.437,3.097-0.402,6.368,1.648,8.42c1.272,1.271,3.398,3.783,3.993,6.163
	c0.51,2.037,0.403,4.839,2.17,6.163c2.355,1.767,4.013,3.524,3.561,4.688c-1.39,3.57,2.604,7.125,4.859,5.382
	c1.771-1.366,2.109,5.434,5.035,6.164c3.619,0.904,5.226,1.42,6.771,4.515c1.582,3.164,2.694,3.562,5.643,5.033
	c3.997,1.999,3.507,2.675,5.557,6.771c1.888,3.773,4.055,1.479,7.292,3.906c1.638,1.229,3.948,4.513,5.033,6.684
	c2.387,4.771,5.7-0.464,7.899,1.736c0.791,0.79,3.393,5.145,5.035,5.556c1.661,0.415,7.049,0.11,7.812,1.128
	c0.66,0.881,4.515,5.021,4.515,6.163c0,2.931,0.966,6.326,3.386,3.906c0.353-0.354,3.452-4.88,5.034-3.298
	c2.716,2.716,1.497,2.776,5.556,2.776c3.11,0,5.188,0.021,7.899-0.521c0.935-0.188,1.844-0.421,2.776-0.607
	c2.896-17.552,6.755-34.964,18.49-51.042c-7.656-9.494-19.65-16.312-32.292-21.44c-22.938-9.304-49.254-20.085-56.684-23.784
	c-15.361-7.648-14.584-23.991-14.584-36.024c0-7.67-1.186-21.923-4.602-34.201c-4.65,1.496-9.553,2.894-13.455,4.602
	c-5.868,2.567-10.869,5.429-14.931,8.507s-7.171,6.442-9.288,10.069c-1.059,1.812-1.797,3.685-2.344,5.643
	C119.082,66.994,119.064,68.038,118.922,69.054z"/>
<path id="path2233" fill="#FF0000" d="M118.922,69.054c0.144-1.016,0.16-2.06,0.435-3.038c0.547-1.958,1.285-3.829,2.344-5.643
	c2.117-3.627,5.229-6.991,9.288-10.069c4.062-3.078,9.062-5.938,14.931-8.507c3.902-1.708,8.805-3.104,13.455-4.602
	c-2.58-9.272-6.228-17.587-12.5-20.398c2.885,8.877,2.905,18.48-0.261,24.564c-3.81-6.981-8.574-17.854-19.01-19.271
	c4.184,6.424,8.607,17.272,9.549,23.871c-6.023-10.791-13.701-12.827-21.269-9.114c8.91,3.479,11.659,8.459,13.194,14.757
	c-3.027-3.808-16.23-5.908-23.004-0.521c11.539-0.567,13.319,3.672,16.667,6.511c-7.314,1.039-13.127,5.997-16.319,10.242
	C106.422,67.838,113.815,67.567,118.922,69.054z"/>
<path id="path2235" sodipodi:nodetypes="cc" fill="none" stroke="#FFFFFF" stroke-width="1.5" d="M146.148,51.981
	c2.005,20.385,17.629,52.005-2.329,59.384"/>
<path id="path2244" sodipodi:nodetypes="cc" fill="none" stroke="#FFFFFF" stroke-width="2.5" stroke-linecap="round" d="
	M335.481,70.809c3.764,12.795,15.028,8.681,16.271,2.747"/>
<path id="path2258" sodipodi:nodetypes="cc" fill="none" stroke="#FF0000" d="M384.932,84.323c0.697-2.388,3.11-3.633,6.229-4.406"
	/>
<path id="path2260" sodipodi:nodetypes="cc" fill="none" stroke="#FF0000" d="M381.893,89.186c5.425,0.767,9.028-1.016,12.461-3.04"
	/>
<path id="path2262" sodipodi:nodetypes="cc" fill="none" stroke="#FFFFFF" stroke-width="1.5" d="M308.039,248.967
	c-5.729,20.084-25.523,27.284-53.489,26.439"/>
<path id="path2264" sodipodi:ry="0.93227142" sodipodi:cx="154.53333" sodipodi:cy="26.449511" sodipodi:type="arc" sodipodi:rx="1.8955196" fill="#FFFFFF" d="
	M405.635,73.331c-1.004,1.019-3.486,0.181-5.548-1.872c-2.06-2.054-2.915-4.543-1.911-5.562c0.005-0.004,0.01-0.009,0.014-0.013
	c1.004-1.02,3.487-0.181,5.548,1.872c2.06,2.053,2.916,4.543,1.911,5.562C405.645,73.323,405.641,73.327,405.635,73.331z"/>
<path id="path2319" sodipodi:nodetypes="cscsssssssssssssssssssscssssss" d="M160.121,523.866
	c-16.92-2.421-22.677-47.721-13.896-49.379c8.78-1.658,15.014,6.496,23.604,6.736c7.715,5.019,19.248-5.329,24.308,3.701
	c2.419,4.316,13.451,7.306,7.116-0.232c-5.925-7.05-7.793-17.07-11.058-25.448c-2.683-6.887,4.665-15.739-5.599-19.413
	c-6.765-2.421,5.912-11.251-0.543-17.267c-4.227-3.937-7.477-16.726,0.938-23.25c7.898-6.125-7.936-10.004,1.988-14.828
	c4.146-2.017,8.694-12.976,5.73-13.887c-10.119-3.112,8.127-9.181,4.912-16.157c-2.507-5.439,7.664-6.904,9.902-13.475
	c2.438-7.156,12.33-12.447,20.29-14.832c10.2-3.057,21.324-4.316,31.906-3.239c10.618,1.081,23.135-0.817,29.405,10.711
	c4.545,8.355,9.831,16.254,14.128,24.798c3.336,6.634,7.275,20.795-4.974,18.912c-8.238-1.267-17.326,2.93-24.81,6.566
	c-7.466,3.627-8.99,8.032-16.285,15.59c-9.205,9.536-13.811,17.593-14.912,27.036c-1.591,13.628-1.249,26.995-2.592,40.375
	c-1.08,10.753,8.448,17.894,5.934,29.112c-1.306,5.823,1.88,11.72,4.45,17.062c0.084,0.433,0.167,0.866,0.251,1.299
	c0.262,1.36-2.155,2.003-3.261,2.444c-1.562,0.625-3.752,1.604-5.435,2.444c-0.182,0.092-0.182,0.362-0.271,0.544
	c-0.61,1.221-4.226,1.598-5.162,2.445C227.522,530.08,187.464,527.78,160.121,523.866z"/>
<path id="path2332" fill="#FF0000" d="M143.487,499.781c-15.29,2.157-17.101,9.779-18.923,16.146
	c6.737-3.728,13.991-6.167,21.875-7.031c-1.132-2.905-2-5.986-2.691-9.115C143.654,499.795,143.58,499.77,143.487,499.781z"/>
<path id="path2334" fill="#FF0000" d="M146.699,509.939c-9.261,3.8-13.491,9.415-9.201,18.143
	c3.278-4.521,6.358-9.106,12.761-11.545c-1.291-1.942-2.394-4.204-3.386-6.598C146.826,509.957,146.746,509.92,146.699,509.939z"/>
<path id="path2342" fill="#FF0000" d="M151.995,518.793c-4.47,5.365-7.667,10.843-0.521,17.708
	c1.353-5.611,4.972-9.796,10.068-12.413c-0.486-0.067-0.909-0.191-1.389-0.261C157.074,523.387,154.314,521.554,151.995,518.793z"/>
<path id="path2347" fill="#FF0000" d="M280.901,338.064c-1.775,0.087-3.138,0.597-3.82,1.129c-0.044,0.037-0.135,0.136-0.173,0.174
	c-0.036,0.038-0.145,0.136-0.174,0.173c-0.026,0.039-0.066,0.136-0.087,0.175c-0.019,0.039-0.076,0.135-0.087,0.174
	c-0.009,0.039,0.002,0.135,0,0.174c0.001,0.013-0.001,0.073,0,0.087c0.002,0.013-0.002,0.073,0,0.087
	c0.003,0.014-0.004,0.073,0,0.086c0.004,0.015,0.082,0.074,0.087,0.087c0.006,0.015-0.007,0.073,0,0.087
	c0.007,0.015,0.079,0.073,0.087,0.088c1.626,2.729,14.346,6.304,25.174,15.363c-2.442-4.602-5.076-9.081-7.726-13.541
	c-0.042-0.025-0.047-0.062-0.088-0.087C288.626,338.911,284.022,337.91,280.901,338.064z"/>
</svg>
