<?xml version="1.0" encoding="utf-8"?>
<!-- Generator: Adobe Illustrator 14.0.0, SVG Export Plug-In . SVG Version: 6.00 Build 43363)  -->
<!DOCTYPE svg PUBLIC "-//W3C//DTD SVG 1.1//EN" "http://www.w3.org/Graphics/SVG/1.1/DTD/svg11.dtd">
<svg version="1.1"
	 id="BE" xmlns:rdf="http://www.w3.org/1999/02/22-rdf-syntax-ns#" xmlns:sodipodi="http://sodipodi.sourceforge.net/DTD/sodipodi-0.dtd" xmlns:cc="http://creativecommons.org/ns#" sodipodi:docname="Flag_of_Canton_of_Bern.svg" sodipodi:version="0.32" xmlns:svg="http://www.w3.org/2000/svg" inkscape:version="0.47 r22583" xmlns:inkscape="http://www.inkscape.org/namespaces/inkscape" xmlns:dc="http://purl.org/dc/elements/1.1/"
	 xmlns="http://www.w3.org/2000/svg" xmlns:xlink="http://www.w3.org/1999/xlink" x="0px" y="0px" width="600px" height="600px"
	 viewBox="0 0 600 600" enable-background="new 0 0 600 600" xml:space="preserve">
<rect id="rect2611" x="0" y="0" fill="#FFE000" width="600" height="600"/>
<path id="path2560" sodipodi:nodetypes="ccscsc" fill="#FF0000" stroke="#000000" stroke-width="0.5" d="M155.482,124.511
	l-9.177,10.971c-20.748-25.256-45.294-22.365-70.969-31.878C41.18,90.948,40.979,50.414,80.651,47.817
	c-21.94,13.306-28.146,25.192-2.484,36.641C96.182,92.492,136.354,96.781,155.482,124.511z"/>
<path id="path2495" sodipodi:nodetypes="cccsccsccccccccccccs" d="M219.197,285.532c4.513-37.445,6.249-72.694-17.605-89.297
	c-50.904,12.729-68.062,44.261-83.137,44.261c-12.634,0-17.631-9.319-7.689-16.78c4.16-3.124,13.315-8.439,16.928-26.159
	l-7.72,1.255c-15.558,2.954-19.737-13.156-22.163-23.856c-12.256,13.291-24.009-0.874-30.912-5.915
	c2.417,14.178-7.031,19.168-19.698,12.521c5.267,11.363-6.265,13.992-13.478,18.867c20.319,12.824-0.881,21.976,21.391,34.519
	c-0.5,32.857,50.312,74.969,65.542,55.863c4.442,4.206,8.828,7.902,11.877-0.438c4.131,5.117,7.814,5.316,10.997,0
	c5.169,4.281,9.911,6.109,13.196-0.44c4.274,3.109,8.551,6.22,11.437-1.319c4.999,5.759,9.293,8.393,10.997-0.438
	c5.476,4.854,10.919,9.515,14.076,0c6.384,5.773,10.643,5.645,12.757-0.44C212.331,293.144,217.986,295.577,219.197,285.532z"/>
<path id="path1612" sodipodi:nodetypes="csc" fill="#FF0000" d="M25.377,205.116c12.205-2.61,25.803,3.109,25.9-3.555
	C51.43,191.27,34.342,189.607,25.377,205.116z"/>
<path id="path2487" sodipodi:nodetypes="csc" fill="#FF0000" d="M37.389,180.754c14.877,2.714,17.47,15.008,23.416,11.624
	C69.753,187.287,53.523,172.969,37.389,180.754z"/>
<path id="path2489" sodipodi:nodetypes="csc" fill="#FF0000" d="M53.459,165.159c14.669,8.65,15.92,23.941,25.486,18.854
	C91.383,177.398,79.063,163.287,53.459,165.159z"/>
<path id="path2491" sodipodi:nodetypes="csc" fill="#FF0000" d="M92.142,160.712c3.044,13.76-11.627,34.616,4.609,34.616
	C111.541,195.328,108.31,170.694,92.142,160.712z"/>
<path id="path2493" sodipodi:nodetypes="csc" fill="#FF0000" d="M127.987,183.386c-7.578,11.882-29.116,14.854-19.588,26.649
	C115.025,218.239,132.361,201.876,127.987,183.386z"/>
<path id="path2497" sodipodi:nodetypes="cc" fill="none" stroke="#FFFFFF" stroke-width="1.5" stroke-linecap="round" d="
	M87.319,226.809c0,25.838,19.142,19.985,19.142,41.111"/>
<path id="path2548" fill="#FFFFFF" stroke="#000000" stroke-width="0.5" d="M102.192,74.459l-0.384,20.343l11.515-16.121"/>
<path id="path2548_1_" fill="#FFFFFF" stroke="#000000" stroke-width="0.5" d="M115.626,80.217l-0.384,20.342l11.515-16.12"/>
<path id="path2548_2_" fill="#FFFFFF" stroke="#000000" stroke-width="0.5" d="M127.908,85.59l-0.384,20.342l11.515-16.12"/>
<path id="path2554" fill="#FFFFFF" stroke="#000000" stroke-width="0.5" d="M104.495,122.053l5.758-9.596l1.535,14.585"/>
<path id="path2554_1_" fill="#FFFFFF" stroke="#000000" stroke-width="0.5" d="M115.242,127.81l5.757-9.596l1.535,14.585"/>
<path id="path2499" sodipodi:nodetypes="csscssccsssssscccccssscccccccccsscccccccccccccsscssssscccccccccccccccccccccccccccsssccccccccccsscssssssssssssssc" d="
	M434.934,464.693c1.184,21.499-16.223,15.484-30.418,27.089c-5.761,4.708-18.211,20.152-36.712,6.472
	c2.11,3.206,4.644,6.132,8.979,7.855c-14.985,10.096-31.688,13.748-49.665,12.626l-6.717-8.064c0.75-4.828-1.386-8.421-12.95-7.971
	l1.328-11.955c2.04-3.651,5.031-7.637-3.32-10.958l-3.321-7.638c15.195-6.641,16.459-11.954,9.632-17.599l3.983-7.639
	c7.495-1.734,15.41-3.155,16.034-10.044l14.05,0.586c5.013,3.19,4.775,17.075,5.779,18.078c1.373,1.374,2.403,2.563,4.518,2.563
	c2.76,0,4.77-1.649,7.05-2.459c1.781-0.632,3.16-2.231,5.699-2.228c2.346,0.004,3.453,0.28,5.16-0.603
	c1.225-0.634,0.181-3.529,0.729-3.689c-10.455-12.976-31.532-36.378-38.622-60.436c-7.36-24.975,0.818-50.076,38.611-55.005
	c46.533-6.067,11.261-24.896-66.46-26.761c7.261-12.783,8.38-25.21,7.4-36.229c-1.893,8.396-2.831,17.214-9.867,23.322
	c0.929,4.091-0.414,8.183-4.27,12.272c1.688,5.436-0.335,11.459-6.214,12.43c2.275,4.041,3.448,7.839-4.521,9.604
	c4.347,7.592-0.26,9.999-6.779,11.299c4.854,7.323,0.223,9.622-4.52,11.864c3.057,7.494-2.609,9.38-7.345,11.864
	c4.412,4.157,0.926,11.896-4.521,9.039c0.861,5.33-3.156,9.883-6.778,10.732c2.413,9.193-2.485,11.073-7.909,12.43
	c0.585,6.135-3.176,10.241-7.686,10.979c-9.454,31.688-26.141-4.264-42.966,8.889c-11.519,9.004-32.536,0.04-39.279-12.809
	c-3.841-7.319-9.823-13.661-22.2-18.358l-2.562-7.258c4.502-4.27,2.745-8.539-2.988-12.809l-0.427-8.111
	c5.347-3.067,11.712-5.843,9.394-11.101l0.427-6.831c5.762-2.354,12.922-0.516,16.649-8.966l11.955,0.427
	c5.407,6.671,10.815,6.095,16.225,2.562c0,0,14.234,15.579,14.234,20.978c0,4.261-4.765,5.035-4.765,12.092
	c0,25.432,32.874-8.188,32.874-96.16c0-34.048-10.308-115.157-92.827-115.157c-31.164,0-39.365-6.511-42.604-18.424
	c-3.084-11.344,0.929-23.092,14.2-13.434c20.655,15.03,28.604,15.03,37.613,4.604c15.576-18.023-1.328-26.2-11.754-34.621
	c-9.981-8.063-51.554-8.847-35.883-34.486c-0.224-6.964,2.736-12.563,10.632-16.048c-0.285-15.989,18.665-21.841,27.431-9.578
	c11.757,16.442,25.759,7.4,44.411,7.4c18.605,0,30.186,3.324,43.244,22.572c7.712,11.366,14.167,6.287,7.553,0.069
	c-8.282-7.789-14.368-14.846-14.368-20.811c0-5.574,11.875-6.762,19.078-6.762c18.468,0,40.286,17.283,25.771,39.917
	c23.134,0,35.579,23.531,16.975,42.644c20.085-1.534,35.918,3.505,43.886,20.699c8.781-1.214,18.109,0.849,28.145,7.141
	l-4.224,7.508c57.281,15.73,251.03,168.114,167.883,174.721c3.659,3.838,9.508,7.19,3.709,13.131
	c1.468,3.571,7.755,7.143,1.784,10.713c4.279,3.92,7.11,7.938,1.786,12.498c3.566,3.463,5.868,7.156,2.38,11.902
	c4.547,3.57,5.014,7.142,1.786,10.712c2.896,3.276,4.59,7.239,2.977,13.093c3.966,2.521,3.143,8.104,1.188,10.713
	c3.137,4.055,7.278,7.741,3.571,14.283c5.588,5.356,7.682,10.712,3.57,16.068c3.769,3.138,8.269,9.735,4.166,16.664
	c5.22,4.376,7.354,9.7,4.166,16.663c5.246,3.145,6.169,9.631,5.355,14.879c9.624,5.041,14.441,39.277-5.951,39.277
	c-3.277,0-13.598,11.084-22.296,23.16c-9.681,13.441-18.152,27.288-27.694,27.288c-10.61,0-22.473-13.36-28.562-13.36
	c-7.088,0-8.682,3.57-8.682,3.57l-12.239-4.821c-1.438-4.1-4.127-6.528-8.53-6.676l-2.967-11.126
	c2.738-4.292,4.547-8.273-1.483-9.643l-3.338-10.385c2.479-3.834,8.239-7.665,1.483-11.497l0.742-10.757
	c4.771-11.231,21.037,1.813,19.269-10.622l1.88-9.163c10.729-0.561,21.098-1.668,28.37,25.357
	c9.554,35.493,27.294,6.866,12.687-9.66c-35.654-40.336-49.706-94.714-68.828-147.8c0.298,2.535,2.502,10.173,2.173,11.488
	c-0.704,2.817,1.237,4.272,1.397,7.918c0.234,5.368-0.296,10.082-2.329,13.393c-1.466,2.384-0.28,5.333-1.396,7.566
	c-0.939,1.88-3.535,4.024-2.795,6.985c0.656,2.624,0.287,6.561,0.932,9.781c0.512,2.556,0.595,5.074,0,7.452
	c-0.577,2.312-0.729,5.529,0.467,7.917c0.738,1.479,1.081,6.596,2.794,7.452c3.234,1.618,3.261,3.122,3.261,6.986
	c0,3.707,3.261,4.182,3.261,6.056c0,2.972,2.794,4.476,2.794,6.521c0,3.479,1.946,2.927,0.933,6.986
	c-0.574,2.298-2.59,2.448-3.262,4.657C435.347,463.329,435.141,464.011,434.934,464.693z"/>
<path id="path2501" sodipodi:nodetypes="csc" fill="#FF0000" d="M129.167,385.289c10.088-0.765,26.713,2.723,23.21-6.783
	C149.404,370.438,132.999,372.267,129.167,385.289z"/>
<path id="path2503" sodipodi:nodetypes="csc" fill="#FF0000" d="M123.15,366.038c10.088-0.765,25.981,4.915,26.82-5.18
	C150.607,353.192,128.212,346.791,123.15,366.038z"/>
<path id="path2505" sodipodi:nodetypes="csc" fill="#FF0000" d="M129.812,342.898c16.354,0.312,23.999,14.826,27.138,3.11
	C158.624,339.762,138.985,329.188,129.812,342.898z"/>
<path id="path2509" sodipodi:nodetypes="csc" fill="#FF0000" d="M148.647,320.782c14.008,8.447,18.959,24.142,27.536,15.563
	C180.756,331.775,165.192,310.353,148.647,320.782z"/>
<path id="path2511" sodipodi:nodetypes="csc" fill="#FF0000" d="M190.269,318.252c0.735,7.272-11.077,22.9,2.733,26.041
	C199.309,345.726,207.575,327.365,190.269,318.252z"/>
<path id="path2513" sodipodi:ry="5.481328" sodipodi:cx="78.138077" sodipodi:cy="29.749441" sodipodi:type="arc" sodipodi:rx="5.481328" fill="#FFFFFF" d="
	M204.908,77.69c0,7.096-5.752,12.848-12.847,12.848c-7.097,0-12.849-5.752-12.849-12.848s5.752-12.847,12.849-12.847
	C199.156,64.843,204.908,70.594,204.908,77.69z"/>
<path id="path2515" sodipodi:ry="3.4987199" sodipodi:cx="75.805603" sodipodi:cy="27.183712" sodipodi:type="arc" sodipodi:rx="3.4987199" d="
	M194.795,71.676c0,4.529-3.672,8.2-8.199,8.2c-4.529,0-8.2-3.671-8.2-8.2c0-4.528,3.671-8.2,8.2-8.2
	C191.123,63.476,194.795,67.148,194.795,71.676z"/>
<path id="path2519" sodipodi:nodetypes="ccc" fill="#FFFFFF" d="M197.719,53.793c5.514,13.941,12.553,39.129,18.319,40.711
	C212.592,79.823,212.229,54.249,197.719,53.793z"/>
<path id="path2521" sodipodi:nodetypes="csc" fill="#FFFFFF" d="M265.952,89.424c-10.353,8.707-32.388,3.893-27.255,16.215
	C245.238,121.343,267.766,103.718,265.952,89.424z"/>
<path id="path2523" sodipodi:nodetypes="csc" fill="#FF0000" d="M321.442,426.198c14.008,8.447,6.963,26.163,23.731,21.541
	C356.629,444.582,337.987,415.769,321.442,426.198z"/>
<path id="path2525" sodipodi:nodetypes="csc" fill="#FF0000" d="M297.716,456.358c15.44-4.349,26.416,7.649,26.416-2.333
	C324.132,440.41,297.811,442.89,297.716,456.358z"/>
<path id="path2527" sodipodi:nodetypes="csc" fill="#FF0000" d="M293.062,483.202c13.709-5.215,23.91,3.668,23.91-8.228
	C316.972,463.095,293.158,469.735,293.062,483.202z"/>
<path id="path2529" sodipodi:nodetypes="csc" fill="#FF0000" d="M298.789,512.197c10.13-11.657,23.331-12.208,18.185-20.756
	C311.739,482.748,293.874,491.927,298.789,512.197z"/>
<path id="path2531" sodipodi:nodetypes="csc" fill="#FF0000" d="M322.077,534.32c4.773-10.958,13.607-20.437,5.841-24.48
	C316.125,503.696,307.381,522.666,322.077,534.32z"/>
<path id="path2533" sodipodi:nodetypes="csc" fill="#FF0000" d="M456.746,581.086c1.309-12.691,15.771-16.54,3.676-23.616
	C448.944,550.756,439.451,568.568,456.746,581.086z"/>
<path id="path2535" sodipodi:nodetypes="csc" fill="#FF0000" d="M430.427,568.056c10.13-11.657,21.6-14.806,16.452-23.354
	C441.644,536.011,425.51,547.786,430.427,568.056z"/>
<path id="path2537" sodipodi:nodetypes="csc" fill="#FF0000" d="M421.765,548.571c10.131-11.657,25.93-13.939,20.782-22.488
	C437.314,517.391,416.851,528.301,421.765,548.571z"/>
<path id="path2542" sodipodi:nodetypes="csc" fill="#FF0000" d="M422.1,517.845c13.709-5.215,24.777,1.502,24.777-10.395
	C446.879,495.572,423.496,499.614,422.1,517.845z"/>
<path id="path2544" sodipodi:nodetypes="csc" fill="#FF0000" d="M437.491,485.523c16.173,6.282,16.183,16.644,24.165,11.148
	C472.247,489.382,457.5,472.061,437.491,485.523z"/>
<path id="path2546" sodipodi:nodetypes="ccc" fill="#FFFFFF" d="M334.349,473.95c26.296,18.895,42.903-2.566,63.093-8.063
	C374.885,464.162,359.333,482.628,334.349,473.95z"/>
<path id="path2605" sodipodi:nodetypes="cccc" fill="#FF0000" d="M0,305.63V600h367.963L0,305.63z"/>
<path id="path2605_1_" sodipodi:nodetypes="cccc" fill="#FF0000" d="M600,294.37V0H232.038L600,294.37z"/>
<path id="path7432" sodipodi:nodetypes="cccc" fill="#FF0000" d="M424.995,343.74l-3.787-11.782
	c-7.181-3.725-18.063-2.428-26.235,5.276C405.49,336.262,414.322,334.698,424.995,343.74z"/>
</svg>
