<?xml version="1.0" encoding="utf-8"?>
<!-- Generator: Adobe Illustrator 14.0.0, SVG Export Plug-In . SVG Version: 6.00 Build 43363)  -->
<!DOCTYPE svg PUBLIC "-//W3C//DTD SVG 1.1//EN" "http://www.w3.org/Graphics/SVG/1.1/DTD/svg11.dtd">
<svg version="1.1"
	 id="BS" xmlns:rdf="http://www.w3.org/1999/02/22-rdf-syntax-ns#" xmlns:sodipodi="http://inkscape.sourceforge.net/DTD/sodipodi-0.dtd" sodipodi:docbase="/home/jynus/documentos/imagenes/svg" xmlns:cc="http://web.resource.org/cc/" sodipodi:docname="Flag of Canton of Basel.svg" sodipodi:version="0.32" xmlns:svg="http://www.w3.org/2000/svg" inkscape:version="0.42" xmlns:inkscape="http://www.inkscape.org/namespaces/inkscape" xmlns:dc="http://purl.org/dc/elements/1.1/"
	 xmlns="http://www.w3.org/2000/svg" xmlns:xlink="http://www.w3.org/1999/xlink" x="0px" y="0px" width="600px" height="600px"
	 viewBox="0 0 600 600" enable-background="new 0 0 600 600" xml:space="preserve">
<rect id="rect6677" x="0" y="0" fill="#FFFFFF" width="600" height="600"/>
<path id="path3663" sodipodi:nodetypes="cccccccc" d="M254.558,312.107h121.219l36.365,240.416l-47.982-55.559l-47.981,55.559
	l-47.982-55.559l-47.981,55.559L254.558,312.107z"/>
<path id="rect4391" d="M241.844,251.518h147.482c8.927,0,16.163,7.236,16.163,16.162l0,0c0,8.927-7.236,16.163-16.163,16.163
	H241.844c-8.926,0-16.161-7.236-16.161-16.163l0,0C225.682,258.754,232.919,251.518,241.844,251.518z"/>
<path id="rect5119" d="M262.405,228.998h106.066c8.926,0,16.161,4.069,16.161,9.092l0,0c0,5.021-7.235,9.091-16.161,9.091H262.405
	c-8.926,0-16.162-4.07-16.162-9.091l0,0C246.243,233.069,253.479,228.998,262.405,228.998z"/>
<path id="rect5121" d="M261.528,287.7h106.066c8.926,0,16.161,4.069,16.161,9.092l0,0c0,5.021-7.235,9.091-16.161,9.091H261.528
	c-8.926,0-16.162-4.07-16.162-9.091l0,0C245.366,291.771,252.602,287.7,261.528,287.7z"/>
<path id="path5123" sodipodi:nodetypes="cczzzzzsczzzzzc" d="M263.65,225.234h98.994c0,0-11.397-96.177-45.456-141.422
	c-34.23-45.472-119.941-36.167-148.493,0c-28.516,36.123-16.801,87.268,1.786,107.668c18.748,20.579,58.317,15.276,66.903,1.43
	c8.588-13.849,15.111-31.188,0-47.479c-7.068-7.621-20.535-9.39-25.052-4.5c-4.296,4.65-3.842,5.48-6.201,11.867
	c9.868,0.986,10.775,4.994,11.407,9.744c0.594,4.464-3.144,15.855-15.51,7.133c-12.605-8.895-7.829-34.328,3.031-42.427
	c10.69-7.973,26.63-8.786,38.386-1.011c12.729,8.423,18.183,15.484,23.233,37.376C271.871,186.112,263.65,225.234,263.65,225.234z"
	/>
</svg>
