<?xml version="1.0" encoding="utf-8"?>
<!-- Generator: Adobe Illustrator 14.0.0, SVG Export Plug-In . SVG Version: 6.00 Build 43363)  -->
<!DOCTYPE svg PUBLIC "-//W3C//DTD SVG 1.1//EN" "http://www.w3.org/Graphics/SVG/1.1/DTD/svg11.dtd">
<svg version="1.1"
	 id="GR" xmlns:rdf="http://www.w3.org/1999/02/22-rdf-syntax-ns#" xmlns:sodipodi="http://inkscape.sourceforge.net/DTD/sodipodi-0.dtd" sodipodi:docbase="C:\Documents and Settings\David Nelson\Archives\Svg" xmlns:cc="http://web.resource.org/cc/" sodipodi:docname="Flag_of_Canton_of_Graub√ºnden.svg" sodipodi:version="0.32" xmlns:svg="http://www.w3.org/2000/svg" inkscape:version="0.43" xmlns:inkscape="http://www.inkscape.org/namespaces/inkscape" xmlns:dc="http://purl.org/dc/elements/1.1/"
	 xmlns="http://www.w3.org/2000/svg" xmlns:xlink="http://www.w3.org/1999/xlink" x="0px" y="0px" width="600px" height="600px"
	 viewBox="0 0 600 600" enable-background="new 0 0 600 600" xml:space="preserve">
<rect id="rect2214" x="0" y="0" fill="#FFFFFF" width="600" height="600"/>
<path id="path2194" sodipodi:nodetypes="ccssc" fill="#FF0000" d="M245.25,360.007c-6.934-5.942,2.062-20.744-33.599-13.028
	c0,0,5.196,7.312,12.8,7.312c4.493,0-0.364-2.741,5.028-2.741C235.387,351.55,245.25,360.007,245.25,360.007z"/>
<path id="path1350" sodipodi:nodetypes="ccscscsccccc" d="M74.262,342.438c15.201-2.895,25.596-13.105,43.47,3.622
	c0,0,6.517-3.082,37.675-3.26c31.845-0.184,21.016,7.84,75.349,55.786c-1.393,3.568-3.292,8.233-3.603,14.7
	c-0.271,5.645,0.963,12.855,0.963,19.353c-25.354-6.945-34.678-24.917-42.28-38.762c-16.609-30.249-9.359-33.858-64.479-25.357
	l-4.71-14.49c-13.041,16.702-22.459,11.008-39.123,4.348c0.195-4.205,3.311-6.659,8.332-7.971
	C77.799,349.547,75.653,346.154,74.262,342.438z"/>
<path id="path2225" sodipodi:nodetypes="cccccccscscsccsccsscssssccccccssssscscssscssssssscccccccccsccscsssc" d="M281.271,586.671
	l-10.57-5.056c-4.923,10.861-7.103,18.583-30.333,12.868c2.099-1.096,3.77-2.405,4.596-4.137c-5.516,0.465-16.798,0.812-16.798-4.05
	c26.023-9.843,12.686-29.35,48.337-22.627c1.684-7.064,7.292-10.994,15.139-15.139c10.483-5.537,28.805-15.684,14.007-19.958
	c-32.011-9.247-46.729-32.481-17.227-47.021c8.679-4.276,23.01-4.458,41.304-6.562c-44.705-7.707-54.889,8.119-54.348-19.299
	c-0.558,9.64,2.751,17.302-21.546,17.302c-18.199,0-35.49-10.227-47.969,9.55c-18.213-3.581-26.762-0.287-39.952,7.13
	c-10.065,5.658-6.361,24.689-27.053,16.729c0.238,31.781-11.56,15.539-32.648,39.361c-4.755-6.025-2.018-12.052,0.564-18.078
	c-3.954,2.793-7.909,3.776-11.863,0.564c28.58-51.258,25.688-15.409,59.318-57.06c13.122-16.249,35.93-24.857,52.54-24.857
	c35.813,0,22.926-16.607,22.926-29.921c0-23.136,20.977-24.983,27.376-24.983c6.682-2.776,15.948-7.71,22.101-7.71
	c4.337,0,5.689-1.068,5.689-1.068c-2.828-1.666-6.388-9.146-12.632-9.146c-7.712,0-19.055,14.036-34.41,7.84
	c10.278-3.062,9.69-9.234,5.041-12.555c-3.918-2.799-4.939-9.751,0.062-9.751c32.817,0,5.18-10.862-3.925-10.596
	c-0.638-7.34,3.441-17.557,20.566-17.557c50.306,0,33.142-13.084,57.995-13.084c11.167,0,10.622,6.776,22.588,6.776
	c13.164,0,29.37-7.786,61.652-7.786c57.256,0,122.682,22.328,120.814,97.021c-17.93-23.55-27.971-70.76-95.673-68.795
	c28.092,12.1,70.756,40.753,71.695,102.962c-26.104-48.472-59.774-90.153-141.234-88.946c22.393,13.038,8.079,15.769,21.816,26.117
	c-26.479,18.276-39.304-25.104-51.803-13.615c9.255,7.356,14.991,17.615,4.317,29.887c-9.985,11.479-5.914,15.223,3.19,16.518
	c32.396,4.606,51.695,34.983,74.033,39.86c7.718,1.686,7.037-7.579,21.011-7.128c11.63,0.375,19.947,7.821,34.894,9.755
	c42.409,5.48,45.452,41.679,38.27,49.148c1.741-5.74-7.151-14.981-14.219-14.981c-4.418,0,1.139,6.767,8.265,13.535
	c-25.54-6.896-39.676-18.681-46.094-33.77c-6.504-15.29-30.779-6.276-30.779,0.505c0,7.276,11.312,24.353,20.82,24.353
	c10.424,0,18.064-5.188,22.025-2.563c5.612,3.717,1.646,7.938,1.646,12.101c0,9.368,29.395,47.829,29.395,54.502
	c0,3.318-5.033,7.05-11.01,8.801c-6.868,2.013-2.574,12.042-2.574,22.188c-2.127,2.229-10.977,2.216-21.538,1.632
	c6.076-16.35-3.327-1.546-10.82-1.546c0-18.052,24.216-36.707,24.216-40.188c0-2.392-6.074-8.922-11.487-16.297
	c-5.502-7.494-10.366-15.814-13.215-15.814c-18.189,16.638-35.093,20.062-50.021,3.256c4.217,14.938-18.254,15.015-25.751,3.597
	c-4.268-6.5,2.13-6.333-0.275-28.703c-13.883,11.241-40.485,10.691-40.485,20.917c0,21.841,14.46,4.939,14.46,21.03
	c0,8.385-7.47,7.394-18.828,12.527C309.21,562.635,293.729,578.495,281.271,586.671z"/>
<path id="path2227" sodipodi:nodetypes="csscc" fill="#FFFFFF" d="M316.012,340.605c-2.285,6.852-22.673,25.809-29.312,8.231
	c-3.961-10.482,7.197-9.623,7.026-4.016c-0.163,5.38,7.157,2.822,10.238-4.217L316.012,340.605L316.012,340.605z"/>
<path id="path2231" sodipodi:nodetypes="czzzzz" fill="none" stroke="#FFFFFF" stroke-width="0.5" d="M354.507,319.265
	c4.841,3.172,3.256,13.77,13.02,15.688s11.684-6.593,19.695-5.007c8.011,1.585,4.673,9.848,12.351,11.351
	c7.678,1.502,10.432-6.511,18.359-5.343c7.928,1.169,5.719,9.659,14.828,10.283"/>
<path id="path1317" sodipodi:nodetypes="ccc" fill="#FF0000" d="M348.54,487.443c8.963,0.467,25.357,2.558,25.357,9.056
	C362.566,496.038,353.668,493.415,348.54,487.443z"/>
<path id="path2192" sodipodi:nodetypes="cc" fill="none" stroke="#FFFFFF" stroke-linecap="round" d="M341.295,467.129
	c56.886,1.119,37.604,48.42,65.901,68.403"/>
<rect id="rect2196" x="0" y="0" width="150" height="300"/>
<rect id="rect2198" x="300" y="0" fill="#0039AD" width="300" height="300"/>
<rect id="rect2200" x="300" y="0" fill="#FFE000" width="150" height="150"/>
<rect id="rect2202" x="450" y="150" fill="#FFE000" width="150" height="150"/>
<rect id="rect2206" x="300" y="200.268" fill="#FFE000" width="99.732" height="99.732"/>
<rect id="rect2208" x="500.267" y="0" fill="#FFE000" width="99.731" height="99.73"/>
<rect id="rect2210" x="300" y="0" fill="#0039AD" width="99.732" height="99.73"/>
<rect id="rect2212" x="500.267" y="200.268" fill="#0039AD" width="99.731" height="99.732"/>
</svg>
