<?xml version="1.0" encoding="utf-8"?>
<!-- Generator: Adobe Illustrator 14.0.0, SVG Export Plug-In . SVG Version: 6.00 Build 43363)  -->
<!DOCTYPE svg PUBLIC "-//W3C//DTD SVG 1.1//EN" "http://www.w3.org/Graphics/SVG/1.1/DTD/svg11.dtd">
<svg version="1.1"
	 id="JU" xmlns:rdf="http://www.w3.org/1999/02/22-rdf-syntax-ns#" xmlns:sodipodi="http://inkscape.sourceforge.net/DTD/sodipodi-0.dtd" sodipodi:docbase="/home/jynus/documentos/imagenes/svg" xmlns:cc="http://web.resource.org/cc/" sodipodi:docname="Flag of Canton of Jura.svg" sodipodi:version="0.32" xmlns:svg="http://www.w3.org/2000/svg" inkscape:version="0.42" xmlns:inkscape="http://www.inkscape.org/namespaces/inkscape" xmlns:dc="http://purl.org/dc/elements/1.1/"
	 xmlns="http://www.w3.org/2000/svg" xmlns:xlink="http://www.w3.org/1999/xlink" x="0px" y="0px" width="600px" height="600px"
	 viewBox="0 0 600 600" enable-background="new 0 0 600 600" xml:space="preserve">
<rect id="rect6646" x="300" y="0" fill="#FF0000" width="300" height="600"/>
<rect id="rect6677" x="0" y="0" fill="#FFFFFF" width="600" height="600"/>
<path id="path3663" sodipodi:nodetypes="cccccccc" fill="#FF0000" d="M125.524,310.529h110.585l33.176,219.327l-43.773-50.685
	l-43.772,50.685l-43.773-50.685l-43.773,50.685L125.524,310.529z"/>
<path id="rect4391" fill="#FF0000" d="M115.344,255.255h131.709c8.927,0,16.162,6.602,16.162,14.745l0,0
	c0,8.143-7.235,14.744-16.162,14.744H115.344c-8.927,0-16.163-6.602-16.163-14.744l0,0
	C99.181,261.857,106.418,255.255,115.344,255.255z"/>
<path id="rect5119" fill="#FF0000" d="M134.1,234.711h93.927c8.926,0,16.162,3.714,16.162,8.294l0,0
	c0,4.581-7.236,8.294-16.162,8.294H134.1c-8.926,0-16.162-3.713-16.162-8.294l0,0C117.938,238.425,125.175,234.711,134.1,234.711z"
	/>
<path id="rect5121" fill="#FF0000" d="M133.301,288.264h93.927c8.926,0,16.162,3.713,16.162,8.294l0,0
	c0,4.58-7.236,8.294-16.162,8.294h-93.927c-8.926,0-16.162-3.714-16.162-8.294l0,0C117.138,291.977,124.375,288.264,133.301,288.264
	z"/>
<path id="path5123" sodipodi:nodetypes="cczzzzzsczzzzzc" fill="#FF0000" d="M133.818,231.277h90.312
	c0,0-10.398-87.74-41.47-129.016c-31.228-41.483-109.42-32.994-135.467,0c-26.015,32.954-15.326,79.61,1.63,98.223
	c17.103,18.774,53.202,13.937,61.035,1.304s13.785-28.453,0-43.312c-6.449-6.953-18.735-8.566-22.854-4.106
	c-3.919,4.243-3.505,5.001-5.657,10.827c9.002,0.9,9.83,4.556,10.407,8.89c0.541,4.072-2.868,14.465-14.149,6.507
	c-11.5-8.113-7.143-31.317,2.765-38.705c9.754-7.272,24.294-8.016,35.019-0.922c11.614,7.684,16.588,14.126,21.195,34.098
	C141.318,195.586,133.818,231.277,133.818,231.277z"/>
<rect id="rect7406" x="300" y="514.289" fill="#FF0000" width="300" height="85.711"/>
<rect id="rect7408" x="300" y="342.86" fill="#FF0000" width="300" height="85.71"/>
<rect id="rect7410" x="300" y="171.43" fill="#FF0000" width="300" height="85.71"/>
<rect id="rect7412" x="300" y="0" fill="#FF0000" width="300" height="85.71"/>
</svg>
