<?xml version="1.0" encoding="utf-8"?>
<!-- Generator: Adobe Illustrator 14.0.0, SVG Export Plug-In . SVG Version: 6.00 Build 43363)  -->
<!DOCTYPE svg PUBLIC "-//W3C//DTD SVG 1.1//EN" "http://www.w3.org/Graphics/SVG/1.1/DTD/svg11.dtd">
<svg version="1.1"
	 id="TG" xmlns:rdf="http://www.w3.org/1999/02/22-rdf-syntax-ns#" xmlns:sodipodi="http://inkscape.sourceforge.net/DTD/sodipodi-0.dtd" sodipodi:docbase="C:\Documents and Settings\David Nelson\Archives\Svg" xmlns:cc="http://web.resource.org/cc/" sodipodi:docname="Flag_of_Canton_of_Thurgau.svg" sodipodi:version="0.32" xmlns:svg="http://www.w3.org/2000/svg" inkscape:version="0.43" xmlns:inkscape="http://www.inkscape.org/namespaces/inkscape" xmlns:dc="http://purl.org/dc/elements/1.1/"
	 xmlns="http://www.w3.org/2000/svg" xmlns:xlink="http://www.w3.org/1999/xlink" x="0px" y="0px" width="600px" height="600px"
	 viewBox="0 0 600 600" enable-background="new 0 0 600 600" xml:space="preserve">
<rect id="rect2628" x="0" y="0" fill="#FFFFFF" width="600" height="600"/>
<path id="path2547" fill="#008000" d="M0,0v600h600L0,0z"/>
<path id="path2528" fill="#FFE000" stroke="#000000" stroke-width="0.36" d="M221.267,419.531
	c-42.129,1.388-65.558,21.48-34.809,95.746c-25.315,6.051-47.804,3.494-64.323-16.84c12.237-6.123,3.654-27.168-12.761-24.653
	c3.999,3.315,5.556,5.635,5.729,7.466c0.018,0.24,0.026,0.554,0,0.781c-0.016,0.112-0.062,0.302-0.087,0.434
	c-0.005,0.021,0.005,0.068,0,0.087c-1.11,3.887-8.308,6.259-6.684,15.104c-5.136-14.847-25.854-32.251-32.64-7.118
	c0.389-0.155,0.74-0.279,1.129-0.435c1.784-0.714,2.399-2.241,3.993-3.038c1.501-0.75,3.129-0.694,4.861-0.694
	c0.016,0,0.068,0.001,0.086,0c0.038-0.002,0.136,0.001,0.174,0c0.02,0,0.069-0.001,0.087,0c0.018,0.002,0.071-0.003,0.087,0
	s0.069-0.006,0.087,0c0.112,0.042,0.262,0.139,0.347,0.174c0.158,0.07,0.379,0.159,0.521,0.26c0.03,0.031,0.144,0.144,0.174,0.174
	c0.049,0.042,0.126,0.129,0.173,0.174c0.62,0.627,1.124,1.564,1.303,2.17c0.006,0.021-0.006,0.066,0,0.087
	c0.395,1.579,0.084,2.095-0.261,3.473c0,0.007-0.001,0.078,0,0.087c-0.021,0.062-0.057,0.182-0.087,0.26
	c-0.023,0.058-0.062,0.128-0.087,0.174c-0.015,0.03-0.071,0.144-0.087,0.174c-0.688,1.039-2.108,2.001-2.69,2.777
	c-0.017,0.016-0.071,0.071-0.087,0.087c0,0.006,0,0.081,0,0.087c0.013,0.029,0.069,0.143,0.087,0.174
	c0.009,0.009,0.079,0.079,0.087,0.087c0.018,0.018,0.079,0.078,0.087,0.087c0.87,0.89,3.66,2.351,3.992,2.517
	c2.005,1.003,3.638,1.124,5.556,2.084c0.505,0.252,0.789,0.374,1.042,0.521c0.03,0.015,0.143,0.071,0.174,0.087
	c0.241,0.178,0.581,0.481,1.128,1.042c-26.806-2.573-20.062,10.574-18.837,20.312c0.211-0.595,0.806-1.86,0.955-2.344
	c0-0.008,0.001-0.078,0-0.087c0.001-0.006,0-0.068,0-0.087c0.016-0.029,0.07-0.144,0.087-0.174c0-0.009,0-0.079,0-0.087
	c0.016-0.03,0.071-0.143,0.087-0.174c0.718-1.881,4.546-6.555,6.857-7.465c0.123-0.045,0.305-0.138,0.435-0.174
	c0.037-0.009,0.14,0.004,0.173,0c0.031,0,0.124,0.001,0.174,0c0.012,0,0.077-0.001,0.087,0c0.03,0.016,0.144,0.07,0.174,0.087
	c0.03,0.014,0.145,0.071,0.174,0.087c0.022,0.022,0.075,0.077,0.087,0.087c0.014,0.014,0.073,0.071,0.086,0.087
	c1.22,1.625,2.807,5.149,4.774,7.118c0.05,0.049,0.128,0.132,0.174,0.173c0.111,0.096,0.251,0.192,0.348,0.261
	c0.028,0.018,0.142,0.07,0.173,0.087c0.062,0.03,0.13,0.07,0.174,0.087c0.031,0.011,0.137,0.072,0.174,0.087
	c0.011,0.003,0.077-0.002,0.087,0c0.011-0.015,0.076-0.075,0.087-0.087c0.008,0,0.077-0.001,0.087,0
	c0.03-0.014,0.144-0.071,0.173-0.087c0.008-0.009,0.08-0.076,0.087-0.087c0.022-0.036,0.066-0.141,0.087-0.174
	c0.286-0.421,0.634-1.139,1.129-1.736c0.021-0.03,0.065-0.137,0.087-0.173c0.007-0.012,0.079-0.077,0.087-0.087
	c0.421-0.422,0.869-0.784,1.215-1.042c0.185-0.132,0.435-0.263,0.607-0.347c0.111-0.051,0.302-0.137,0.435-0.174
	c0.021-0.006,0.068,0.004,0.087,0c0.015-0.003,0.069,0.004,0.086,0c0.074-0.019,0.187-0.074,0.261-0.087
	c0.009-0.001,0.079,0,0.087,0c0.195,0.019,0.494,0.107,0.694,0.174c0.54,0.194,1.152,0.56,1.91,1.128
	c1.369,1.027,3.038,2.426,3.038,4.774c0,1.817,0.273,3.08,0.955,3.993c0.528,0.672,1.337,1.212,2.43,1.649
	c2.796,1.118,6.52,0.651,7.292,0.694c0.005,0.001,0.067,0,0.087,0c0,0.032-0.001,0.13,0,0.174c0.016,0.016,0.07,0.071,0.087,0.087
	c0,0.008,0.001,0.078,0,0.087c-0.001,0.02-0.001,0.082,0,0.086c0,0.01,0,0.079,0,0.087c-0.149,0.219-0.611,0.698-1.736,1.823
	c-0.016,0.016-0.071,0.069-0.087,0.087c-0.094,0.111-0.193,0.256-0.26,0.347c-0.042,0.062-0.126,0.183-0.174,0.261
	c-0.034,0.058-0.066,0.128-0.087,0.174c-0.005,0.014,0.004,0.072,0,0.087c-0.019,0.075-0.07,0.196-0.087,0.26
	c-0.019,0.059-0.07,0.202-0.087,0.261c-0.112,0.843,0.1,1.86-0.261,3.299c-0.146,0.583-0.321,1.075-0.521,1.476
	c-0.072,0.138-0.177,0.317-0.261,0.434c-0.143,0.189-0.333,0.387-0.521,0.521c-0.058,0.039-0.198,0.139-0.261,0.174
	c-0.058,0.023-0.198,0.065-0.26,0.086c-0.473,0.18-1.064,0.261-1.823,0.261c-2.162,0-4.697,0.708-6.771,0.348
	c-0.397-0.069-0.813-0.117-1.216-0.174c10.923,8.218,24.469,15.14,27.865-4.514c29.585,16.126,57.331,17.345,80.469,16.319
	c1.018-0.045,2.961,0.561,4.427,0.174c0.067-0.02,0.195-0.063,0.261-0.087c0.128-0.051,0.315-0.191,0.434-0.261
	c0.03-0.015,0.144-0.072,0.174-0.087c0.102-0.087,0.263-0.253,0.347-0.347c0.069-0.082,0.192-0.244,0.261-0.348
	c0.455-0.804,0.683-2.096,0.348-4.08c-4.834-28.591,2.65-84.991,28.212-86.545c-0.029-0.075-0.06-0.185-0.087-0.261
	c-0.018-0.046-0.07-0.04-0.087-0.087c-0.01-0.025,0.009-0.061,0-0.086c-0.028-0.077-0.06-0.184-0.087-0.261
	c-0.058-0.16-0.118-0.273-0.174-0.435c-0.019-0.054-0.068-0.118-0.087-0.173c-0.009-0.026,0.009-0.062,0-0.087
	c-0.031-0.092-0.056-0.169-0.087-0.261c-0.02-0.059-0.067-0.115-0.087-0.174c-0.017-0.051,0.017-0.122,0-0.173
	c-0.011-0.034-0.075-0.054-0.086-0.087c-0.062-0.189-0.115-0.418-0.174-0.608c-0.011-0.033,0.01-0.053,0-0.086
	c-0.018-0.057-0.07-0.118-0.087-0.174c-0.084-0.278-0.095-0.588-0.174-0.868c-0.019-0.067-0.067-0.106-0.087-0.174
	c-0.022-0.079-0.064-0.181-0.087-0.261c-0.087-0.315-0.178-0.637-0.26-0.954c-0.075-0.291-0.189-0.576-0.261-0.868
	c-0.014-0.055,0.013-0.119,0-0.174c-0.017-0.069-0.07-0.104-0.087-0.174c-0.055-0.231-0.033-0.463-0.087-0.694
	c-0.006-0.027,0.007-0.06,0-0.087c-0.045-0.196-0.13-0.411-0.174-0.607c-0.062-0.287-0.113-0.581-0.173-0.868
	c-0.086-0.409-0.181-0.807-0.261-1.215c-0.005-0.027,0.005-0.06,0-0.087c-0.03-0.152-0.145-0.282-0.174-0.435
	c-0.016-0.083,0.016-0.178,0-0.26c-0.037-0.196-0.05-0.413-0.087-0.608c-0.021-0.114-0.065-0.232-0.087-0.347
	c-0.02-0.11-0.066-0.237-0.086-0.348c-0.026-0.145-0.062-0.29-0.087-0.434c-0.016-0.089,0.016-0.172,0-0.261
	c-0.04-0.228-0.049-0.468-0.087-0.694c-0.02-0.11-0.068-0.236-0.087-0.347c-0.041-0.24-0.135-0.457-0.174-0.695
	c-0.015-0.087,0.015-0.173,0-0.26c-0.005-0.028,0.005-0.059,0-0.087c-0.142-0.86-0.302-1.695-0.434-2.518
	c-0.005-0.027,0.004-0.059,0-0.087c-0.069-0.42-0.106-0.808-0.174-1.215c-0.029-0.177-0.059-0.347-0.087-0.521
	c-0.005-0.027,0.005-0.059,0-0.086c-0.044-0.269-0.129-0.521-0.174-0.781c-0.021-0.125-0.065-0.225-0.087-0.348
	c-0.004-0.027,0.005-0.06,0-0.087c-0.031-0.178-0.055-0.347-0.087-0.521c-0.014-0.08,0.015-0.182,0-0.261
	c-0.024-0.133-0.062-0.216-0.086-0.347c-0.029-0.156-0.059-0.282-0.087-0.435c-0.039-0.203-0.047-0.411-0.087-0.607
	c-0.013-0.062-0.074-0.113-0.087-0.174c-0.025-0.123-0.062-0.227-0.087-0.347c-0.025-0.121-0.061-0.229-0.087-0.348
	c-0.032-0.147-0.054-0.291-0.087-0.434c-0.048-0.211-0.037-0.407-0.087-0.608c-0.026-0.108-0.06-0.241-0.087-0.347
	c-0.106-0.414-0.229-0.764-0.347-1.129c-0.007-0.021,0.007-0.064,0-0.087c-0.028-0.085-0.059-0.178-0.087-0.26
	c-0.047-0.135-0.125-0.221-0.174-0.348c-0.033-0.091-0.052-0.174-0.087-0.261c-0.008-0.02,0.009-0.066,0-0.086
	c-0.024-0.061-0.061-0.116-0.087-0.174c-0.023-0.055-0.062-0.034-0.086-0.087c-0.077-0.166-0.183-0.357-0.261-0.521
	c-0.056-0.117-0.031-0.232-0.087-0.348c-0.019-0.039-0.067-0.048-0.087-0.087c-0.08-0.164-0.179-0.359-0.261-0.521
	c-0.024-0.05-0.062-0.124-0.086-0.174c-0.02-0.038-0.067-0.049-0.087-0.087c-0.042-0.08-0.046-0.181-0.087-0.261
	c-0.066-0.127-0.106-0.221-0.174-0.347c-0.016-0.029-0.071-0.058-0.087-0.087c-0.017-0.031-0.069-0.056-0.087-0.087
	c-0.069-0.128-0.104-0.308-0.174-0.434c-0.099-0.18-0.159-0.345-0.26-0.521c-0.031-0.053-0.057-0.12-0.087-0.173
	c-0.177-0.306-0.426-0.572-0.607-0.868c-0.036-0.059-0.051-0.116-0.087-0.174c-0.028-0.046-0.059-0.129-0.087-0.174
	c-0.021-0.032-0.066-0.055-0.087-0.087c-0.014-0.021,0.014-0.064,0-0.087c-0.041-0.064-0.132-0.109-0.174-0.173
	c-0.037-0.058-0.05-0.117-0.087-0.174c-0.074-0.115-0.185-0.233-0.26-0.348c-0.055-0.081-0.119-0.18-0.174-0.26
	c-0.048-0.071-0.125-0.19-0.174-0.261c-0.038-0.056-0.048-0.119-0.087-0.174c-0.029-0.043-0.057-0.131-0.087-0.174
	c-0.021-0.03-0.064-0.056-0.087-0.087c-0.068-0.097-0.104-0.164-0.173-0.26c-0.095-0.13-0.166-0.22-0.261-0.348
	c-0.062-0.084-0.11-0.177-0.174-0.26c-0.088-0.118-0.171-0.232-0.26-0.348c-0.055-0.069-0.12-0.104-0.174-0.174
	c-0.118-0.15-0.228-0.285-0.348-0.434c-0.142-0.176-0.289-0.35-0.434-0.521c-0.159-0.189-0.359-0.422-0.521-0.607
	c-0.085-0.097-0.174-0.251-0.26-0.347c-0.082-0.092-0.178-0.171-0.261-0.261c-0.029-0.031-0.058-0.056-0.087-0.087
	c-0.882-0.957-1.815-1.853-2.777-2.69c-1.825-0.016-3.618-0.046-5.382,0C221.975,419.539,221.599,419.52,221.267,419.531z"/>
<path id="path2524" fill="#FF0000" stroke="#000000" stroke-width="0.36" d="M222.309,419.531
	c-7.003,0.181-13.515,0.916-19.358,2.257l-6.944,11.545c21.027-2.442,40.397,2.364,49.913,12.413l-0.173-6.771l-9.636-19.185
	C231.33,419.547,226.732,419.416,222.309,419.531z"/>
<path id="path2549" stroke="#000000" stroke-width="0.36" d="M164.657,237.384l-21.584,12.95l18.501,27.135l25.901-23.435
	l-16.034-25.9L164.657,237.384z"/>
<path id="path1615" fill="#FF0000" stroke="#000000" stroke-width="0.36" d="M139.149,203.993c-0.537,0.015-1.074,0.053-1.649,0.087
	c10.023,1.922,9.483,28.788,14.584,54.688c0.013,0.009-0.013,0.077,0,0.086c6.739,4.826,12.709,5.87,17.188,4.688
	C138.722,234.18,170.763,203.11,139.149,203.993z"/>
<path id="path2506" sodipodi:nodetypes="ccscssssscccccscccc" fill="#FFE000" stroke="#000000" stroke-width="0.36" d="
	M54.948,87.76c-0.251,0.029-0.435,0.122-0.694,0.174c8.835,16.368-11.808,23.252-13.194,7.118
	c-0.83-9.646-17.955-7.771-21.268,0.435c3.64-1.317,8.485-1.646,10.243-0.087c0.071,0.067,0.2,0.186,0.26,0.26
	c0.143,0.19,0.283,0.458,0.348,0.694c0.084,0.363,0.036,0.827-0.087,1.303c-4.824,18.725,1.702,15.46,1.129,25.607
	c-0.601,10.609-12.196,11.501-18.316,3.906c-1.94,11.764,1.076,19.658,18.316,16.667c-1.053,37.211-4.025,76.684,9.548,96.527
	l13.755,30.203l50.487,7.672c0,0-21.987-35.491-36.377-69.125c-9.764-22.819-15.005-45.155-12.153-69.444
	c14.759-1.407,22.642-8.201,25.087-19.184c-14.385,7.08-9.474-3.198-23.264,4.34C69.151,113.329,67.557,86.303,54.948,87.76z"/>
<path id="path2510" fill="#FFE000" stroke="#000000" stroke-width="0.36" d="M100.434,144.618c-0.793,0.039-1.582,0.103-2.431,0.173
	c11.73,5.463,3.113,10.089,5.469,16.32c8.004,21.174-16.643,25.947-12.24-1.649c-9.191,9.703-9.946,22.872-6.684,34.114
	c-22.512,22.37-57.891,58.552-56.684,72.136c1.753,19.732,22.882,45.548,29.514,54.601c1.422-4.422,3.28-9.088,5.643-14.062
	l3.646,0.954l21.44-31.51l-19.704-5.382c19.476-25.958,35.481-77.257,55.469-77.257c3.798,0,8.309,1.862,13.802-0.435
	c5.262-2.199,3.342-5.432,5.816-7.378c7.76-6.105,9.608-11.225,5.555-18.924c-6.264,11.008-13.01,10.593-19.617,13.021
	c13.846-8.007,15.769-24.355-1.91-31.424c4.712,13.9-3.837,15.336-9.896,23.265C121.138,149.79,116.558,143.818,100.434,144.618z"/>
<path id="path2515" sodipodi:nodetypes="cccssssssccccccccccccssssssscccccccccscccccs" fill="#FFE000" stroke="#000000" stroke-width="0.36" d="
	M337.379,571.11c-13.413,2.033-14.155,6.441-13.627,11.088 M367.157,398.484c84.2,47.534-1.801,132.24-51.143,22.899
	c18.737,27.837-3.199,75.696,70.226,70.988c4.048,25.556-1.051,47.046-15.322,64.46c0.914,0,1.141,0.119,1.992,0.332
	c1.712,0.428,2.755,1.349,3.985,2.988c1.335,1.78,1.749,3.476,0.664,5.646c-0.857,1.713-1.439,3.432-2.989,4.98
	c-0.792,0.793-4.316,2.354-4.316,3.653c0,1.878-0.041,4.717-0.996,6.31c-1.44,2.4-3.464,4.388-5.313,5.312
	c-2.049,1.024-3.299,2.564-6.31,3.652c6.927-25.483-18.091-6.006-33.654,3.803c-1.3-5.466-1.829-4.628-0.229-11.311
	c-11.207,8.11-21.726-10.349-27.324,2.898c-1.37-10.079,0.907-27.636,27.738-19.872c-6.468-9.104-13.292-15.708-21.942-9.522
	c2.317-21.752,34.333-7.152,31.464,2.07c18.185-5.291,24.832-18.403,26.479-36.925c-63.158-4.252-88.848-35.208-110.151-51.336
	c-10.354-7.84-9.654-30.236-12.772-37.002c-15.743-34.157-61.739-21.931-103.269-33.032c-28.562-7.636-106.889-17.521-70.928-93.257
	l120.84,30.21c15.482,14.267,37.358,28.788,77.494,39.842c72.875,20.07,73.228,66.302,109.326,81.846
	c18.794,8.093,28.715-25.113-7.444-45.743c-30.631-17.477-65.239-31.669-84.236-61.126c-34.901-0.046-22.36-22.692-42.889-27.752
	c5.578-4.149,13.154-10.356,24.22,2.523c-11.132-14.658-0.748-25.591-6.365-43.975c9.255,8.233,18.446,18.79,17.388,38.502
	c2.883-7.882,5.296-16.232,4.348-27.945c5.393,9.023,8.021,19.322,6.21,31.671c5.835-4.655,6.805-9.31,9.003-13.965
	c5.487,21.258-3.329,24.876-3.329,34.547c0,8.282,21.611,23.729,21.611,23.729c-0.751-8.408-0.028-16.415,10.829-21.657
	c-2.162,10.319-1.7,19.89,3.609,28.074c1.416-7.694,2.318-15.774,12.032-17.246c4.049,11.773,6.086,40.647,14.037,19.252
	C349.328,385.295,355.912,392.135,367.157,398.484z"/>
<path id="path2542" fill="#FFE000" stroke="#000000" stroke-width="0.36" d="M367.157,398.484
	c-11.245-6.349-17.829-13.188-17.427-21.477c-7.951,21.396-9.988-7.479-14.037-19.252c-9.714,1.472-10.616,9.552-12.032,17.246
	c-5.31-8.185-5.771-17.755-3.609-28.074c-10.857,5.242-11.58,13.249-10.829,21.657c0,0-21.611-15.447-21.611-23.729
	c0-9.671,8.816-13.289,3.329-34.547c-2.198,4.655-3.168,9.31-9.003,13.965c1.812-12.349-0.817-22.647-6.21-31.671
	c0.948,11.713-1.465,20.063-4.348,27.945c1.059-19.712-8.133-30.269-17.388-38.502c5.617,18.384-4.767,29.316,6.365,43.975
	c-11.065-12.88-18.642-6.673-24.22-2.523c20.528,5.06,7.987,27.706,42.889,27.752c18.997,29.457,53.605,43.649,84.236,61.126
	c36.159,20.63,26.238,53.836,7.444,45.743c-36.099-15.544-36.451-61.775-109.326-81.846c-40.136-11.054-62.012-25.575-77.494-39.842
	l-120.84-30.21c-35.961,75.735,42.365,85.621,70.928,93.257c41.529,11.102,87.525-1.125,103.269,33.032
	c3.118,6.766,2.418,29.162,12.772,37.002c21.304,16.128,46.993,47.084,110.151,51.336c-1.647,18.521-8.295,31.634-26.479,36.925
	c2.869-9.223-29.146-23.822-31.464-2.07c8.65-6.186,15.475,0.418,21.942,9.522c-26.831-7.764-29.108,9.793-27.738,19.872
	c5.599-13.247,16.117,5.212,27.324-2.898c-1.601,6.683-1.071,5.845,0.229,11.311c15.563-9.809,40.581-29.286,33.654-3.803
	c3.011-1.088,4.261-2.628,6.31-3.652c1.85-0.925,3.873-2.912,5.313-5.312c0.955-1.593,0.996-4.432,0.996-6.31
	c0-1.299,3.524-2.86,4.316-3.653c1.55-1.549,2.132-3.268,2.989-4.98c1.085-2.17,0.671-3.865-0.664-5.646
	c-1.23-1.64-2.273-2.561-3.985-2.988c-0.852-0.213-1.078-0.332-1.992-0.332c14.271-17.414,19.37-38.904,15.322-64.46
	c-73.425,4.708-51.488-43.151-70.226-70.988C365.356,530.724,451.357,446.018,367.157,398.484z"/>
<path id="path2577" fill="#FFE000" stroke="#000000" stroke-width="0.36" d="M323.752,582.198
	c1.426-4.524,0.214-9.055,13.627-11.088"/>
<path id="path1610" sodipodi:nodetypes="cccccccccccccccccccccccccsccc" fill="#FFE000" stroke="#000000" stroke-width="0.36" d="
	M176.275,212.949c18.273,5.793,38.57,22.619,45.282,57.68c27.836-1.546,19.504,43.858-6.469,21.563
	c11.55,11.472-10.912,51.11-12.399,26.414c-0.636,10.565-19.562,37.609-18.328,12.398c1.711,6.906-24.5,40.832-21.562,14.555
	c-1.714,9.676-25.688,26.563-20.484,5.391c-0.111,5.558-21.451,18.483-24.259,4.312c-10.911,1.488-29.851,3.212-14.555-7.008
	c-12.613,2.725-20.809,1.768-24.797-2.695l12.938-8.625c-9.768,2.464-18.762,3.382-24.258-2.695l11.859-9.703
	c-6.978,0.958-14.325,3.396-19.945-1.078l8.086-10.782l-13.477-0.539l10.242-13.477l-12.398-0.539
	c3.643-9.929,9.444-20.328,24.258-20.484l-21.023-2.156c9.49-8.218,18.282-17.948,36.117-8.086l-11.001-12.938
	c13.27-1.867,22.164,0.437,28.251,8.625l0.539-10.242c7.636-0.19,15.729,2.373,24.798,10.781
	c6.374,19.749,21.824,6.414,14.555-0.539c-9.484-9.071-13.915-5.307-5.93-13.477c29.606,34.964,51.229-3.688,21.023-12.398
	C160.718,224.169,169.241,219.091,176.275,212.949z"/>
<path id="path1613" sodipodi:nodetypes="cc" fill="none" stroke="#000000" stroke-width="0.36" d="M216.64,278.522
	c5.438-2.633,15.609-0.99,10.997,10.997"/>
<path id="path1617" sodipodi:nodetypes="cc" fill="none" stroke="#000000" stroke-width="0.36" d="M185.655,223.385
	c-6.025,0.75-11.753,0.604-15.913-4.243"/>
<path id="path1619" sodipodi:ry="1.2730632" sodipodi:cx="72.182678" sodipodi:cy="89.712135" sodipodi:type="arc" sodipodi:rx="1.2730632" fill="#FF0000" stroke="#000000" stroke-width="0.2516" stroke-linecap="square" d="
	M205.567,249.2c0,2.794-2.266,5.06-5.06,5.06c-2.795,0-5.06-2.266-5.06-5.06c0-2.795,2.265-5.06,5.06-5.06
	C203.302,244.141,205.567,246.406,205.567,249.2z"/>
<path id="path2494" sodipodi:ry="0.63653159" sodipodi:cx="71.673454" sodipodi:cy="88.820992" sodipodi:type="arc" sodipodi:rx="0.63653159" d="
	M202.275,246.725c0.006,1.758-1.414,3.188-3.172,3.193s-3.188-1.414-3.193-3.172c0-0.007,0-0.015,0-0.021
	c-0.006-1.758,1.415-3.188,3.172-3.193c1.758-0.006,3.188,1.414,3.193,3.172C202.275,246.711,202.275,246.718,202.275,246.725z"/>
<path id="path2496" sodipodi:nodetypes="ccc" fill="none" stroke="#000000" stroke-width="0.36" d="M195.203,235.055
	c5.898,7.111,13.357,10.787,14.853,27.583c-3.906-0.277-6.772,2.047-12.377-2.475"/>
<path id="path2498" fill="#FFE000" stroke="#000000" stroke-width="0.36" d="M218.229,253.993c-0.407,0.025-0.799,0.049-1.216,0.087
	c1.889,5.003,3.355,10.525,4.515,16.579c5.491-0.305,9.595,1.177,12.413,3.646C236.796,257.126,229.205,253.308,218.229,253.993z"/>
<path id="path2508" sodipodi:nodetypes="cc" fill="none" stroke="#000000" stroke-width="0.36" d="M48.754,104.256
	c-4.6,6.785,3.366,9.893-3.079,18.475"/>
<path id="path2522" sodipodi:nodetypes="cc" fill="none" stroke="#000000" stroke-width="0.36" d="M200.533,392.247
	c19.546,9.512,29.395,25.193,37.3,42.112"/>
<path id="path2614" fill="#FFE000" stroke="#000000" stroke-width="0.36" d="M482.205,239.844
	c5.663,13.879,2.344,25.959,2.344,41.666c0,33.207,6.906,62.353,53.125,85.504c2.081,27.375-13.698,62.364-19.531,34.635
	c-6.64-10.649-14.499-16.789-25.261-11.979c5.76,3.46,9.8,7.771,9.375,14.322c-12.852-10.081-19.093-2.209-24.826,7.031
	c12.298-6.839,17.303,2.945,17.448,9.636c0.097,4.46-5.338,8.472-2.344,13.629c9.723-15.655,14.097,0,22.135,0
	c6.006,0,8.593-1.375,10.504-5.035c0.763,5.008,3.443,8.927,13.194,8.941c-7.394,6.004-5.442,9.897-1.823,13.454
	c7.426-6.744,19.773-16.812,4.341-28.732c22.428-20.12,23.689-45.94,26.389-71.44c-44.198-13.884-6.949-86.556-32.552-110.591
	c25.212-4.069,36.284-19.638,36.284-37.239c0-23.754-30.443-29.46-15.104-52.604c-8.075,0.98-12.188,5.926-13.367,13.803
	c-5.117-8.837-6.117-19.074-4.341-30.209c-6.21,4.031-8.997,10.817-9.462,19.445c-5.479-4.705-12.523-5.569-10.33-28.906
	c-6.705,6.612-8.981,13.266-9.982,19.878c-28.961-17.031-23.401-36.839-9.027-57.292c18.514,9.143,31.819-2.252,46.614,1.39
	c-0.024-9.354-7.05-10.516-15.538-10.07c13.917-2.732,10.033-13.489,30.556-12.152c-6.182-6.048-14.428-9.35-28.819-4.948
	c12.542-6.631,6.756-15.569,25.26-18.75c-7.928-0.867-15.18-6.803-24.826,2.171c-7.165,6.665-18.595,8.577-28.646,11.979
	c13.515-5.833,15.571-16.228,16.493-26.476c-4.367,14.264-49.301,15.919-25.435,50.955c-25.193,19.674-35.246,55.015,19.358,80.902
	c21.144,10.024,42.014,28.871,42.014,45.66c0,14.547-23.826,25.629-35.938,10.33c-20.457-25.842-64.328-12.724-116.232-57.118
	c-2.354,14.217-10.396,24.661-15.451,7.639c2.561,20.823-25.422,33.933-23.438,14.844c-1.201,4.732-9.807,15.611-14.41,15.018
	c-2.143-0.346-3.484-3.25-2.691-10.591c-1.419,4.434-11.447,14.766-15.885,14.149c-0.188-0.032-0.442-0.099-0.607-0.173
	c-0.07-0.035-0.195-0.132-0.261-0.174c-0.17-0.121-0.385-0.339-0.521-0.521c-1.024-1.475-1.024-4.886,0.867-11.11
	c-6.68,10.572-14.849,16.071-25.434,13.368c-0.542-3.622,2.739-7.229,5.902-10.852c-5.557,5.051-10.722,7.631-15.538,8.421
	c18.096,20.427,48.996,38.963,78.038,38.889c30.646-0.079,53.394-6.25,76.562-6.25C467.349,234.288,472.572,236.919,482.205,239.844
	z"/>
<path id="path2596" fill="none" stroke="#000000" stroke-width="0.36" d="M459.543,221.788c8.277,3.987,17.947,6.677,22.662,18.056"
	/>
<path id="path2565" fill="#FFE000" stroke="#000000" stroke-width="0.36" d="M417.187,52.083c-3.178,0.28-6.611,1.87-9.549,4.861
	c3.434,3.042,6.11,6.474,7.899,10.243c4.378-0.737,8.081-0.716,11.111-0.087C429.889,57.059,424.184,51.466,417.187,52.083z"/>
<path id="path2575" sodipodi:nodetypes="ccccc" fill="#FFFFFF" stroke="#000000" stroke-width="0.36" d="M356.337,56.412
	c-8.474,9.302-13.989,19.661-11.885,32.741l32.292,8.297l4.036-30.274L356.337,56.412z"/>
<path id="path2563" sodipodi:nodetypes="ccc" fill="#FF0000" stroke="#000000" stroke-width="0.36" d="M373.38,88.118
	c-66.839-30.749-32.374-27.47-49.465-50.423C348.125,41.11,320.22,52.979,373.38,88.118z"/>
<path id="path2567" sodipodi:nodetypes="ccccccccccsccccccccccccccccc" fill="#FFE000" stroke="#000000" stroke-width="0.36" d="
	M331.876,190.705c-7.813,25.704,15.825,3.013,16.509-2.847c-3.039,25.125,16.657,1.52,17.078-4.554
	c-3.095,21.771,30.256,4.963,22.2-18.786c6.772,32.617,21.913-1.258,15.939-21.062c9.45,33.155,17.382-5.233,11.954-17.646
	c9.965,22.109,14.676-4.869,2.277-17.646c12.833,10.825,10.1-4.778,5.123-15.939c20.229-0.495,21.337-29.886-7.4-25.048
	c-7.387-15.564-30.4-24.489-55.713-30.411c-8.385,9.309-16.616,21.678,2.592,28.005c23.549,7.758,3.105,35.11-18.476,19.019
	c-3.291,2.464-4.152,5.737-4.256,9.264c29.055-0.031,21.873,25.855,3.609,17.246c-11.52-9.771-20.916-5.674-7.62,4.812
	c-9.815-6.574-34.719-8.877-21.257,6.417c-9.358-0.092-18.717-0.303-28.074,4.812c6.569-0.019,12.645,0.457,16.042,3.609
	c-11.559,0.058-20.987,2.423-23.228,12.576c6.148-0.441,9.778,1.132,12.023,3.812c-10.552-1.014-16.181,9.048-20.527,21.994
	c4.79-3.97,9.579-5.506,14.369-5.571c-7.942,8.018-13.909,16.628-14.076,26.979c4.316-0.819,8.196-3.384,11.73-7.331
	c4.64,6.231,2.78,11.069-3.52,14.956c9.862,5.902,20.462,7.567,33.432-4.398c-3.235,3.714-6.715,7.429-6.159,11.144
	C317.034,206.812,325.196,201.278,331.876,190.705z"/>
<path id="path2553" sodipodi:nodetypes="cc" fill="none" stroke="#000000" stroke-width="0.36" d="M351.39,49.262
	c3.34-2.765,9.798-3.576,16.638-3.54"/>
<path id="path2555" sodipodi:nodetypes="cc" fill="none" stroke="#000000" stroke-width="0.36" d="M413.539,74.658
	c11.737-5.75,17.799,0.42,16.047,8.682"/>
<path id="path2557" sodipodi:ry="1.2730632" sodipodi:cx="72.182678" sodipodi:cy="89.712135" sodipodi:type="arc" sodipodi:rx="1.2730632" fill="#FF0000" stroke="#000000" stroke-width="0.2516" stroke-linecap="square" d="
	M395.099,63.036c0,2.794-2.266,5.06-5.06,5.06c-2.795,0-5.061-2.266-5.061-5.06c0-2.795,2.266-5.06,5.061-5.06
	C392.834,57.977,395.099,60.241,395.099,63.036z"/>
<path id="path2559" sodipodi:ry="0.63653159" sodipodi:cx="71.673454" sodipodi:cy="88.820992" sodipodi:type="arc" sodipodi:rx="0.63653159" d="
	M390.889,62.092c0.006,1.758-1.415,3.188-3.172,3.193c-1.758,0.006-3.188-1.414-3.193-3.172c0-0.008,0-0.015,0-0.021
	c-0.006-1.758,1.414-3.188,3.172-3.193s3.188,1.414,3.193,3.172C390.889,62.077,390.889,62.085,390.889,62.092z"/>
<path id="path2561" sodipodi:nodetypes="ccc" fill="none" stroke="#000000" stroke-width="0.36" d="M381.039,51.099
	c8.929,5.328,18.564,9.771,24.254,19.148c-5.69,0.106-6.692,2.089-8.297,3.829"/>
<path id="path2581" sodipodi:nodetypes="ccsssccsssssssssscccsccccccccccsssssssscc" fill="#FFE000" stroke="#000000" stroke-width="0.36" d="
	M272.396,41.579c-1.212,0.079-2.468,0.264-3.733,0.435c2.754,0.953,4.442,1.968,5.296,3.038c0.175,0.23,0.326,0.544,0.434,0.781
	c0.223,0.53,0.314,1.164,0.261,1.736c-0.581,5.025-10.216,11.868-4.428,22.916c-9.837-15.408-20.211-26.226-33.681-9.461
	c4.948-2.545,12.587-2.258,12.587,2.17c0,2.311-1.285,3.602-1.562,5.295c-0.036,0.251-0.016,0.594,0,0.868
	c0.107,1.331,0.881,3.04,3.212,5.556c4.588,4.951,5.27,8.35,4.08,10.243c-0.045,0.067-0.124,0.197-0.174,0.26
	c-0.033,0.042-0.138,0.135-0.174,0.174s-0.135,0.137-0.173,0.174c-0.04,0.036-0.133,0.139-0.174,0.174
	c-0.063,0.051-0.193,0.126-0.261,0.174c-3.554,2.364-12.077-0.236-12.239-6.945c-2.998,6.488-3.808,12.002-0.694,15.278
	c2.863,2.929,8.988,4.062,19.531,2.518c-16.84,4.451-19.691,91.622-8.073,99.739c6.211,4.339,17.867,3.099,30.382,2.604
	c-1.228-0.577-2.442-1.19-3.646-1.91c6.299-3.887,8.199-8.786,3.559-15.018c-3.534,3.947-7.402,6.559-11.719,7.379
	c0.167-10.351,6.12-18.979,14.062-26.997c-4.789,0.066-9.619,1.586-14.409,5.556c4.347-12.946,10.021-22.976,20.572-21.962
	c-2.245-2.68-5.918-4.261-12.065-3.819c0.63-2.855,1.817-5.112,3.472-6.857c-21.799-101.989,25.96-10.884,23.872-73.524
	c-2.101,4.187-3.773,6.458-5.208,7.466c-0.179,0.12-0.437,0.263-0.608,0.347c-0.122,0.057-0.314,0.135-0.434,0.174
	c-0.095,0.028-0.254,0.068-0.348,0.087c-0.093,0.016-0.255-0.006-0.347,0c-0.092,0.004-0.257,0.005-0.348,0
	c-0.067-0.006-0.193,0.01-0.26,0c-0.067-0.012-0.194-0.07-0.261-0.087c-3.571-0.956-6.61-8.123-14.323-4.08
	C288.495,44.024,281.521,40.989,272.396,41.579z"/>
<path id="path2586" fill="#FFE000" stroke="#000000" stroke-width="0.36" d="M195.399,43.142c5.124,10.806,6.743,19.45-7.812,18.229
	c-6.784-25.657-18.419-18.362-30.643-7.031c8.112-0.96,14.481,0.14,12.761,11.198c-15.547-0.505-21.414,4.533-21.527,12.847
	c0.648-0.486,0.842-0.898,1.648-1.302c1.708-0.854,3.53-1.896,6.25-1.215c2.976,0.743,3.419,1.335,5.383,3.298
	c1.727,1.727,2.135,4.231,3.906,4.948c0.037,0.015,0.135,0.074,0.173,0.087c0.118,0.035,0.304,0.066,0.435,0.087
	c0.089,0.012,0.252-0.004,0.347,0c0.169,0.004,0.419,0.021,0.608,0c0.22-0.027,0.53-0.111,0.781-0.174
	c0.453-0.239,5.825-3.373,6.857-3.386c0.008,0.001,0.079-0.001,0.087,0c0.008,0.008,0.082,0.078,0.087,0.087
	c0,0.945,0,4.491,0,6.685c0,1.479-0.072,2.568,0.173,3.385c0.312,0.937,1.054,1.588,2.691,1.997
	c2.141,0.535,2.794,3.093,1.649,5.382c-1.277,2.555-1.802,3.646-5.382,3.646c-1.872,0-4.358,0.451-6.163,0
	c-0.553-0.138-1.098-0.209-1.649-0.347c11.779,16.493,17.983,6.335,24.392-2.951c14.399,23.169,18.771,53.972,54.948,60.59
	c-0.022-11.613,0.862-24.125,2.691-34.896c-5.143-6.66-14.358-16.584-29.08-25.694C167.595,66.792,235.618,68.812,195.399,43.142z"
	/>
<path id="path2604" fill="#FFE000" stroke="#000000" stroke-width="0.36" d="M387.847,165.278c0.095,0.436,0.249,0.805,0.347,1.216
	C388.094,166.092,387.971,165.684,387.847,165.278z"/>
<path id="path2602" fill="#FFE000" stroke="#000000" stroke-width="0.36" d="M388.194,166.666c0.159,0.658,0.268,1.315,0.435,1.91
	C388.528,167.916,388.358,167.34,388.194,166.666z"/>
<path id="path2600" fill="#FFE000" stroke="#000000" stroke-width="0.36" d="M348.35,188.195c-0.018,0.076-0.062,0.18-0.087,0.261
	C348.274,188.365,348.341,188.286,348.35,188.195z"/>
<path id="path2618" fill="#FFE000" stroke="#000000" stroke-width="0.36" d="M462.847,234.896
	c-8.814,14.334-40.191,11.849-40.191,44.098c0,20.526,5.395,13.897,2.777,33.767c-17.141-7.19-29.987-18.063-43.576-27.517
	c-10.747-7.478,2.344-11.134,2.344-22.31c0-9.394-6.629-12.617-14.148-12.587c8.768,10.944-5.749,11.838-3.212,24.393
	c-8.633-20.509-17.676-28.005-27.344-15.364c15.36,3.653,1.435,12.268,19.01,19.444c-7.557-2.875-11.854-3.324-14.322-2.344
	c-0.184,0.076-0.444,0.167-0.608,0.261c-0.068,0.04-0.194,0.13-0.26,0.173c-3.079,2.129-2.374,7.54-3.386,12.848
	c0.483-0.604,0.993-1.133,1.476-1.736c0.016-0.019,0.07-0.068,0.087-0.087c0.035-0.036,0.134-0.139,0.174-0.174
	c1.26-0.998,4.658-1.452,6.076-1.735c0.012-0.001,0.075,0,0.087,0s0.075-0.002,0.087,0c0.036,0.009,0.137,0.071,0.174,0.087
	c0.012,0.005,0.074-0.007,0.087,0c0.024,0.014,0.062,0.069,0.086,0.086c1.416,0.997,3.116,5.837,3.386,6.511
	c0.006,0.016-0.007,0.071,0,0.087c0.021,0.045,0.062,0.132,0.087,0.174c0.009,0.014,0.077,0.073,0.087,0.087
	c0.02,0.026,0.065,0.062,0.087,0.087c1.287,1.449,5.378,1.128,7.205,1.128c2.475,0.06,5.022,3.895,6.25,5.121
	c0.016,0.017,0.071,0.071,0.086,0.087c0.015,0.017,0.073,0.07,0.087,0.087c0.053,0.067,0.133,0.189,0.174,0.261
	c0.039,0.071,0.059,0.186,0.087,0.26c0.013,0.038,0.076,0.136,0.087,0.174c0.01,0.039-0.007,0.135,0,0.174
	c0.018,0.117,0.089,0.312,0.087,0.434c-0.002,0.041-0.083,0.133-0.087,0.174c-0.19,1.73-2.082,3.738-3.212,4.167
	c-0.078,0.025-0.191,0.078-0.261,0.087c-0.011,0.001-0.075-0.001-0.087,0c-0.01-0.001-0.076,0.001-0.086,0
	c-1.272-0.212-3.07-1.295-4.167-2.431c-0.218-0.233-0.456-0.546-0.607-0.781c-0.048-0.078-0.135-0.183-0.174-0.261
	c7.197,32.096,10.322-11.286,42.621,23.438c12.998,13.975,14.612,17.056,18.837,22.049c13.514,15.972,28.651-17.927,34.114-34.982
	c6.122-19.112,16.352-31.316,31.771-35.938c0.521-13.301,2.603-24.211-2.431-36.545
	C475.332,237.757,470.733,235.834,462.847,234.896z M357.292,301.823c-0.026-0.052-0.065-0.122-0.087-0.174
	C357.219,301.715,357.277,301.757,357.292,301.823z"/>
<path id="path2623" fill="#FF0000" stroke="#000000" stroke-width="0.36" d="M462.847,234.896
	c-2.721,4.423-7.589,7.248-13.021,9.982c13.345,1.274,25.075,5.829,35.678,12.587c-0.065-5.835-0.822-11.551-3.299-17.621
	C475.332,237.757,470.733,235.834,462.847,234.896z"/>
</svg>
