<?xml version="1.0" encoding="utf-8"?>
<!-- Generator: Adobe Illustrator 14.0.0, SVG Export Plug-In . SVG Version: 6.00 Build 43363)  -->
<!DOCTYPE svg PUBLIC "-//W3C//DTD SVG 1.1//EN" "http://www.w3.org/Graphics/SVG/1.1/DTD/svg11.dtd">
<svg version="1.1"
	 id="UR" xmlns:rdf="http://www.w3.org/1999/02/22-rdf-syntax-ns#" xmlns:sodipodi="http://inkscape.sourceforge.net/DTD/sodipodi-0.dtd" sodipodi:docbase="E:\" xmlns:cc="http://web.resource.org/cc/" sodipodi:docname="Flag_of_Canton_of_Uri.svg" sodipodi:version="0.32" xmlns:svg="http://www.w3.org/2000/svg" inkscape:version="0.43" xmlns:inkscape="http://www.inkscape.org/namespaces/inkscape" xmlns:dc="http://purl.org/dc/elements/1.1/"
	 xmlns="http://www.w3.org/2000/svg" xmlns:xlink="http://www.w3.org/1999/xlink" x="0px" y="0px" width="600px" height="600px"
	 viewBox="0 0 600 600" enable-background="new 0 0 600 600" xml:space="preserve">
<rect id="rect3423" x="0" y="0" fill="#FFFF00" width="600" height="600"/>
<path id="path2447" sodipodi:nodetypes="csscccsssssssssssssssssssssscccsszsscccsssssssssssssssssssssscccsssssccssssszsssssccsssc" d="
	M108.471,16.781c-45.019,1.551-67.456,34.897-67.456,53.76c0,25.383,18.109,52.467,61.816,64.087
	c18.16,4.828,33.982,17.503,33.105,21.021c-0.692,2.158-8.202,0.638-26.147-8.936c-42.124-25.519-76.409-18.091-99.976,31.714
	c25.927,14.09,23.269,34.782,37.28,33.618c0,0,6.687-2.487,11.499-0.439c4.813,2.048,3.156,7.619,7.764,8.643
	c4.608,1.024,6.422-5.155,10.62-4.541c0.361,0.053,0.678,0.171,0.879,0.293c0.069,0.047,0.169,0.166,0.22,0.22
	c0.012,0.015,0.062,0.059,0.073,0.073c0.02,0.03,0.058,0.115,0.073,0.146c0.015,0.032,0.062,0.112,0.073,0.146
	c0.033,0.122,0.075,0.301,0.073,0.439c-0.048,1.227-1.171,3.077-0.293,4.321c0.512,0.664,1.617,1.16,3.809,1.318
	c7.237,0.523,7.17-3.302,9.229-4.321c0.465-0.213,1.04-0.294,1.831-0.146c3.233,0.602,3.319,4.374,5.054,6.445
	c0.622,0.715,1.517,1.239,2.783,1.318c4.915,0.308,6.644-7.03,11.865-6.519c5.223,0.512,3.991,8.058,9.009,8.569
	s5.838-6.211,11.06-6.519c5.223-0.307,4.285,5.068,9.814,5.273c5.53,0.205,7.132-5.602,12.305-4.468
	c6.051,1.326,8.01,4.989,7.617,12.524c-1.879,36.079,27.552,68.257,47.827,84.595c31.794,21.859,7.449,28.662,2.344,9.595
	c-9.354,19.112-0.19,34.06,26.88,29.883c-54.046,12.783-46.462,41.91-19.336,72.876c9.552,10.903,14.558,23.758,17.944,43.433
	c3.048,17.702,23.816,26.733,61.89,26.733c38.074,0,58.843-9.031,61.89-26.733c3.388-19.675,8.394-32.529,17.944-43.433
	c27.126-30.966,34.71-60.093-19.336-72.876c27.07,4.177,36.233-10.771,26.88-29.883c-5.105,19.067-29.45,12.265,2.344-9.595
	c20.276-16.338,49.706-48.516,47.827-84.595c-0.393-7.535,1.566-11.198,7.617-12.524c5.173-1.134,6.775,4.673,12.305,4.468
	s4.592-5.58,9.814-5.273c5.223,0.308,6.042,7.03,11.06,6.519s3.786-8.058,9.009-8.569s6.95,6.826,11.865,6.519
	c1.268-0.079,2.161-0.604,2.783-1.318c1.734-2.071,1.82-5.844,5.054-6.445c0.791-0.147,1.366-0.066,1.831,0.146
	c2.059,1.02,1.992,4.845,9.229,4.321c2.191-0.158,3.298-0.654,3.809-1.318c0.879-1.244-0.245-3.095-0.293-4.321
	c-0.001-0.139,0.041-0.317,0.073-0.439c0.011-0.034,0.059-0.114,0.073-0.146c0.016-0.031,0.054-0.116,0.073-0.146
	c0.011-0.015,0.062-0.059,0.073-0.073c0.052-0.054,0.151-0.173,0.22-0.22c0.202-0.122,0.519-0.24,0.879-0.293
	c4.198-0.614,6.012,5.565,10.62,4.541c4.608-1.023,2.951-6.595,7.764-8.643s11.499,0.439,11.499,0.439
	c14.012,1.164,11.354-19.528,37.28-33.618c-23.566-49.805-57.852-57.232-99.976-31.714c-17.945,9.573-25.455,11.094-26.147,8.936
	c-0.876-3.518,14.945-16.192,33.105-21.021c43.707-11.62,61.816-38.704,61.816-64.087c0-19.314-23.542-53.76-70.752-53.76
	c-38.687,0-65.341,22.773-23.584,24.976c45.489,2.399,51.128,29.224,28.784,29.224c-22.168,0-41.507-7.076-62.256-5.2
	c0.502-3.388,0.865-6.72,3.809-10.107c-19.785-6.987-21.996,0.381-29.297,0.879c-12.331,0.842-19.248-11.213-30.249-12.817
	c-11-1.604-5.475,5.824-13.037,4.907s-7.815-8.34-17.212-8.569c-9.396-0.229-12.612,7.982-21.387,7.397
	C315.261,46.9,308.935,35.384,300,35.384c-8.935,0-15.262,11.516-23.804,12.085c-8.773,0.585-11.99-7.627-21.387-7.397
	c-9.396,0.229-9.649,7.652-17.212,8.569s-2.036-6.512-13.037-4.907c-11,1.604-17.917,13.659-30.249,12.817
	c-7.301-0.498-9.512-7.866-29.297-0.879c2.944,3.388,3.307,6.72,3.809,10.107c-20.749-1.876-40.087,5.2-62.256,5.2
	c-22.344,0-16.704-26.824,28.784-29.224c41.757-2.202,15.103-24.976-23.584-24.976C110.661,16.781,109.552,16.743,108.471,16.781z"
	/>
<path id="path3322" sodipodi:nodetypes="ccc" fill="#FFFF00" d="M37.999,168.424c42.853-1.271,43.533,26.595,75.998,20.868
	C83.876,174.402,65.96,145.018,37.999,168.424z"/>
<path id="path3324" sodipodi:nodetypes="csc" fill="#FFFF00" d="M113.664,30.785C82.093,24.492,64.148,39.57,70.08,46.53
	C76.681,54.276,103.792,39.302,113.664,30.785z"/>
<path id="path3326" sodipodi:nodetypes="ccc" fill="#FFFF00" d="M156.34,80.326c0.303,3.438-3.826,11.955-9.788,14.284
	C142.735,89.599,148.837,81.415,156.34,80.326z"/>
<path id="path3328" sodipodi:nodetypes="ccc" fill="#FFFF00" d="M169.221,95.747c10.348,4.178,29.213-9.656,26.269-14.099
	C181.805,80.067,172.652,86.118,169.221,95.747z"/>
<path id="path3330" sodipodi:nodetypes="csc" fill="#FFFF00" d="M144.461,105.615c-5.841,3.295-12.144,10.725-7.539,13.619
	C142.877,122.978,143.821,110.736,144.461,105.615z"/>
<path id="path3332" sodipodi:nodetypes="csc" fill="#FFFF00" d="M185.89,142.517c-3.727,17.063,8.851,40.534,20.548,30.584
	C211.728,168.601,192.154,158.75,185.89,142.517z"/>
<path id="path3334" sodipodi:nodetypes="csc" fill="#FFFF00" d="M237.295,173.271c10.588,5.913,13.706,15.019,8.465,18.296
	C239.662,195.38,234.944,181.664,237.295,173.271z"/>
<path id="path3336" sodipodi:nodetypes="ccc" fill="#FFFF00" d="M267.332,180.37c2.83,7.365,3.472,16.646,17.477,16.931
	C281.833,192.203,273.583,184.922,267.332,180.37z"/>
<path id="path3338" fill="#FFFF00" d="M153.222,161.361c-2.93,8.125,3.134,18.569,9.448,25.049
	c5.88,6.033,15.851,12.33,25.488,15.894c-1.063,0.729-2.261,1.57-3.442,2.49c-2.363,1.84-2.898,4.668-4.102,7.104
	c-0.602,1.219-0.927,2.597-0.659,3.955c0.268,1.359,1.124,2.62,2.49,3.735c2.732,2.231,7.554,4.011,15.747,5.42l0.439-2.271
	c-8.01-1.378-12.603-3.249-14.722-4.98c-0.662-0.541-1.122-1.065-1.392-1.538c-0.139-0.259-0.242-0.549-0.293-0.806
	c-0.146-0.746-0.003-1.593,0.439-2.49c0.886-1.794,4.267-3.301,6.519-5.054c1.751-1.363,3.647-2.539,5.054-3.516
	c20.147,6.799,29.61,11.529,35.303,17.798c6.051,6.663,6.592,13.593,6.592,22.852c0,9.416-0.872,15.039-1.758,20.654
	c-0.885,5.616-1.831,11.238-1.831,20.435c0,12.317,4.147,21.562,8.203,29.883s8.018,15.722,8.13,24.683
	c0.114,9.041-2.597,13.171-6.958,15.601s-10.699,2.984-17.505,3.882l0.293,2.344c6.731-0.888,13.271-1.367,18.311-4.175
	s8.323-8.174,8.203-17.725c-0.121-9.63-4.318-17.364-8.35-25.635s-7.983-17.06-7.983-28.857c0-9.045,0.872-14.448,1.758-20.068
	c0.886-5.619,1.831-11.459,1.831-21.021c0-9.354-0.618-17.166-7.178-24.39c-6.559-7.224-18.145-14.554-41.162-22.119
	c-9.993-3.284-16.917-7.899-22.852-13.989c-5.934-6.089-6.911-13.693-4.321-20.874L153.222,161.361z"/>
<path id="path3347" sodipodi:nodetypes="ccssccssc" fill="#FFFF00" d="M218.816,384.005l0.328,5.552
	c16.03,0.618,22.484,8.921,27.87,17.598c2.693,4.338,4.459,7.961,6.36,11.957c3.028,6.366,11.319,4.916,16.146,5.004l0.201-4.55
	c-4.073-0.073-9.417-0.26-11.982-3.396c-2.565-3.137-5.448-7.082-7.544-11.865C242.883,387.61,235.663,384.655,218.816,384.005z"/>
<path id="path3351" sodipodi:nodetypes="cccsc" fill="#FFFF00" d="M182.942,237.233c12.653,14.437,23.736,24.303,44.322,1.583
	c1.313,8.055,1.806,17.826-6.332,23.518c-2.419-3.494-1.702-4.457-13.794-4.749C187.36,257.109,184.842,246.278,182.942,237.233z"/>
<path id="path3353" sodipodi:ry="2.5085723" sodipodi:cx="85.870361" sodipodi:cy="100.08257" sodipodi:type="arc" sodipodi:rx="2.5085723" fill="#FFFF00" d="
	M207.591,237.006c0,3.248-2.633,5.88-5.88,5.88s-5.879-2.632-5.879-5.88c0-3.247,2.632-5.879,5.879-5.879
	S207.591,233.759,207.591,237.006z"/>
<path id="path3355" sodipodi:nodetypes="ccsccsc" fill="#FFFF00" d="M199.145,259.578l-0.293,2.344
	c5.017,0.549,8.653,2.946,12.053,5.025c3.4,2.079,4.956,4.169,7.063,9.916l2.344-0.146c-0.325-6.758-2.445-12.326-6.426-14.76
	S204.235,260.135,199.145,259.578z"/>
<path id="path3359" fill="none" stroke="#FFFF00" stroke-linecap="round" d="M265.797,318.884v8.431"/>
<path id="path3361" fill="none" stroke="#FFFF00" stroke-linecap="round" d="M275.558,316.887v17.306"/>
<path id="path3363" fill="none" stroke="#FFFF00" stroke-linecap="round" d="M287.317,314.447v14.421"/>
<path id="path3365" fill="none" stroke="#FFFF00" stroke-linecap="round" d="M300,314.225v14.864"/>
<path id="path3367" sodipodi:ry="15.701333" sodipodi:cx="57.344002" sodipodi:cy="210.944" sodipodi:type="arc" sodipodi:rx="10.24" fill="#FF0000" stroke="#000000" stroke-width="1.0754" stroke-linecap="round" d="
	M320.754,505.141c0.007,20.324-9.278,36.811-20.74,36.823c-11.463,0.013-20.76-16.453-20.768-36.777c0-0.016,0-0.03,0-0.046
	c-0.007-20.324,9.279-36.811,20.741-36.823s20.76,16.453,20.767,36.777C320.754,505.11,320.754,505.125,320.754,505.141z"/>
<path id="path3386" sodipodi:nodetypes="czc" fill="none" stroke="#000000" stroke-width="16" stroke-linecap="round" d="
	M373.6,417.285c9.6,17.601,56.144,147.2-73.601,147.2c-129.743,0-83.2-129.6-73.6-147.2"/>
<path id="path3369" sodipodi:nodetypes="czc" fill="none" stroke="#FF0000" stroke-width="14" stroke-linecap="round" d="
	M373.6,417.285c9.6,17.601,56.144,147.2-73.601,147.2c-129.743,0-83.2-129.6-73.6-147.2"/>
<path id="path3390" sodipodi:nodetypes="ccc" fill="#FFFF00" d="M562.001,168.424c-42.852-1.271-43.533,26.595-75.998,20.868
	C516.125,174.402,534.041,145.018,562.001,168.424z"/>
<path id="path3392" sodipodi:nodetypes="csc" fill="#FFFF00" d="M486.336,30.785c31.571-6.293,49.516,8.784,43.584,15.744
	C523.318,54.276,496.208,39.302,486.336,30.785z"/>
<path id="path3394" sodipodi:nodetypes="ccc" fill="#FFFF00" d="M443.661,80.326c-0.304,3.438,3.825,11.955,9.787,14.284
	C457.264,89.599,451.163,81.415,443.661,80.326z"/>
<path id="path3396" sodipodi:nodetypes="ccc" fill="#FFFF00" d="M430.778,95.747c-10.348,4.178-29.212-9.656-26.269-14.099
	C418.195,80.067,427.347,86.118,430.778,95.747z"/>
<path id="path3398" sodipodi:nodetypes="csc" fill="#FFFF00" d="M455.539,105.615c5.842,3.295,12.144,10.725,7.539,13.619
	C457.123,122.978,456.179,110.736,455.539,105.615z"/>
<path id="path3400" sodipodi:nodetypes="csc" fill="#FFFF00" d="M414.11,142.517c3.726,17.063-8.851,40.534-20.549,30.584
	C388.272,168.601,407.845,158.75,414.11,142.517z"/>
<path id="path3402" sodipodi:nodetypes="csc" fill="#FFFF00" d="M362.705,173.271c-10.588,5.913-13.705,15.019-8.465,18.296
	C360.338,195.38,365.055,181.664,362.705,173.271z"/>
<path id="path3404" sodipodi:nodetypes="ccc" fill="#FFFF00" d="M332.668,180.37c-2.83,7.365-3.471,16.646-17.477,16.931
	C318.168,192.203,326.418,184.922,332.668,180.37z"/>
<path id="path3406" fill="#FFFF00" d="M446.777,161.361c2.931,8.125-3.134,18.569-9.448,25.049
	c-5.879,6.033-15.85,12.33-25.488,15.894c1.063,0.729,2.261,1.57,3.442,2.49c2.363,1.84,2.899,4.668,4.102,7.104
	c0.602,1.219,0.927,2.597,0.659,3.955c-0.268,1.359-1.124,2.62-2.49,3.735c-2.731,2.231-7.554,4.011-15.747,5.42l-0.439-2.271
	c8.011-1.378,12.603-3.249,14.722-4.98c0.662-0.541,1.123-1.065,1.392-1.538c0.14-0.259,0.242-0.549,0.293-0.806
	c0.147-0.746,0.004-1.593-0.439-2.49c-0.886-1.794-4.267-3.301-6.519-5.054c-1.751-1.363-3.647-2.539-5.054-3.516
	c-20.147,6.799-29.61,11.529-35.303,17.798c-6.05,6.663-6.592,13.593-6.592,22.852c0,9.416,0.873,15.039,1.758,20.654
	c0.885,5.616,1.831,11.238,1.831,20.435c0,12.317-4.147,21.562-8.203,29.883s-8.017,15.722-8.13,24.683
	c-0.113,9.041,2.597,13.171,6.958,15.601s10.699,2.984,17.505,3.882l-0.293,2.344c-6.731-0.888-13.271-1.367-18.311-4.175
	s-8.323-8.174-8.203-17.725c0.121-9.63,4.318-17.364,8.35-25.635s7.983-17.06,7.983-28.857c0-9.045-0.872-14.448-1.758-20.068
	c-0.886-5.619-1.831-11.459-1.831-21.021c0-9.354,0.619-17.166,7.178-24.39c6.56-7.224,18.146-14.554,41.162-22.119
	c9.993-3.284,16.918-7.899,22.852-13.989c5.935-6.089,6.911-13.693,4.321-20.874L446.777,161.361z"/>
<path id="path3408" sodipodi:nodetypes="ccssccssc" fill="#FFFF00" d="M381.183,384.005l-0.327,5.552
	c-16.03,0.618-22.485,8.921-27.871,17.598c-2.692,4.338-4.458,7.961-6.359,11.957c-3.028,6.366-11.319,4.916-16.146,5.004l-0.2-4.55
	c4.072-0.073,9.416-0.26,11.981-3.396c2.565-3.137,5.449-7.082,7.544-11.865C357.118,387.61,364.337,384.655,381.183,384.005z"/>
<path id="path3410" sodipodi:nodetypes="cccsc" fill="#FFFF00" d="M417.058,237.233c-12.654,14.437-23.736,24.303-44.322,1.583
	c-1.313,8.055-1.807,17.826,6.332,23.518c2.419-3.494,1.701-4.457,13.794-4.749C412.64,257.109,415.159,246.278,417.058,237.233z"/>
<path id="path3412" sodipodi:ry="2.5085723" sodipodi:cx="85.870361" sodipodi:cy="100.08257" sodipodi:type="arc" sodipodi:rx="2.5085723" fill="#FFFF00" d="
	M392.41,237.006c0,3.248,2.632,5.88,5.879,5.88s5.88-2.632,5.88-5.88c0-3.247-2.633-5.879-5.88-5.879S392.41,233.759,392.41,237.006
	z"/>
<path id="path3414" sodipodi:nodetypes="ccsccsc" fill="#FFFF00" d="M400.854,259.578l0.293,2.344
	c-5.016,0.549-8.652,2.946-12.053,5.025s-4.955,4.169-7.063,9.916l-2.344-0.146c0.326-6.758,2.446-12.326,6.427-14.76
	C390.094,259.524,395.764,260.135,400.854,259.578z"/>
<path id="path3416" fill="none" stroke="#FFFF00" stroke-linecap="round" d="M334.204,318.884v8.431"/>
<path id="path3418" fill="none" stroke="#FFFF00" stroke-linecap="round" d="M324.441,316.887v17.306"/>
<path id="path3420" fill="none" stroke="#FFFF00" stroke-linecap="round" d="M312.682,314.447v14.421"/>
</svg>
