<?xml version="1.0" encoding="utf-8"?>
<!-- Generator: Adobe Illustrator 14.0.0, SVG Export Plug-In . SVG Version: 6.00 Build 43363)  -->
<!DOCTYPE svg PUBLIC "-//W3C//DTD SVG 1.1//EN" "http://www.w3.org/Graphics/SVG/1.1/DTD/svg11.dtd">
<svg version="1.1" id="VS" xmlns="http://www.w3.org/2000/svg" xmlns:xlink="http://www.w3.org/1999/xlink" x="0px" y="0px"
	 width="600px" height="600px" viewBox="0 0 600 600" enable-background="new 0 0 600 600" xml:space="preserve">
<path fill="#FFFFFF" d="M0,0v600h300V0H0z"/>
<path fill="#FF0000" d="M300,0v600h300V0H300z"/>
<polygon fill="#FFFFFF" points="311.899,404.62 300,368 300,441.242 300,441.241 331.153,463.877 319.254,427.255 350.406,404.62 
	"/>
<polygon fill="#FFFFFF" points="300,90.244 300,90.244 331.153,112.878 319.254,76.256 350.406,53.622 311.899,53.622 300,17 "/>
<polygon fill="#FFFFFF" points="311.899,170.622 300,134 300,207.244 300,207.244 331.153,229.878 319.254,193.256 350.406,170.622 
	"/>
<polygon fill="#FFFFFF" points="300,558.241 331.153,580.877 319.254,544.255 350.406,521.62 311.899,521.62 300,485 300,558.242 
	"/>
<polygon fill="#FFFFFF" points="311.899,287.622 300,251 300,324.242 300,324.241 331.153,346.877 319.254,310.255 350.406,287.622 
	"/>
<polygon fill="#FF0000" points="249.594,53.622 280.746,76.256 268.847,112.878 300,90.244 300,17 288.101,53.622 "/>
<polygon fill="#FF0000" points="300,558.242 300,485 288.1,521.62 249.594,521.62 280.746,544.256 268.847,580.877 "/>
<polygon fill="#FF0000" points="249.594,287.622 280.746,310.256 268.847,346.877 300,324.242 300,251 288.1,287.622 "/>
<polygon fill="#FF0000" points="249.594,404.62 280.746,427.256 268.847,463.877 300,441.242 300,368 288.1,404.62 "/>
<polygon fill="#FF0000" points="249.594,170.622 280.746,193.256 268.847,229.878 300,207.244 300,134 288.101,170.622 "/>
<g>
	<polygon fill="#FFFFFF" points="477.746,97.256 465.845,133.878 496.999,111.244 528.152,133.878 516.253,97.256 547.406,74.622 
		508.899,74.622 497,38 485.1,74.622 446.594,74.622 	"/>
	<polygon fill="#FFFFFF" points="497,178 485.1,214.622 446.594,214.622 477.746,237.256 465.845,273.878 496.999,251.244 
		528.152,273.878 516.253,237.256 547.406,214.622 508.899,214.622 	"/>
	<polygon fill="#FFFFFF" points="497,318 485.1,354.62 446.594,354.62 477.746,377.254 465.845,413.877 496.999,391.242 
		528.152,413.877 516.253,377.254 547.406,354.62 508.898,354.62 	"/>
	<polygon fill="#FFFFFF" points="508.898,494.62 497,458 485.1,494.62 446.594,494.62 477.746,517.254 465.845,553.877 
		496.999,531.242 528.152,553.877 516.253,517.254 547.406,494.62 	"/>
</g>
<g>
	<polygon fill="#FF0000" points="83.747,97.256 71.847,133.878 103,111.244 134.153,133.878 122.254,97.256 153.406,74.622 
		114.899,74.622 103,38 91.101,74.622 52.594,74.622 	"/>
	<polygon fill="#FF0000" points="103,178 91.101,214.622 52.594,214.622 83.747,237.256 71.847,273.878 103,251.244 
		134.153,273.878 122.254,237.256 153.406,214.622 114.899,214.622 	"/>
	<polygon fill="#FF0000" points="103,318 91.101,354.62 52.594,354.62 83.747,377.254 71.847,413.877 103,391.242 134.153,413.877 
		122.253,377.254 153.406,354.62 114.899,354.62 	"/>
	<polygon fill="#FF0000" points="114.899,494.62 103,458 91.101,494.62 52.594,494.62 83.747,517.254 71.847,553.877 103,531.242 
		134.153,553.877 122.253,517.254 153.406,494.62 	"/>
</g>
</svg>
