<?xml version="1.0" encoding="utf-8"?>
<!-- Generator: Adobe Illustrator 14.0.0, SVG Export Plug-In . SVG Version: 6.00 Build 43363)  -->
<!DOCTYPE svg PUBLIC "-//W3C//DTD SVG 1.1//EN" "http://www.w3.org/Graphics/SVG/1.1/DTD/svg11.dtd">
<svg version="1.1"
	 id="AR" xmlns:rdf="http://www.w3.org/1999/02/22-rdf-syntax-ns#" xmlns:sodipodi="http://inkscape.sourceforge.net/DTD/sodipodi-0.dtd" sodipodi:docbase="C:\Documents and Settings\David Nelson\Archives\Svg" xmlns:cc="http://web.resource.org/cc/" sodipodi:docname="Flag_of_Canton_of_Appenzell_Ausserrhoden.svg" sodipodi:version="0.32" xmlns:svg="http://www.w3.org/2000/svg" inkscape:version="0.43" xmlns:inkscape="http://www.inkscape.org/namespaces/inkscape" xmlns:dc="http://purl.org/dc/elements/1.1/"
	 xmlns="http://www.w3.org/2000/svg" xmlns:xlink="http://www.w3.org/1999/xlink" x="0px" y="0px" width="600px" height="600px"
	 viewBox="0 0 600 600" enable-background="new 0 0 600 600" xml:space="preserve">
<rect id="rect2369" x="0" y="0" fill="#FFFFFF" width="600" height="600"/>
<path id="path2324" fill="#FF0000" d="M137.151,488.845c-9.088,0.544-13.91,4.042-16.58,9.026h22.743
	c-0.6-3.108-0.985-6.171-1.129-9.026C140.387,488.761,138.694,488.753,137.151,488.845z"/>
<path id="path2322" fill="#FF0000" d="M139.755,475.391c-6.47,0.392-11.145,2.563-14.844,5.729l17.274,4.516
	c0.062-4.662,0.796-8.419,2.344-10.156C142.851,475.37,141.238,475.301,139.755,475.391z"/>
<path id="path2246" sodipodi:nodetypes="ccc" fill="#FFFFFF" stroke="#000000" d="M273.152,80.667l3.757,14.158l4.045-14.158"/>
<path id="path2266" sodipodi:nodetypes="ccssssc" fill="#FF0000" stroke="#000000" d="M319.239,112.634l3.017-8.947
	c-6.794-4.545-24.715-3.039-38.316-3.145c-60.9-0.477-44.734-15.799-54.026-15.799c-7.336,0-4.13,26.721,25.16,26.721
	c21.62,0,30.181-3.511,49.15-3.511C314.384,107.953,314.878,110.294,319.239,112.634z"/>
<path id="path2246_1_" sodipodi:nodetypes="ccc" fill="#FFFFFF" stroke="#000000" d="M284.421,80.667l3.757,14.158l4.047-14.158"/>
<path id="path2252" sodipodi:nodetypes="ccc" fill="#FFFFFF" stroke="#000000" d="M277.486,118.519l0.289-13.58l6.646,13.58"/>
<path id="path2252_1_" sodipodi:nodetypes="ccc" fill="#FFFFFF" stroke="#000000" d="M288.467,118.519l0.288-13.58l6.646,13.58"/>
<path id="path2294" fill="#FF0000" d="M118.501,187.616c0.109-12.831-3.265-18.385-7.159-25.339
	c11.585,4.851,16.952,15.478,17.798,24.548"/>
<path id="path1352" fill="#FF0000" d="M99.068,223.236c-5.604-5.562-12.89-7.767-20.66-9c5.171-4.771,10.933-8.837,21.479-7.157"/>
<path id="path2315" fill="#FF0000" d="M99.068,223.236c-14.959,1.513-16.294,8.784-17.387,16.16
	c3.784-2.497,11.048-7.752,17.577-9.102"/>
<path id="path2354" fill="#FF0000" d="M309.286,517.057c-6.821,0.408-13.236,2.734-18.056,8.247
	c7.089,2.771,14.724,4.184,22.83,5.382c0.356-3.889,1.296-7.143,2.776-9.288c0.69-1,1.384-2.521,2.519-3.733
	C315.997,517.125,312.593,516.86,309.286,517.057z"/>
<path id="path2365" fill="#FF0000" d="M313.973,532.159c-9.86,2.231-17.635,6.376-19.271,16.146l20.312-4.688
	C314.108,539.683,313.793,535.74,313.973,532.159z"/>
<path id="path2363" fill="#FF0000" d="M315.536,545.963c-7.865,7.158-11.397,15.062-11.979,23.438l16.49-13.715
	C318.059,552.712,316.536,549.406,315.536,545.963z"/>
<path id="path2361" fill="#FF0000" d="M323.348,559.852c-6.685,5.993-6.621,12.368,0.348,19.011
	c3.336-6.64,6.109-10.365,8.854-13.455C328.925,564.229,325.844,562.343,323.348,559.852z"/>
<path id="path2359" fill="#FF0000" d="M351.821,564.8c-5.75,1.761-10.795,2.244-15.104,1.647
	c2.188,6.481,4.811,13.041,15.625,16.754c-1.402-6.987-1.029-12.748-0.434-18.401C351.88,564.809,351.848,564.791,351.821,564.8z"/>
<path id="path2313" sodipodi:nodetypes="cssssssssssssssssssssssssssssssssssccccccccsssssssssssssssssssssssssssssssssssccscscsssscsssscssssssssssssssssssssssssssssssssssssssssscccssssssssssssssssssssssssssssssssssssssssssssssssssssssssssss" d="
	M316.86,521.358c-7.797,11.289-1.658,55.039,35.384,43.341c2.538-0.802,3.96-2.3,6.404-2.911c3.026-0.757,4.591-2.021,8.149-2.909
	c2.742-0.688,10.849,0.288,13.392-1.746c3.197-2.56,9.479-5.863,13.973-6.986c4.158-1.039,5.422-4.84,8.151-7.568
	c1.346-1.347,4.039-3.476,6.402-4.657c2.698-1.35,2.586-4.505,4.075-6.985c1.008-1.681,5.793-6.347,6.404-7.568
	c1.26-2.52-0.534-3.379-2.329-7.566c-1.681-3.922-3.032-7.472-4.075-11.646c-0.857-3.436-2.01-5.709-2.911-9.313
	c-0.947-3.797-2.094-6.955-5.238-9.315c-3.482-2.612-4.071-4.062-5.239-8.731c-0.812-3.236-4.075-6.038-4.075-8.732
	c0-3.497-0.566-5.789-1.747-8.15c-1.31-2.617-3.37-6.844-4.075-9.313c-0.233-0.825-0.471-1.651-0.706-2.479
	c0,0,2.309-58.274,0-77.762c-2.021-17.066-2.938-21.997,4.166-2.159c3.765-0.14,6.047-2.906,5.374-10.934
	c2.437,1.124,2.603,3.948,3.15,6.485c2.598-2.736,4.478-5.213,4.478-10.978c0-44.965-34.812-12.489-34.812-130.307
	c0-2.123,1.147-3.354,3.019-3.354c2.32,0,3.021,0.486,3.021-2.013c0-0.561-0.187-5.32,0-5.367c1.443-0.359,2.601-0.377,4.023,0.336
	c1.147,0.573,2.367,2.608,3.021,0c0.291-1.166,1.028-2.565,0.67-4.359c-0.354-1.759-0.67-3.505-0.67-5.031
	c0-2.729,2.001-2.349,4.358-2.349c1.968,0,3.477,0.532,5.367,1.007c0.747,0.187,5.281,1.592,3.354-0.335
	c-1.045-1.046-3.142-2.828-3.354-3.69c-0.379-1.513-1.318-2.641-2.013-4.024c-0.778-1.558-1.007-2.083-1.007-4.359
	c0-2.457-0.858-2.536-2.35-4.025c-0.569-0.569-2.521-4.655,0-4.023c2.4,0.601,1.44,2.229,3.021,3.02
	c0.44,0.222,3.783,1.584,4.696,0.671c0.636-0.636,2.349-1.525,2.349-3.02c0-1.745,0.527-4.901-0.336-6.373
	c-0.304-0.519-0.665-1.006-0.91-1.553c-0.652-1.454-1.537-1.817-2.553-3.512c-0.526-0.877-3.214-3.487-2.234-4.468
	c1.313-1.312,2.573-1.935,3.511-2.872c0.875-0.875,1.915-2.104,1.915-3.511c0-1.933-1.26-2.803-1.596-4.148
	c-0.493-1.973,0-3.919,0-6.062c0-1.702,0-3.404,0-5.105c0-2.039,1.596-2.547,1.596-4.147c0-2.28-0.13-3.632,0.318-5.426
	c0.312-1.243,0.787-3.39,1.596-4.469c1.056-1.403,1.277-2.393,1.277-4.468c0-1.312-0.187-3.562-0.639-4.468
	c-0.562-1.124-2.105-1.92-1.915-2.872c0.295-1.474,1.059-3.107,0.639-4.787c-0.276-1.104-0.116-3.161-0.639-4.468
	c-0.481-1.204-0.575-3.129-1.598-4.148c-1.301-1.302-2.545-1.112-4.146-1.915c-1.416-0.708-0.908-1.335-0.908-3.522
	c0-1.384,0.47-3.396,2.49-3.073c17.784,2.836,42.791-40.418-15.057-34.035c-1.279-1.61-2.91-4.22-4.79-6.098
	c-2.677-2.677-3.073-2.665-4.791-6.1c-1.185-2.366-1.467-2.219-2.612-3.921c-10.146-15.04-28.646-5.451-43.304-1.052
	c-13.489,4.049-30.6,7.447-55.652,7.447c0,0,0,4.815,0,9.313c0,4.939,4.054,5.606,4.141,10.006c0.086,4.397-3.796,4.141-3.796,7.59
	c0,3.124,3.187,4.83,5.176,4.83c8.623,0,28.98,0,28.98,0s14.489,8.186,14.489,18.285c0,9.762,4.035,13.801-42.437,13.801
	c0,0-4.261,7.936,11.385,7.936c17.667,0,20.014,3.104,24.842,7.245c-35.005,15.617-56.16,37.564-56.58,68.992
	c19.901-4.224,27.379,4.266,15.039,4.82c-2.582,0.115-5.457-0.142-7.83,0.451c-1.547,0.388-3.594,0.614-4.915,0.614
	c-1.858,0-2.291,1.844-4.302,1.844c-1.552,0-3.697,1.539-4.914,1.844c-1.812,0.453-3.575,0.203-5.225,0.613
	c-1.339,0.335-2.91,1.112-4.605,1.536c-1.645,0.411-3.594,1.205-4.916,1.536c-1.961,0.49-2.847,1.229-4.915,1.229
	c-0.193,0-2.836,1.879-3.379,2.149c-2.077,1.039-4.793,3.231-7.065,3.688c-1.354,0.271-2.029,1.229-3.994,1.229
	c-1.999,0-4.149,0-6.144,0c-1.951,0-4.104,1.786-5.225,2.457c-1.922,1.153-4.86,1.699-6.759,2.458
	c-2.762,1.104-5.606,2.093-8.294,2.765c-1.706,0.428-2.107,0.923-4.301,0.923c-2.312,0-4.879-0.239-7.066,0.308
	c-2.46,0.614-5.815,0.614-8.294,0.614c-1.945,0-3.892,0-5.837,0c-2.189,0-4.509,0.308-6.759,0.308c-2.445,0-3.521-0.686-5.224-1.536
	c-1.366-0.684-2.391-1.408-3.38-2.149c-1.372-1.028-1.913-1.606-3.07-2.766c-0.989-0.989-2.014-1.761-2.767-2.765
	c-1.466-1.954,1.226-3.072,2.15-3.072c1.299,0,2.598,3.044,3.072,3.994c0.95,1.901,2.645,2.367,3.992,3.379
	c1.905,1.429,5.133,1.536,7.986,1.536c3.771,0,3.522-0.328,2.15-3.072c-1.125-2.251-1.931-3.675-3.993-5.223
	c-1.075-0.807-1.638-3.481-2.766-4.607c-1.447-1.447-2.418-2.726-3.688-3.993c-1.284-1.283-2.149-2.498-2.149-4.302
	c0-0.969-1.061-2.427-1.535-3.379c-0.341-0.679-0.4-0.801-0.614-1.229l-15.857-15.784l-10.637,0.791l-5.521,2.479l-6.751,7.773
	l-6.342,9.205l-0.816,16.158l0.19,7.06c3.242-0.67,6.306-0.377,8.672,1.692c1.348,1.178,3.208,3.271,3.935,4.72
	c1.028,2.059,2.933,0.899,3.539,3.933c0.468,2.341,1.793,2.107,3.933,1.573c1.926-0.48,3.125,2.151,4.325,2.753
	c1.604,0.801,1.573,2.312,1.573,4.325c0,2.447-0.494,3.809,1.571,4.326c1.115,0.276,2.513,1.845,3.539,2.357
	c1.553,0.775,2.816,1.604,4.326,2.359c3.062,1.531,2.95,3.098,5.112,4.719c1.907,1.432,3.68,3.287,4.719,4.326
	c1.688,1.687,4.336,2.466,6.292,3.934c1.284,0.963,4.335,0.394,5.898,0.394c2.056,0,4.479,0.394,6.686,0.394
	c2.309,0,4.275,0.396,6.688,0.396c2.792,0,3.801,0.295,5.505,1.572c2.407,1.807,3.804,2.752,7.079,2.752
	c1.176,0,1.631-3.354,2.357-4.324c2.272-3.03,7.741,1.479,9.438,2.753c1.379,1.033,4.432,1.079,5.897,0.786
	c2.247-0.449,2.281-1.495,3.935-3.146c1.686-1.686,2.979-0.223,4.324,0.787c1.434,1.074,2.601,2.54,3.934,3.539
	c2.075,1.558,3.149-1.185,3.539-1.573c1.63-1.629-0.507-2.753,3.146-2.753c3.031,0,4.335-1.17,6.687,1.182
	c1.215,1.215,2.352,3.045,4.326,3.539c1.905,0.478,1.854-3.708,3.538-4.721c1.352-0.81,4.531-0.051,5.897-0.393
	c2.051-0.514,3.394,3.146,5.506,3.146c1.603,0,1.621-2.801,2.753-3.933c0.813-0.812,3.766-0.523,4.271-0.394
	c1.528,0.396,3.368,2.546,3.368,3.741c0,10.618,56.813,76.834,56.508,93.181c-0.018,0.819-0.647,1.514-0.973,2.271
	c-1.49,3.484-2.445,5.928-4.141,9.313c-1.187,2.372-0.518,6.637-0.518,9.315c0,2.587,0,5.175,0,7.763
	c0,2.963-0.161,4.979-1.035,6.729c-1.007,2.015-1.035,4.423-1.035,7.244c0,2.87-0.519,4.869-0.519,7.245
	c0,2.994-3.106,2.793,1.554,4.656c2.585,1.034,2.069,4.91,2.069,7.764c0,2.896-1.329,4.066,0,6.729
	c1.722,3.441,6.21-2.763,6.21,3.622c0,3.421-2.069,3.325-2.069,6.729c0,2.975,1.959,5.472,3.104,7.764
	c0.428,0.854,2.498-6.03,2.588-6.21c2.059-4.113,3.622-0.438,3.622,2.588c0,3.021-0.793,4.624,0.52,7.245
	c1.265,2.528,2.837,3.354,5.175,5.69c1.204,1.203,2.629,5.538,3.105,6.729c1.854,4.636,3.621,1.592,3.621-2.07
	c0-1.973,4.17,1.15,4.656,3.104c0.438,1.744-1.216,4.474-0.797,6.146c0.613,2.455,3.872,4.198,6.49,4.723
	c3.956,0.792-0.417-5.073,4.14-0.519c1.194,1.194,2.334,4.668,3.105,6.21c0.595,1.188,4.062,1.917,5.175,4.142
	c0.976,1.95,0.983,4.089,2.587,5.691c2.437,2.435,5.442,2.854,7.763,5.175c0.244,0.244,0.647,2.128,0.973,2.675
	c1.146,1.938,0.798,3.796,1.833,5.864c1.049,2.098,0.411,4.347,0.73,6.6c0.366,2.56,0.62,4.26-0.365,6.23
	c-1.14,2.277,0.271,4.671-2.198,2.199c-1.266-1.264-1.849-4.089-2.199-5.498c-0.494-1.979-1.88-4.126-2.566-5.499
	c-1.337-2.674-4.239-3.666-7.695-3.666c-4.191,0-3.771-0.603-7.698-2.565c-2.32-1.159-5.091-1.263-7.331-0.365
	c-2.469,0.985-5.537,1.935-8.064,2.564c-2.105,0.527-3.305,1.561-5.863,2.199c-2.96,0.739-3.561,0.354-5.865,2.198
	C318.528,518.263,317.697,520.145,316.86,521.358z"/>
<path id="path2309" fill="#FF0000" d="M99.886,207.076c-4.336-6.699-10.111-12.066-21.479-12.273
	c8.248-8.21,17.963-3.21,27.819,3.068"/>
<path id="path2305" fill="#FF0000" d="M106.227,197.871c-3.36-9.169-9.797-16.287-16.364-23.319
	c8.798,0.03,15.834,0.196,23.115,15.546"/>
<path id="path2227" sodipodi:nodetypes="ccc" fill="none" stroke="#FF0000" d="M349.053,52.067
	c-13.577,1.622-19.83,8.477-27.258,14.49c13.861-2.608,26.719-3.456,36.915,0.345"/>
<path id="path2229" sodipodi:nodetypes="csc" fill="none" stroke="#FFFFFF" stroke-width="1.5" d="M303.591,130.529
	c58.741,6.521,70.527-14.868,70.527-35.104c0-18.771,12.765-27.445,12.765-27.445"/>
<path id="path2231" sodipodi:nodetypes="ccc" d="M365.061,36.309l18.442,24.12C405.672,58.899,383.094,20.043,365.061,36.309z"/>
<path id="path2242" d="M118.922,69.054c0.925,0.269,2.183,0.182,2.864,0.607c1.977,1.229,3.521,3.113,4.603,5.814
	c1.438,3.602,0.521,3.62,0.521,8.072c0,2.312-1.72,6.891-0.521,9.288c1.313,2.631,2.863,3.423,2.863,7.466
	c0,2.371-0.933,7.043,1.128,8.073c1.609,0.804,4.104,4.087,4.603,6.076c0.369,1.477,2.342,3.098,4.08,4.945
	c2.272,2.422,8.227,1.566,8.507,3.562c0.437,3.097-0.402,6.368,1.647,8.42c1.272,1.271,3.398,3.783,3.993,6.163
	c0.511,2.037,0.403,4.839,2.17,6.163c2.355,1.767,4.014,3.523,3.562,4.688c-1.391,3.57,2.604,7.125,4.858,5.382
	c1.771-1.365,2.109,5.435,5.035,6.164c3.619,0.904,5.227,1.42,6.771,4.516c1.582,3.164,2.693,3.562,5.643,5.032
	c3.997,1.999,3.507,2.676,5.558,6.771c1.888,3.772,4.055,1.479,7.292,3.906c1.638,1.229,3.947,4.513,5.032,6.684
	c2.388,4.771,5.7-0.464,7.899,1.736c0.791,0.79,3.393,5.145,5.035,5.556c1.661,0.415,7.049,0.11,7.812,1.128
	c0.66,0.881,4.516,5.021,4.516,6.163c0,2.931,0.966,6.326,3.386,3.906c0.353-0.354,3.452-4.88,5.034-3.298
	c2.716,2.716,1.497,2.775,5.556,2.775c3.11,0,5.188,0.021,7.899-0.521c0.935-0.188,1.844-0.421,2.775-0.607
	c2.896-17.552,6.755-34.964,18.49-51.042c-7.656-9.494-19.65-16.312-32.292-21.439c-22.938-9.305-49.254-20.085-56.684-23.784
	c-15.361-7.648-14.584-23.991-14.584-36.024c0-7.67-1.187-21.923-4.603-34.201c-4.649,1.496-9.553,2.895-13.455,4.603
	c-5.868,2.566-10.869,5.429-14.931,8.507c-4.062,3.078-7.171,6.442-9.288,10.069c-1.059,1.812-1.797,3.685-2.344,5.643
	C119.082,66.994,119.064,68.038,118.922,69.054z"/>
<path id="path2233" fill="#FF0000" d="M118.922,69.054c0.145-1.016,0.16-2.06,0.436-3.038c0.547-1.958,1.285-3.829,2.344-5.643
	c2.117-3.627,5.229-6.991,9.288-10.069c4.062-3.078,9.062-5.938,14.931-8.507c3.902-1.708,8.806-3.104,13.455-4.603
	c-2.58-9.271-6.228-17.587-12.5-20.397c2.885,8.877,2.905,18.479-0.261,24.563c-3.81-6.98-8.574-17.854-19.01-19.271
	c4.184,6.424,8.606,17.271,9.549,23.871c-6.023-10.791-13.701-12.827-21.27-9.114c8.91,3.479,11.659,8.459,13.194,14.757
	c-3.027-3.808-16.229-5.908-23.004-0.521c11.539-0.567,13.319,3.672,16.667,6.511c-7.314,1.039-13.127,5.997-16.319,10.242
	C106.422,67.838,113.815,67.567,118.922,69.054z"/>
<path id="path2235" sodipodi:nodetypes="cc" fill="none" stroke="#FFFFFF" stroke-width="1.5" d="M146.148,51.981
	c2.005,20.385,17.629,52.005-2.329,59.384"/>
<path id="path2244" sodipodi:nodetypes="cc" fill="none" stroke="#FFFFFF" stroke-width="2.5" stroke-linecap="round" d="
	M335.481,70.809c3.764,12.795,15.027,8.681,16.271,2.747"/>
<path id="path2258" sodipodi:nodetypes="cc" fill="none" stroke="#FF0000" d="M384.932,84.323c0.696-2.388,3.109-3.633,6.229-4.405"
	/>
<path id="path2260" sodipodi:nodetypes="cc" fill="none" stroke="#FF0000" d="M381.893,89.186c5.425,0.768,9.027-1.016,12.461-3.04"
	/>
<path id="path2262" sodipodi:nodetypes="cc" fill="none" stroke="#FFFFFF" stroke-width="1.5" d="M308.039,248.967
	c-5.729,20.084-25.522,27.284-53.489,26.438"/>
<path id="path2264" sodipodi:ry="0.93227142" sodipodi:cx="154.53333" sodipodi:cy="26.449511" sodipodi:type="arc" sodipodi:rx="1.8955196" fill="#FFFFFF" d="
	M405.635,73.331c-1.004,1.019-3.485,0.181-5.548-1.872c-2.06-2.055-2.915-4.543-1.911-5.562c0.006-0.004,0.011-0.009,0.015-0.013
	c1.004-1.021,3.486-0.181,5.548,1.872c2.06,2.053,2.916,4.543,1.911,5.562C405.645,73.323,405.641,73.327,405.635,73.331z"/>
<path id="path2319" sodipodi:nodetypes="cscsssssssssssssssssssscssssss" d="M160.121,523.865
	c-16.92-2.421-22.677-47.721-13.896-49.379c8.779-1.658,15.014,6.496,23.604,6.736c7.715,5.019,19.248-5.329,24.309,3.701
	c2.419,4.315,13.45,7.306,7.115-0.232c-5.925-7.05-7.793-17.07-11.058-25.448c-2.683-6.887,4.665-15.738-5.599-19.413
	c-6.766-2.421,5.911-11.251-0.543-17.267c-4.228-3.937-7.478-16.726,0.938-23.25c7.898-6.125-7.936-10.004,1.988-14.828
	c4.146-2.017,8.693-12.976,5.729-13.887c-10.119-3.112,8.127-9.181,4.912-16.157c-2.507-5.438,7.664-6.904,9.902-13.475
	c2.438-7.156,12.33-12.447,20.29-14.832c10.2-3.058,21.324-4.316,31.906-3.239c10.617,1.081,23.135-0.817,29.404,10.711
	c4.545,8.355,9.831,16.254,14.128,24.798c3.336,6.634,7.275,20.795-4.974,18.912c-8.238-1.267-17.326,2.93-24.811,6.566
	c-7.466,3.627-8.989,8.031-16.284,15.59c-9.205,9.536-13.812,17.593-14.912,27.036c-1.591,13.628-1.249,26.995-2.592,40.375
	c-1.08,10.753,8.447,17.894,5.934,29.111c-1.306,5.823,1.88,11.721,4.45,17.062c0.084,0.433,0.167,0.866,0.251,1.299
	c0.262,1.36-2.155,2.003-3.261,2.444c-1.562,0.625-3.753,1.604-5.436,2.443c-0.182,0.092-0.182,0.362-0.271,0.544
	c-0.61,1.222-4.227,1.599-5.162,2.445C227.522,530.079,187.464,527.78,160.121,523.865z"/>
<path id="path2332" fill="#FF0000" d="M143.487,499.781c-15.29,2.157-17.101,9.779-18.923,16.146
	c6.736-3.729,13.991-6.167,21.875-7.031c-1.132-2.905-2-5.986-2.691-9.115C143.654,499.795,143.58,499.77,143.487,499.781z"/>
<path id="path2334" fill="#FF0000" d="M146.699,509.939c-9.261,3.8-13.491,9.415-9.201,18.143
	c3.278-4.521,6.358-9.105,12.761-11.545c-1.291-1.941-2.394-4.204-3.386-6.598C146.826,509.956,146.746,509.92,146.699,509.939z"/>
<path id="path2342" fill="#FF0000" d="M151.995,518.793c-4.47,5.364-7.667,10.843-0.521,17.708
	c1.353-5.611,4.972-9.797,10.067-12.413c-0.485-0.067-0.909-0.191-1.389-0.262C157.074,523.387,154.314,521.554,151.995,518.793z"/>
<path id="path2347" fill="#FF0000" d="M280.901,338.064c-1.775,0.087-3.138,0.597-3.82,1.129c-0.044,0.037-0.135,0.136-0.173,0.174
	c-0.036,0.038-0.145,0.137-0.174,0.173c-0.026,0.039-0.066,0.137-0.087,0.176c-0.02,0.039-0.076,0.135-0.087,0.174
	c-0.01,0.039,0.002,0.135,0,0.174c0.001,0.013-0.001,0.073,0,0.087c0.002,0.013-0.002,0.073,0,0.087
	c0.003,0.015-0.004,0.073,0,0.086c0.004,0.016,0.082,0.074,0.087,0.087c0.006,0.016-0.007,0.073,0,0.087
	c0.007,0.016,0.079,0.073,0.087,0.089c1.626,2.729,14.346,6.304,25.174,15.362c-2.442-4.602-5.076-9.081-7.726-13.541
	c-0.042-0.024-0.048-0.062-0.089-0.087C288.626,338.91,284.022,337.909,280.901,338.064z"/>
<g enable-background="new    ">
	<path d="M190.787,300.407v4.328c-5.773,0.937-10.92,4.019-15.443,9.242c-3.275,3.901-8.15,13.064-14.624,27.492l-54.634,121.201
		h-3.86l-54.4-126.114c-6.551-15.209-10.938-24.138-13.161-26.79c-2.223-2.651-6.416-4.329-12.577-5.031v-4.328h76.043v4.328h-2.574
		c-6.864,0-11.543,0.859-14.039,2.574c-1.795,1.17-2.691,2.886-2.691,5.147c0,1.403,0.311,3.062,0.936,4.972
		c0.623,1.912,2.729,7.04,6.317,15.385l33.81,78.967l31.353-70.311c3.744-8.5,6.043-14.193,6.902-17.08
		c0.857-2.885,1.287-5.341,1.287-7.37c0-2.34-0.625-4.405-1.872-6.2c-1.249-1.793-3.082-3.159-5.499-4.095
		c-3.354-1.325-7.8-1.989-13.336-1.989v-4.328H190.787z"/>
</g>
<g enable-background="new    ">
	<path d="M473.135,386.745V431.2c0,8.581,0.525,13.98,1.578,16.203s2.905,3.998,5.558,5.323c2.65,1.327,7.604,1.989,14.857,1.989
		v4.328h-81.19v-4.328c7.33,0,12.303-0.683,14.916-2.048c2.612-1.363,4.445-3.139,5.499-5.323c1.053-2.183,1.579-7.563,1.579-16.145
		V328.25c0-8.578-0.526-13.979-1.579-16.202c-1.054-2.223-2.907-3.996-5.558-5.323c-2.652-1.325-7.604-1.989-14.857-1.989v-4.328
		h73.703c19.186,0,33.225,1.327,42.116,3.978c8.892,2.652,16.145,7.546,21.76,14.682c5.615,7.137,8.423,15.501,8.423,25.095
		c0,11.698-4.211,21.37-12.635,29.013c-5.381,4.837-12.908,8.464-22.578,10.88l38.139,53.698c4.99,6.942,8.539,11.271,10.646,12.985
		c3.196,2.419,6.902,3.744,11.114,3.979v4.328H534.67l-51.124-72.299H473.135z M473.135,308.948v69.491h6.668
		c10.84,0,18.952-0.994,24.334-2.983c5.381-1.988,9.611-5.575,12.693-10.763c3.08-5.186,4.621-11.951,4.621-20.298
		c0-12.088-2.828-21.018-8.482-26.79c-5.656-5.771-14.761-8.657-27.316-8.657H473.135z"/>
</g>
</svg>
