<?xml version="1.0" encoding="utf-8"?>
<!-- Generator: Adobe Illustrator 14.0.0, SVG Export Plug-In . SVG Version: 6.00 Build 43363)  -->
<!DOCTYPE svg PUBLIC "-//W3C//DTD SVG 1.1//EN" "http://www.w3.org/Graphics/SVG/1.1/DTD/svg11.dtd">
<svg version="1.1"
	 id="BL" xmlns:rdf="http://www.w3.org/1999/02/22-rdf-syntax-ns#" xmlns:sodipodi="http://inkscape.sourceforge.net/DTD/sodipodi-0.dtd" sodipodi:docbase="/home/jynus/documentos/imagenes/svg" xmlns:cc="http://web.resource.org/cc/" sodipodi:docname="Flag of Canton of Basel Land.svg" sodipodi:version="0.32" xmlns:svg="http://www.w3.org/2000/svg" inkscape:version="0.42" xmlns:inkscape="http://www.inkscape.org/namespaces/inkscape" xmlns:dc="http://purl.org/dc/elements/1.1/"
	 xmlns="http://www.w3.org/2000/svg" xmlns:xlink="http://www.w3.org/1999/xlink" x="0px" y="0px" width="600px" height="600px"
	 viewBox="0 0 600 600" enable-background="new 0 0 600 600" xml:space="preserve">
<rect id="rect9685" x="0" y="0" fill="#FFFFFF" width="600" height="600"/>
<path id="path7495" sodipodi:nodetypes="cccccccccccccccccsssccccc" fill="#FF0000" stroke="#000000" stroke-width="2" d="
	M137.362,563.226c0,0,44.184-275.355,56.242-382.882c-54.079-12.709-14.872-63.003,10.814-42.182
	c7.298-12.01,5.949-11.357,14.062-21.633c-28.662-30.824,8.651-63.272,33.527-34.61c7.571-3.785,7.571-5.678,18.389-10.815
	c-11.897-38.667,44.074-48.4,46.508-9.733c18.657-2.435,10.005-2.163,28.121,0c7.301-49.753,61.703-30.323,44.346,8.651
	c13.79,6.489,15.684,6.76,23.795,12.979c31.906-30.556,64.354,17.035,25.958,37.854c8.111,15.412,2.499,15.781,6.489,23.795
	c45.156,4.057,31.907,52.729-7.571,44.346c-5.948,10.005-3.785,8.383-11.896,17.306c27.58,31.637-14.871,64.354-37.855,27.04
	c-47.859,8.111-65.165-19.469-80.037-33.529l20.551-22.714c59.486,42.993,69.536-18.184,65.978-25.958
	c-26.499-57.865-78.192-27.243-94.099,6.489c-10.188,21.604-15.144,32.989-12.979,89.771
	C291.6,349.68,322.315,566.47,322.315,566.47c-27.761-34.251-50.113-65.256-60.569-112.485l-31.365,116.812l-31.365-118.976
	C191.441,496.528,169.809,531.498,137.362,563.226z"/>
<path id="path8223" sodipodi:nodetypes="cssssscsssssc" stroke="#000000" stroke-width="2" d="M230.379,571.878
	c0,0,8.029-274.392,11.897-350.435c1.771-34.846,0.278-64.017,30.284-100.588c27.845-33.938,89.748-34.713,120.056-4.326
	c13.815,13.852,21.757,21.387,21.632,46.509c-0.062,12.958-14.125,30.408-34.609,32.447c-20.664,2.057-50.835-18.388-50.835-18.388
	s27.306,24.562,49.753,24.877c23.115,0.324,41.001-16.264,43.264-34.611c3.354-27.188-10.693-45.272-24.876-57.323
	c-38.278-32.521-102.28-26.552-129.791,5.407c-26.789,31.121-31.233,68.585-33.529,105.996
	C226.323,340.39,230.379,571.878,230.379,571.878z"/>
<rect id="rect8951" x="158.993" y="211.547" fill="#FF0000" stroke="#000000" stroke-width="2" width="158.994" height="20.55"/>
<rect id="rect9679" x="157.087" y="268.927" fill="#FF0000" stroke="#000000" stroke-width="2" width="158.993" height="20.55"/>
<rect id="rect9683" x="141.688" y="232.26" fill="#FF0000" stroke="#000000" stroke-width="2" width="191.439" height="36.774"/>
</svg>
