<?xml version="1.0" encoding="utf-8"?>
<!-- Generator: Adobe Illustrator 14.0.0, SVG Export Plug-In . SVG Version: 6.00 Build 43363)  -->
<!DOCTYPE svg PUBLIC "-//W3C//DTD SVG 1.1//EN" "http://www.w3.org/Graphics/SVG/1.1/DTD/svg11.dtd">
<svg version="1.1"
	 id="GE" xmlns:rdf="http://www.w3.org/1999/02/22-rdf-syntax-ns#" xmlns:sodipodi="http://inkscape.sourceforge.net/DTD/sodipodi-0.dtd" sodipodi:docbase="C:\Documents and Settings\David Nelson\Archives\Svg" xmlns:cc="http://web.resource.org/cc/" sodipodi:docname="Flag_of_Canton_of_Geneva.svg" sodipodi:version="0.32" xmlns:svg="http://www.w3.org/2000/svg" inkscape:version="0.43" xmlns:inkscape="http://www.inkscape.org/namespaces/inkscape" xmlns:dc="http://purl.org/dc/elements/1.1/"
	 xmlns="http://www.w3.org/2000/svg" xmlns:xlink="http://www.w3.org/1999/xlink" x="0px" y="0px" width="600px" height="600px"
	 viewBox="0 0 600 600" enable-background="new 0 0 600 600" xml:space="preserve">
<rect id="rect2467" x="0" y="0" fill="#FFE000" width="600" height="600"/>
<path id="path2251" fill="#FF0000" stroke="#000000" stroke-width="2.3438" d="M205.219,29.59
	c-22.322,0.652-40.062,11.29-40.062,24.315c0,13.446,18.929,24.391,42.261,24.391c23.333,0,42.262-10.943,42.262-24.391
	c0-13.446-18.929-24.315-42.262-24.315C206.687,29.59,205.939,29.569,205.219,29.59z M204.999,37.061c0.788-0.033,1.614,0,2.417,0
	c17.126,0,31.056,7.513,31.056,16.846c0,9.332-13.93,16.92-31.056,16.92c-17.125,0-31.055-7.588-31.055-16.92
	C176.361,45.011,188.987,37.725,204.999,37.061z"/>
<path id="path2225" sodipodi:ry="2.2521832" sodipodi:cx="88.497551" sodipodi:cy="12.499249" sodipodi:type="arc" sodipodi:rx="2.2521832" fill="#FF0000" stroke="#000000" d="
	M201.752,29.891c0.004,2.915-2.356,5.28-5.271,5.284c-2.915,0.003-5.281-2.358-5.284-5.273c0-0.004,0-0.008,0-0.011
	c-0.003-2.915,2.358-5.281,5.272-5.284c2.915-0.003,5.28,2.358,5.283,5.273C201.752,29.883,201.752,29.887,201.752,29.891z"/>
<path id="path2225_1_" sodipodi:ry="2.2521832" sodipodi:cx="88.497551" sodipodi:cy="12.499249" sodipodi:type="arc" sodipodi:rx="2.2521832" fill="#FF0000" stroke="#000000" d="
	M213.08,29.891c-0.003,2.915,2.358,5.28,5.273,5.284c2.915,0.003,5.28-2.358,5.284-5.273c0-0.004,0-0.008,0-0.011
	c0.003-2.915-2.358-5.281-5.273-5.284s-5.281,2.358-5.284,5.273C213.08,29.883,213.08,29.887,213.08,29.891z"/>
<path id="path1350" sodipodi:ry="3.8419597" sodipodi:cx="88.497551" sodipodi:cy="6.2726245" sodipodi:type="arc" sodipodi:rx="3.8419597" fill="#FF0000" stroke="#000000" d="
	M216.421,14.701c0.006,4.973-4.021,9.01-8.994,9.015c-4.973,0.006-9.009-4.021-9.015-8.993c0-0.008,0-0.015,0-0.021
	c-0.006-4.974,4.021-9.011,8.994-9.016c4.973-0.006,9.009,4.021,9.015,8.993C216.421,14.688,216.421,14.695,216.421,14.701z"/>
<path id="path2225_2_" sodipodi:ry="2.2521832" sodipodi:cx="88.497551" sodipodi:cy="12.499249" sodipodi:type="arc" sodipodi:rx="2.2521832" fill="#FF0000" stroke="#000000" d="
	M212.695,41.405c0.003,2.915-2.358,5.281-5.273,5.284s-5.28-2.357-5.283-5.272c0-0.004,0-0.007,0-0.012
	c-0.004-2.915,2.357-5.28,5.272-5.283s5.281,2.357,5.284,5.272C212.695,41.398,212.695,41.401,212.695,41.405z"/>
<path id="path2225_3_" sodipodi:ry="2.2521832" sodipodi:cx="88.497551" sodipodi:cy="12.499249" sodipodi:type="arc" sodipodi:rx="2.2521832" fill="#FF0000" stroke="#000000" d="
	M212.695,53.514c0.003,2.915-2.358,5.281-5.273,5.284s-5.28-2.358-5.283-5.273c0-0.004,0-0.007,0-0.011
	c-0.004-2.915,2.357-5.281,5.272-5.284s5.281,2.358,5.284,5.273C212.695,53.507,212.695,53.51,212.695,53.514z"/>
<path id="path2225_4_" sodipodi:ry="2.2521832" sodipodi:cx="88.497551" sodipodi:cy="12.499249" sodipodi:type="arc" sodipodi:rx="2.2521832" fill="#FF0000" stroke="#000000" d="
	M212.695,65.623c0.003,2.915-2.358,5.28-5.273,5.283c-2.915,0.004-5.28-2.357-5.283-5.272c0-0.004,0-0.007,0-0.011
	c-0.004-2.915,2.357-5.281,5.272-5.284s5.281,2.357,5.284,5.272C212.695,65.615,212.695,65.619,212.695,65.623z"/>
<path id="path2225_5_" sodipodi:ry="2.2521832" sodipodi:cx="88.497551" sodipodi:cy="12.499249" sodipodi:type="arc" sodipodi:rx="2.2521832" fill="#FF0000" stroke="#000000" d="
	M212.695,29.295c0.003,2.915-2.358,5.281-5.273,5.284s-5.28-2.358-5.283-5.273c0-0.004,0-0.007,0-0.011
	c-0.004-2.915,2.357-5.281,5.272-5.284s5.281,2.358,5.284,5.273C212.695,29.288,212.695,29.291,212.695,29.295z"/>
<path id="path2225_6_" sodipodi:ry="2.2521832" sodipodi:cx="88.497551" sodipodi:cy="12.499249" sodipodi:type="arc" sodipodi:rx="2.2521832" fill="#FF0000" stroke="#000000" d="
	M190.602,32.681c0.003,2.915-2.357,5.281-5.272,5.284c-2.916,0.003-5.281-2.358-5.284-5.273c0-0.004,0-0.007,0-0.011
	c-0.003-2.915,2.357-5.281,5.273-5.284c2.915-0.003,5.28,2.358,5.283,5.273C190.602,32.674,190.602,32.677,190.602,32.681z"/>
<path id="path2225_7_" sodipodi:ry="2.2521832" sodipodi:cx="88.497551" sodipodi:cy="12.499249" sodipodi:type="arc" sodipodi:rx="2.2521832" fill="#FF0000" stroke="#000000" d="
	M224.229,32.681c-0.003,2.915,2.357,5.281,5.272,5.284s5.281-2.358,5.284-5.273c0-0.004,0-0.007,0-0.011
	c0.003-2.915-2.357-5.281-5.272-5.284s-5.281,2.358-5.284,5.273C224.229,32.674,224.229,32.677,224.229,32.681z"/>
<path id="path2225_8_" sodipodi:ry="2.2521832" sodipodi:cx="88.497551" sodipodi:cy="12.499249" sodipodi:type="arc" sodipodi:rx="2.2521832" fill="#FF0000" stroke="#000000" d="
	M180.09,36.611c0.003,2.916-2.357,5.281-5.272,5.284s-5.281-2.356-5.284-5.272c0-0.003,0-0.008,0-0.012
	c-0.003-2.915,2.358-5.279,5.273-5.282s5.279,2.356,5.283,5.271C180.09,36.604,180.09,36.608,180.09,36.611z"/>
<path id="path2225_9_" sodipodi:ry="2.2521832" sodipodi:cx="88.497551" sodipodi:cy="12.499249" sodipodi:type="arc" sodipodi:rx="2.2521832" fill="#FF0000" stroke="#000000" d="
	M234.743,36.611c-0.003,2.916,2.358,5.281,5.273,5.284s5.28-2.356,5.283-5.272c0-0.003,0-0.008,0-0.012
	c0.004-2.915-2.357-5.279-5.272-5.282s-5.281,2.356-5.284,5.271C234.743,36.604,234.743,36.608,234.743,36.611z"/>
<path id="path2225_10_" sodipodi:ry="2.2521832" sodipodi:cx="88.497551" sodipodi:cy="12.499249" sodipodi:type="arc" sodipodi:rx="2.2521832" fill="#FF0000" stroke="#000000" d="
	M171.283,44.53c0.004,2.915-2.357,5.281-5.271,5.284c-2.916,0.003-5.281-2.357-5.284-5.272c0-0.004,0-0.007,0-0.012
	c-0.003-2.915,2.356-5.28,5.272-5.283c2.915-0.003,5.28,2.357,5.283,5.272C171.283,44.523,171.283,44.526,171.283,44.53z"/>
<path id="path2225_11_" sodipodi:ry="2.2521832" sodipodi:cx="88.497551" sodipodi:cy="12.499249" sodipodi:type="arc" sodipodi:rx="2.2521832" fill="#FF0000" stroke="#000000" d="
	M243.549,44.53c-0.003,2.915,2.358,5.281,5.273,5.284s5.281-2.357,5.284-5.272c0-0.004,0-0.007,0-0.012
	c0.003-2.915-2.358-5.28-5.273-5.283s-5.281,2.357-5.284,5.272C243.549,44.523,243.549,44.526,243.549,44.53z"/>
<path id="path2225_12_" sodipodi:ry="2.2521832" sodipodi:cx="88.497551" sodipodi:cy="12.499249" sodipodi:type="arc" sodipodi:rx="2.2521832" fill="#FF0000" stroke="#000000" d="
	M171.283,56.248c0.004,2.915-2.357,5.28-5.271,5.283c-2.916,0.004-5.281-2.357-5.284-5.272c0-0.004,0-0.007,0-0.011
	c-0.003-2.915,2.356-5.281,5.272-5.284c2.915-0.003,5.28,2.357,5.283,5.272C171.283,56.241,171.283,56.244,171.283,56.248z"/>
<path id="path2225_13_" sodipodi:ry="2.2521832" sodipodi:cx="88.497551" sodipodi:cy="12.499249" sodipodi:type="arc" sodipodi:rx="2.2521832" fill="#FF0000" stroke="#000000" d="
	M243.549,56.248c-0.003,2.915,2.358,5.28,5.273,5.283c2.915,0.004,5.281-2.357,5.284-5.272c0-0.004,0-0.007,0-0.011
	c0.003-2.915-2.358-5.281-5.273-5.284s-5.281,2.357-5.284,5.272C243.549,56.241,243.549,56.244,243.549,56.248z"/>
<path id="path2225_14_" sodipodi:ry="2.2521832" sodipodi:cx="88.497551" sodipodi:cy="12.499249" sodipodi:type="arc" sodipodi:rx="2.2521832" fill="#FF0000" stroke="#000000" d="
	M178.314,65.623c0.004,2.915-2.357,5.28-5.272,5.283c-2.915,0.004-5.281-2.357-5.284-5.272c0-0.004,0-0.007,0-0.011
	c-0.003-2.915,2.358-5.281,5.273-5.284s5.28,2.357,5.283,5.272C178.314,65.615,178.314,65.619,178.314,65.623z"/>
<path id="path2225_15_" sodipodi:ry="2.2521832" sodipodi:cx="88.497551" sodipodi:cy="12.499249" sodipodi:type="arc" sodipodi:rx="2.2521832" fill="#FF0000" stroke="#000000" d="
	M236.517,65.623c-0.003,2.915,2.357,5.28,5.272,5.283c2.915,0.004,5.281-2.357,5.284-5.272c0-0.004,0-0.007,0-0.011
	c0.003-2.915-2.358-5.281-5.273-5.284c-2.914-0.003-5.28,2.357-5.283,5.272C236.517,65.615,236.517,65.619,236.517,65.623z"/>
<path id="rect2280" fill="#FF0000" stroke="#000000" stroke-width="2.3437" d="M173.011,71.125h68.809
	c1.906,0,3.451,1.546,3.451,3.451l0,0c0,1.905-1.545,3.45-3.451,3.45h-68.809c-1.905,0-3.451-1.545-3.451-3.45l0,0
	C169.56,72.671,171.106,71.125,173.011,71.125z"/>
<path id="path2309" d="M76.245,34.79C35.38,54.131,51.827,90.934,64.746,126.709c-15.708-14.298-19.464-34.583-26.587-53.174
	c-16.488,13.453-16.537,29.753,31.86,92.725c-16.016-16.433-32.459-31.438-45.558-58.081c-25.238,5.795-12.015,37.516,23.364,84.229
	c-10.936-6.064-19.312-13.833-25.708-22.926c-6.992,7.723-4.204,26.837,29.224,40.796c1.468,0.612,2.463,1.536,2.638,2.197
	c0.002,0.01-0.001,0.062,0,0.073c0.001,0.01,0,0.062,0,0.073c0,0.01,0.001,0.062,0,0.072s0.002,0.063,0,0.073
	c-0.002,0.009,0.003,0.064,0,0.073c-0.008,0.017-0.063,0.057-0.073,0.073c-0.005,0.008,0.006,0.064,0,0.072
	c-0.013,0.016-0.059,0.06-0.073,0.073c-0.008,0.007-0.063,0.066-0.073,0.073c-0.009,0.006-0.062-0.007-0.072,0
	c-0.021,0.012-0.051,0.062-0.073,0.073c-0.035,0.016-0.106,0.059-0.146,0.072c-0.429,0.139-1.146,0.157-2.124,0
	c-18.87-3.032-23.742-9.229-30.614-15.233c-10.389-9.078-15.309,1.462-15.309,6.151c0,14.468,15.559,30.913,50.685,26.367
	c0,0,0.005,0.063,0,0.073c-0.276,0.569-2.899,5.127-14.941,5.127c-10.476,0-32.52-9.897-32.52,9.009
	c0,18.832,44.169,11.188,56.322,0c-21.16,22.862-55.225,15.687-55.225,50.171c0,11.427,24.62,34.38,60.938-9.447
	c-24.831,46.853-77.245,68.388-55.737,86.645c14.308,12.146,47.098-43.854,67.017-84.008c-2.154,50.36-65.039,98.808-65.039,124.951
	c0,20.36,21.981,27.507,33.18,13.987c17.199-20.765,42.794-65.233,50.609-116.819c1.508-9.952,3.055-15.08,4.175-16.554
	c0.013-0.015,0.062-0.06,0.073-0.072c0.013-0.014,0.062-0.062,0.073-0.073c0.012-0.012,0.062-0.062,0.073-0.073
	c0.011-0.01,0.062-0.063,0.072-0.073c0.012-0.008,0.063-0.065,0.073-0.072c0.011-0.007,0.063,0.005,0.073,0
	c0.011-0.004,0.062-0.07,0.073-0.073c0.01-0.003,0.062,0.002,0.072,0c0.011-0.001,0.064-0.001,0.073,0
	c0.01,0.001,0.064-0.002,0.073,0c0.009,0.003,0.064,0.069,0.073,0.073c0.009,0.005,0.064-0.006,0.072,0
	c0.018,0.013,0.059,0.057,0.073,0.072c0.023,0.026,0.051,0.114,0.073,0.146c0.008,0.011,0.066,0.061,0.073,0.073
	c0.007,0.012-0.007,0.06,0,0.072c0.007,0.014,0.065,0.06,0.072,0.073c0.75,1.789,0.563,8.005-1.465,16.479
	c-4.551,19.021-10.862,40.745-23.291,75.806c-9.52,26.855-21.387,45.483-21.387,57.057c0,5.237,1.521,8.185,3.662,9.301
	c3.821,1.913,9.658-1.723,12.598-7.688c12.754-25.895,35.412-91.968,41.089-131.982c1.744-12.296,3.125-18.024,3.955-19.188
	c0.024-0.032,0.052-0.123,0.073-0.146c0.008-0.008,0.066,0.006,0.073,0c0.015-0.012,0.06-0.066,0.073-0.073
	c0.007-0.001,0.065,0,0.072,0c0.008,0.001,0.067-0.002,0.073,0c0.006,0.004,0.067,0.066,0.073,0.073
	c0.017,0.022,0.058,0.114,0.073,0.146c0.617,1.48,0.27,9.139-1.466,19.188c-6.287,36.448-26.947,119.286-37.5,132.715
	c-3.292,4.189-5.824,14.062,5.421,14.062c27.888-0.001,43.729-28.923,53.833-163.623c0.128-1.714,0.448-2.89,0.879-3.589
	c0.055-0.084,0.163-0.224,0.22-0.293c0.029-0.033,0.117-0.117,0.146-0.146c0.016-0.016,0.06-0.062,0.073-0.073
	c0.061-0.05,0.159-0.11,0.22-0.146c0.031-0.017,0.116-0.061,0.146-0.072c0.031-0.013,0.115-0.065,0.146-0.073
	c0.031-0.007,0.115,0.004,0.146,0c0.016-0.001,0.058,0,0.073,0c0.03,0,0.114-0.004,0.146,0c0.078,0.013,0.217,0.043,0.293,0.073
	c0.017,0.007,0.06,0.064,0.073,0.072c0.03,0.017,0.117,0.055,0.146,0.073c0.06,0.04,0.164,0.096,0.221,0.146
	c0.181,0.174,0.367,0.458,0.513,0.731c0.396,0.779,0.626,1.937,0.513,3.296c-1.89,22.758-7.076,80.049-9.302,91.479
	c-3.22,16.547,14.9,27.594,16.699,12.158c3.078-26.402,4.028-57.127,4.028-107.006c0-9.055,7.658-8.583,8.13,0.439
	c0.42,8.054,0.729,71.259-3.662,88.256c-1.573,6.088-2.538,12.231,4.321,12.231c26.072,0,36.055-54.724,33.104-90.088
	c-0.437-5.242-0.116-8.713,0.513-9.961c0.105-0.189,0.244-0.368,0.366-0.438c0.008-0.004,0.066,0.003,0.073,0
	c0.008-0.002,0.065-0.072,0.073-0.073s0.064,0,0.072,0c0.017,0.002,0.059,0.069,0.073,0.073c0.008,0.002,0.065-0.003,0.073,0
	c0.017,0.006,0.058-0.008,0.073,0c0.91,0.547,2.13,3.854,3.075,10.399c5.803,40.117-1.486,55.246-0.731,59.181
	c0.008,0.034,0.063,0.111,0.073,0.146c0.01,0.032-0.013,0.115,0,0.146c0.013,0.028,0.06,0.116,0.072,0.146
	c0.009,0.014,0.065,0.061,0.073,0.072c0.024,0.039,0.046,0.111,0.073,0.146c0.01,0.013,0.062,0.063,0.073,0.074
	c0.031,0.029,0.11,0.047,0.146,0.072c0.013,0.009,0.062,0.064,0.073,0.074c0.04,0.021,0.103,0.054,0.146,0.071
	c0.03,0.013,0.114,0.063,0.146,0.074c0.05,0.014,0.166-0.011,0.22,0c0.074,0.012,0.211,0.066,0.293,0.072
	c0.063,0.004,0.151,0,0.22,0c16.931,0.001,9.664-56.463,6.958-77.416l4.028,4.028l-0.366-17.14
	c9.938,43.46,21.907,78.262,29.663,102.759c14.025,44.301,31.494,71.249,31.494,102.687c0,53.331-80.579,107.621-94.409,41.967
	c-43.332,14.369-13.953,52.148,3.735,52.148c2.378,0,3.65,0.278,4.175,0.731c0.019,0.018,0.059,0.058,0.073,0.074
	s0.061,0.055,0.073,0.072c0.013,0.019,0.062,0.056,0.072,0.073c0.006,0.01-0.004,0.063,0,0.072c0.004,0.01,0.07,0.064,0.073,0.074
	c0.002,0.01-0.001,0.062,0,0.072c0.002,0.011-0.001,0.062,0,0.073c0,0.011,0.001,0.062,0,0.072
	c-0.145,1.862-6.545,5.257-8.789,7.324c49.019,18.526,79.812-24.604,84.448-26.293c0.035-0.012,0.115-0.068,0.146-0.074
	c0.017-0.001,0.061,0,0.073,0c2.916,0,4.53,0.714,5.127,1.832c2.084,4.222-9.509,14.76-17.432,21.166
	c13.857,4.807,24.889,3.579,31.201-7.543c2.182,7.391-0.108,13.229,15.088,24.609v-450.87c-15.747,1.21-18.522-5.701-15.674-16.113
	c-21.658-3.652-20.109-12.909-10.254-24.17c-5.826-1.411-10.786-1.199-15.527-0.438c-1.671-14.975-10.985-18.557-18.896-24.17
	h-64.746c-8.681,4.045-13.84,10.48-15.967,18.896l39.331,40.796l-23.95,26.515c45.688-16.076,87.201,26.294,54.785,26.294
	c-16.799,0-21.855,2.329-30.614,13.695c-25.374-16.879-44.966,32.153-72.583,32.153c-29.436,0-37.007-37.5-17.799-37.5
	c7.144,0,6.593,7.251,15.161,7.251c6.927,0,14.646-3.077,12.451-9.961C131.122,182.963,81.654,88.061,76.245,34.79z"/>
<path id="rect2282" fill="#FF0000" stroke="#000000" stroke-width="2.3438" d="M174.891,77.992h65.049
	c1.572,0,2.847,1.273,2.847,2.846l0,0c0,1.572-1.273,2.847-2.847,2.847h-65.049c-1.571,0-2.847-1.273-2.847-2.847l0,0
	C172.046,79.267,173.32,77.992,174.891,77.992z"/>
<path id="path2284" sodipodi:nodetypes="cccccc" d="M228.673,337.365c-17.008,27.218-33.237,55.212-58.413,74.264
	c8.518,7.332,20.226,11.473,40.754,6.792c-5.459,13.919,12.435,28.867,14.942,36.226c6.521-19.21,12.629-38.557,22.642-56.603
	L228.673,337.365z"/>
<path id="path2291" sodipodi:nodetypes="cccc" fill="#FF0000" stroke="#000000" stroke-width="2.3438" d="M81.421,481.319
	c-8.146,3.884-12.891,10.036-15.524,17.595l17.596-6.21L81.421,481.319z"/>
<path id="path2293" sodipodi:nodetypes="ccc" fill="#FF0000" stroke="#000000" stroke-width="2.3438" d="M72.451,517.544
	l3.104,30.015C39.915,543.419,52.797,522.078,72.451,517.544z"/>
<path id="path2295" sodipodi:nodetypes="cccc" fill="#FF0000" stroke="#000000" stroke-width="2.3438" d="M120.406,542.038
	c-1.069,7.998-12.817,40.193,14.835,34.155c-11.432-15.602-6.013-21.573-5.52-30.359L120.406,542.038z"/>
<path id="path2297" sodipodi:nodetypes="cccc" fill="#FF0000" stroke="#000000" stroke-width="2.3438" d="M213.902,488.907
	c7.164,6.9,5.952,13.802,3.104,20.7c16.825-2.413,14.442-15.391,13.455-27.601L213.902,488.907z"/>
<path id="path2286" sodipodi:nodetypes="cccccccssccsccsccc" fill="#FF0000" stroke="#000000" stroke-width="2.3438" d="
	M211.01,418.432c-8.942,2.04-16.204,2.383-22.266,1.539l-26.733,57.055c0.714-3.081,1.73-6.086-1.61-10.18
	c-26.922,3.188-54.829,3.287-79.103,14.428l-0.586,12.305c26.442,1.191,46.5,2.339,67.97,0
	c-29.081,11.585-87.158,20.14-87.158,34.791c0,10.613,26.752,5.875,40.062,2.638c22.408-5.452,30.928-20.875,38.014-20.875
	c-49.766,60.293,7.979,58.602,0,32.666c17.602,0.979,20.226-15.989,24.022-31.566c7.142-29.285,31.279,10.534,34.204-16.041
	c6.121,7.99,13.883,4.313,16.479-5.858c25.863,0.652,15.209-14.941,5.858-14.941c-8.636,0-13.935,6.036-28.271,3.59l22.925-39.99
	C211.036,431.844,208.422,425.032,211.01,418.432z"/>
<path id="path2301" sodipodi:nodetypes="cccc" fill="#FF0000" stroke="#000000" stroke-width="2.3438" d="M194.215,136.391
	c-23.981,7.676-46.983,25.593-74.104,0.537c9.705,18.12,22.397,32.041,49.583,25.597L194.215,136.391z"/>
<path id="path2305" sodipodi:ry="3.0470715" sodipodi:cx="87.010818" sodipodi:cy="46.259918" sodipodi:type="arc" sodipodi:rx="5.417016" fill="#FFFFFF" d="
	M215.437,108.421c0.004,3.287-5.146,5.953-11.499,5.955c-6.354,0.002-11.509-2.661-11.514-5.947c0-0.003,0-0.005,0-0.008
	c-0.004-3.286,5.146-5.952,11.499-5.954c6.354-0.002,11.51,2.66,11.514,5.947C215.437,108.417,215.437,108.419,215.437,108.421z"/>
<path id="path2303" sodipodi:ry="1.6928174" sodipodi:cx="84.133026" sodipodi:cy="46.090637" sodipodi:type="arc" sodipodi:rx="1.6928174" d="
	M201.154,108.422c0,2.41-1.954,4.364-4.364,4.364s-4.364-1.954-4.364-4.364c0-2.411,1.954-4.365,4.364-4.365
	S201.154,106.011,201.154,108.422L201.154,108.422z"/>
<path id="path2307" sodipodi:nodetypes="cscc" fill="#FFFFFF" d="M222.398,96.985c-8.574,5.057-21.642,5.822-33.962,5.822
	c-7,0-6.439-8.539,2.717-8.345C192.662,100.553,207.89,98.857,222.398,96.985z"/>
<path id="path2299" sodipodi:nodetypes="ccsccc" fill="#FF0000" stroke="#000000" stroke-width="2.3438" d="M132.39,132.266
	c-8.768-22.83,0.63-36.896,28.645-35.979c0,0,26.571,22.761,37.377,37.377c20.271,27.421-18.582,20.896-34.232,41.219
	c-5.488-15.08,11.048-26.827,26.896-37.727C174.193,127.22,158.262,114.334,132.39,132.266z"/>
<rect id="rect2413" x="300" y="0" fill="#FF0000" width="300" height="600"/>
<path id="rect2383" fill="#FFE000" stroke="#000000" d="M485.815,42.993v31.641H462.01v72.949v2.855v72.949h23.805v31.641h31.128
	v-14.354c0-7.89,6.394-14.282,14.281-14.282c7.889,0,14.209,6.394,14.209,14.282v14.354h37.207v-31.421h-11.353
	c-7.889,0-14.282-6.319-14.282-14.209s6.395-14.209,14.282-14.209h11.353v-2.051v-29.37h-65.625v29.37h-30.321v-42.7v-2.855v-42.7
	h30.321v29.37h65.625v-29.37v-2.051h-11.353c-7.889,0-14.282-6.32-14.282-14.209c0-7.891,6.395-14.209,14.282-14.209h11.353V42.993
	h-37.207v14.354c0,7.889-6.319,14.282-14.209,14.282c-7.889,0-14.281-6.395-14.281-14.282V42.993H485.815z"/>
<path id="path2340" fill="#FFE000" stroke="#000000" d="M430.737,30.542v329.003c0,15.491-10.884,56.616-45.85,56.616
	c-34.967,0-34.967,44.896,0,44.896c34.966,0.001,45.85,41.125,45.85,56.617c0,15.491,36.107,15.491,36.107,0
	c0-15.492,10.884-56.617,45.851-56.617c34.966,0.001,34.966-44.896,0-44.896c-34.967,0-45.851-41.125-45.851-56.616V30.542H430.737z
	 M447.217,398.145c0.13-0.014,0.235,0.01,0.366,0c0.41-0.031,0.827,0,1.245,0c8.927,0,16.113,7.259,16.113,16.186
	c0,2.722-0.645,5.222-1.831,7.472c2.236-1.17,4.771-1.83,7.471-1.83c8.927,0,16.187,7.186,16.187,16.113
	c0,8.927-7.26,16.186-16.187,16.186c-2.678,0-5.172-0.677-7.397-1.83c1.165,2.233,1.759,4.778,1.759,7.471
	c0,8.928-7.188,16.187-16.113,16.187s-16.188-7.259-16.188-16.187c0-2.698,0.66-5.232,1.831-7.471
	c-2.236,1.17-4.771,1.83-7.471,1.83c-8.927,0-16.187-7.259-16.187-16.186c0-8.929,7.26-16.113,16.187-16.113
	c2.699,0,5.233,0.66,7.471,1.83c-1.188-2.25-1.831-4.75-1.831-7.472C432.64,405.954,439.054,398.966,447.217,398.145z"/>
<path id="path2321" sodipodi:ry="8.8100109" sodipodi:cx="145.13333" sodipodi:cy="186.91096" sodipodi:type="arc" sodipodi:rx="8.8100109" fill="#FFE000" stroke="#000000" stroke-width="0.9305" d="
	M362.347,438.615c0,12.256-9.937,22.191-22.191,22.191s-22.191-9.937-22.191-22.191s9.937-22.19,22.191-22.19
	S362.347,426.36,362.347,438.615z"/>
<path id="rect2315" fill="#FFE000" stroke="#000000" d="M365.268,404.44h1.396c3.901,0,7.064,3.162,7.064,7.063v54.225
	c0,3.901-3.163,7.063-7.064,7.063h-1.396c-3.901,0-7.064-3.162-7.064-7.063v-54.225C358.204,407.602,361.367,404.44,365.268,404.44z
	"/>
<path id="rect2319" fill="#FFE000" stroke="#000000" d="M380.794,404.44h1.398c3.9,0,7.063,3.162,7.063,7.063v54.225
	c0,3.901-3.163,7.063-7.063,7.063h-1.398c-3.9,0-7.062-3.162-7.062-7.063v-54.225C373.73,407.602,376.892,404.44,380.794,404.44z"/>
<path id="path2321_1_" sodipodi:ry="8.8100109" sodipodi:cx="145.13333" sodipodi:cy="186.91096" sodipodi:type="arc" sodipodi:rx="8.8100109" fill="#FFE000" stroke="#000000" stroke-width="0.9305" d="
	M448.794,541.148c12.255,0,22.19,9.937,22.19,22.191s-9.937,22.189-22.19,22.189c-12.256,0-22.191-9.936-22.191-22.189
	C426.601,551.082,436.538,541.148,448.794,541.148z"/>
<path id="rect2315_1_" fill="#FFE000" stroke="#000000" d="M414.617,538.227v-1.398c0-3.9,3.163-7.062,7.063-7.062h54.226
	c3.9,0,7.062,3.162,7.062,7.062v1.398c0,3.901-3.162,7.064-7.062,7.064H421.68C417.78,545.291,414.617,542.128,414.617,538.227z"/>
<path id="rect2319_1_" fill="#FFE000" stroke="#000000" d="M414.617,522.699v-1.396c0-3.901,3.163-7.064,7.063-7.064h54.226
	c3.9,0,7.062,3.163,7.062,7.064v1.396c0,3.901-3.162,7.064-7.062,7.064H421.68C417.78,529.765,414.617,526.602,414.617,522.699z"/>
<path id="path2321_2_" sodipodi:ry="8.8100109" sodipodi:cx="145.13333" sodipodi:cy="186.91096" sodipodi:type="arc" sodipodi:rx="8.8100109" fill="#FFE000" stroke="#000000" stroke-width="0.9305" d="
	M535.24,438.615c0-12.256,9.936-22.19,22.19-22.19s22.19,9.936,22.19,22.19s-9.936,22.191-22.19,22.191
	S535.24,450.87,535.24,438.615z"/>
<path id="rect2315_2_" fill="#FFE000" stroke="#000000" d="M532.319,472.79h-1.398c-3.901,0-7.062-3.161-7.062-7.062v-54.225
	c0-3.901,3.161-7.064,7.062-7.064h1.398c3.9,0,7.063,3.163,7.063,7.064v54.225C539.384,469.629,536.219,472.79,532.319,472.79z"/>
<path id="rect2319_2_" fill="#FFE000" stroke="#000000" d="M516.793,472.79h-1.396c-3.901,0-7.064-3.161-7.064-7.062v-54.225
	c0-3.901,3.163-7.064,7.064-7.064h1.396c3.901,0,7.064,3.163,7.064,7.064v54.225C523.857,469.629,520.694,472.79,516.793,472.79z"/>
<path id="rect2375" fill="#FFE000" stroke="#000000" d="M414.57,301.317h68.441c5.719,0,10.354,4.636,10.354,10.354l0,0
	c0,5.718-4.635,10.353-10.354,10.353H414.57c-5.718,0-10.354-4.635-10.354-10.353l0,0
	C404.217,305.951,408.852,301.317,414.57,301.317z"/>
<path id="rect2375_1_" fill="#FFE000" stroke="#000000" d="M414.57,343.782h68.441c5.719,0,10.354,4.636,10.354,10.354l0,0
	c0,5.718-4.635,10.354-10.354,10.354H414.57c-5.718,0-10.354-4.636-10.354-10.354l0,0
	C404.217,348.418,408.852,343.782,414.57,343.782z"/>
</svg>
