<?xml version="1.0" encoding="utf-8"?>
<!-- Generator: Adobe Illustrator 14.0.0, SVG Export Plug-In . SVG Version: 6.00 Build 43363)  -->
<!DOCTYPE svg PUBLIC "-//W3C//DTD SVG 1.1//EN" "http://www.w3.org/Graphics/SVG/1.1/DTD/svg11.dtd">
<svg version="1.1"
	 id="GL" xmlns:rdf="http://www.w3.org/1999/02/22-rdf-syntax-ns#" xmlns:sodipodi="http://inkscape.sourceforge.net/DTD/sodipodi-0.dtd" sodipodi:docbase="C:\Documents and Settings\David Nelson\Archives\Svg" xmlns:cc="http://web.resource.org/cc/" sodipodi:docname="Flag_of_Canton_of_Glarus.svg" sodipodi:version="0.32" xmlns:svg="http://www.w3.org/2000/svg" inkscape:version="0.43" xmlns:inkscape="http://www.inkscape.org/namespaces/inkscape" xmlns:dc="http://purl.org/dc/elements/1.1/"
	 xmlns="http://www.w3.org/2000/svg" xmlns:xlink="http://www.w3.org/1999/xlink" x="0px" y="0px" width="600px" height="600px"
	 viewBox="0 0 600 600" enable-background="new 0 0 600 600" xml:space="preserve">
<rect id="rect2303" x="0" y="0" fill="#FF0000" width="600" height="600"/>
<path id="path2299" fill="#FFFF00" stroke="#000000" d="M125.244,66.877l-9.229,1.4l75.586,503.438l9.302-1.4L125.244,66.877z"/>
<path id="path2291" sodipodi:ry="27.776926" sodipodi:cx="154.61127" sodipodi:cy="36.643978" sodipodi:type="arc" sodipodi:rx="27.776926" fill="#FFFF00" stroke="#000000" stroke-width="0.4928" d="
	M429.857,85.884c0.021,36.479-29.53,66.07-66.009,66.093c-36.479,0.023-66.069-29.529-66.094-66.008c0-0.028,0-0.057,0-0.085
	c-0.022-36.479,29.529-66.069,66.01-66.093c36.479-0.023,66.068,29.529,66.093,66.009C429.857,85.828,429.857,85.856,429.857,85.884
	z"/>
<path id="path2293" sodipodi:ry="27.776926" sodipodi:cx="154.61127" sodipodi:cy="36.643978" sodipodi:type="arc" sodipodi:rx="27.776926" d="
	M410.845,85.884c0.017,25.979-21.03,47.054-47.011,47.07c-25.979,0.016-47.053-21.03-47.068-47.011c0-0.021,0-0.04,0-0.061
	c-0.018-25.979,21.029-47.054,47.01-47.07c25.979-0.016,47.053,21.031,47.069,47.012C410.845,85.844,410.845,85.865,410.845,85.884z
	"/>
<path id="path2237" d="M365.698,104.224c-13.225-0.513-26.926,6.257-33.911,21.826c-24.428,54.445-78.041,83.895-149.561,95.728
	l4.979,33.618c42.327-0.546,81.896-6.554,120.19-15.161l-45.117,293.92h145.752v15.967c-19.25,12.56-37.115,24.638-32.886,44.238
	c16.067,0,45.399-20.165,68.114-30.248l-3.369-29.957h3.076L416.821,259.79c60.956,0,62.35,9.075,27.466-93.457
	c-7.794-22.908-16.891-32.391-47.313-40.283C391.686,112.529,378.923,104.736,365.698,104.224z"/>
<path id="path2235" fill="#FFFF00" d="M387.378,112.573c-5.33,19.021-11.378,28.712-24.976,28.712
	c-13.29,0-18.409-10.733-23.511-26.001c-2.745,2.963-5.203,6.527-7.104,10.767c-0.508,1.132-1.005,2.259-1.538,3.369
	c15.939,23.252,56.087,24.18,68.408-2.931c-0.54-0.146-1.13-0.296-1.685-0.438C394.839,120.592,391.494,116.061,387.378,112.573z"/>
<path id="path2259" fill="#FFFFFF" stroke="#000000" stroke-width="0.5" d="M187.207,255.396l-4.979-33.618
	c-0.048,0.009-0.099-0.008-0.146,0h-48.633c-2.819,0-2.856,2.776-2.856,7.91c-1.457,0-2.562,0.342-2.562,2.051v3.735
	c0,1.71,0.654,2.637,2.562,2.637v15.382c0,3.407,1.858,5.272,4.762,5.272c0,0,12.764,0,25.269,0c12.324,0,26.515-3.369,26.515-3.369
	C187.159,255.395,187.182,255.396,187.207,255.396z"/>
<path id="path1350" sodipodi:nodetypes="ccsssc" fill="#FFFFFF" d="M333.148,77.648c18.492-22.321,36.983-17.263,55.477-5.201
	c0.598,18.045-0.331,42.531-5.434,49.392c-3.779,5.08-13.719,9.243-20.29,9.243c-6.341,0-12.856-3.005-17.12-7.491
	C336.917,114.262,333.148,91.153,333.148,77.648z"/>
<path id="path2225" sodipodi:nodetypes="cc" fill="none" stroke="#000000" stroke-width="2.5" stroke-linecap="round" d="
	M353.663,119.781c5.276-3.757,11.002-3.461,17.048-0.287"/>
<path id="path2227" sodipodi:nodetypes="ccc" fill="none" stroke="#000000" d="M342.053,81.468
	c20.021-9.792,16.354,8.867,16.354,26.915h9.88"/>
<path id="path2229" sodipodi:nodetypes="cc" fill="none" stroke="#000000" d="M383.959,81.468
	c-8.555-4.185-12.784-3.174-14.822,0.765"/>
<path id="path2231" sodipodi:ry="1.453615" sodipodi:cx="148.99553" sodipodi:cy="38.103111" sodipodi:type="arc" sodipodi:rx="2.0350609" d="
	M353.978,89.304c0,1.882-2.137,3.407-4.771,3.407c-2.635,0-4.771-1.525-4.771-3.407s2.136-3.406,4.771-3.406
	S353.978,87.422,353.978,89.304z"/>
<path id="path2233" sodipodi:ry="1.453615" sodipodi:cx="148.99553" sodipodi:cy="38.103111" sodipodi:type="arc" sodipodi:rx="2.0350609" d="
	M378.508,89.304c0,1.882-2.136,3.407-4.77,3.407s-4.771-1.525-4.771-3.407s2.137-3.406,4.771-3.406S378.508,87.422,378.508,89.304z"
	/>
<path id="path2239" sodipodi:nodetypes="ccc" fill="none" stroke="#000000" stroke-width="0.5" d="M130.851,229.648h31.619
	c4.542,0,9.762,13.301,12.781,21.191"/>
<path id="path2243" sodipodi:nodetypes="ccccccccccc" fill="none" stroke="#000000" stroke-width="0.5" d="M161.982,229.637
	c2.17,0,2.39,8.423-1.243,8.423c5.83,0,5.665,7.043,2.21,7.043c3.618,0,3.543,7.043,0,7.043c3.298,0,3.007,6.628-0.139,6.628
	 M162.949,252.146H131.05 M162.949,245.103H131.05 M160.739,238.06H131.05"/>
<path id="path2261" sodipodi:nodetypes="ccccc" d="M220.758,570.747h82.495l-1.895-32.408h-29.673
	C271.685,564.845,220.758,536.033,220.758,570.747z"/>
<path id="path2263" fill="none" stroke="#FF0000" stroke-width="2" d="M317.114,272.066l46.61,275.498"/>
<rect id="rect2275" x="348.971" y="199.422" fill="#FFFF00" stroke="#000000" stroke-width="0.5" width="49.81" height="37.404"/>
<rect id="rect2277" x="351.939" y="197.51" fill="#FFFF00" stroke="#000000" stroke-width="0.5" width="49.811" height="37.404"/>
<rect id="rect2279" x="354.908" y="195.598" fill="#FFFF00" stroke="#000000" stroke-width="0.5" width="49.81" height="37.405"/>
<rect id="rect2281" x="357.877" y="193.686" fill="#FFFF00" stroke="#000000" stroke-width="0.5" width="49.811" height="37.405"/>
<rect id="rect2283" x="360.844" y="191.775" fill="#FFFF00" stroke="#000000" stroke-width="0.5" width="49.812" height="37.404"/>
<rect id="rect2285" x="363.813" y="189.863" fill="#FFFF00" stroke="#000000" stroke-width="0.5" width="49.811" height="37.404"/>
<rect id="rect2289" x="380.669" y="225.369" width="41.356" height="19.924"/>
<rect id="rect2269" x="366.782" y="187.95" fill="#FFFF00" stroke="#000000" stroke-width="0.5" width="49.81" height="37.404"/>
<path id="path2265" sodipodi:nodetypes="cccccccccssscccc" fill="#FFFFFF" stroke="#000000" stroke-width="0.5" d="M387.094,225.477
	l10.438,32.495h-47.2c-3.119,0-3.676-6.167,0-6.167h19.212H347.72c-4.056,0-4.11-5.692,0-5.692h21.347h-21.821
	c-4.081,0-3.831-8.538,0-8.538c7.859,0-0.699,1.168-4.507-9.487c-1.571-4.399,3.869-5.448,4.981-2.847
	c4.132,9.671,8.631,8.063,23.48,8.063h-13.045c-4.032,0-5.435-8.063,0-8.063L387.094,225.477z"/>
<path id="path2267" sodipodi:nodetypes="cc" fill="none" stroke="#000000" stroke-width="0.5" d="M350.224,237.495
	c7.614,0,14.281,2.796,21.364,2.796"/>
<path id="path2295" sodipodi:ry="5.4080229" sodipodi:cx="51.28685" sodipodi:cy="25.995789" sodipodi:type="arc" sodipodi:rx="10.112782" fill="#FFFF00" stroke="#000000" d="
	M162.736,188.916c1.186,6.898-8.312,14.289-21.212,16.506c-12.901,2.217-24.321-1.578-25.507-8.479
	c-1.187-6.899,8.312-14.289,21.213-16.506S161.551,182.017,162.736,188.916z"/>
<path id="path2295_1_" sodipodi:ry="5.4080229" sodipodi:cx="51.28685" sodipodi:cy="25.995789" sodipodi:type="arc" sodipodi:rx="10.112782" fill="#FFFF00" stroke="#000000" d="
	M143.563,56.913c1.186,6.898-8.312,14.289-21.213,16.506c-12.901,2.218-24.32-1.578-25.506-8.479
	c-1.187-6.899,8.312-14.289,21.212-16.506C130.958,46.219,142.378,50.014,143.563,56.913z"/>
</svg>
