<?xml version="1.0" encoding="utf-8"?>
<!-- Generator: Adobe Illustrator 14.0.0, SVG Export Plug-In . SVG Version: 6.00 Build 43363)  -->
<!DOCTYPE svg PUBLIC "-//W3C//DTD SVG 1.1//EN" "http://www.w3.org/Graphics/SVG/1.1/DTD/svg11.dtd">
<svg version="1.1"
	 id="NW" xmlns:rdf="http://www.w3.org/1999/02/22-rdf-syntax-ns#" xmlns:sodipodi="http://inkscape.sourceforge.net/DTD/sodipodi-0.dtd" sodipodi:docbase="C:\Documents and Settings\David Nelson\Archives\Svg" xmlns:cc="http://web.resource.org/cc/" sodipodi:docname="Flag_of_Canton_of_Nidwalden.svg" sodipodi:version="0.32" xmlns:svg="http://www.w3.org/2000/svg" inkscape:version="0.43" xmlns:inkscape="http://www.inkscape.org/namespaces/inkscape" xmlns:dc="http://purl.org/dc/elements/1.1/"
	 xmlns="http://www.w3.org/2000/svg" xmlns:xlink="http://www.w3.org/1999/xlink" x="0px" y="0px" width="600px" height="600px"
	 viewBox="0 0 600 600" enable-background="new 0 0 600 600" xml:space="preserve">
<rect id="rect2514" x="0" y="0" fill="#FF0000" width="600" height="600"/>
<path id="rect2469" sodipodi:nodetypes="ccccccccccccccccccccccccccccccccccccc" fill="#FFFFFF" stroke="#000000" stroke-linecap="square" d="
	M137.402,35.669v31.859h29.59v36.476h-29.59v34.131h39.478v-29.59h31.86v29.59h37.207v31.86H208.74v29.663h-31.86v-29.663h-39.478
	v34.203h29.59V240.6h-29.59v31.86h39.478v-29.956h31.86v29.956h37.207v-29.956h29.59V65.625h-29.59V35.669H208.74v29.956h-31.86
	V35.669H137.402z"/>
<path id="path2512" sodipodi:nodetypes="ccccccccccccccccccccccccccccccccccccc" fill="#FFFFFF" stroke="#000000" stroke-linecap="square" d="
	M462.596,35.669v31.859h-29.59v36.476h29.59v34.131H423.12v-29.59h-31.86v29.59h-37.206v31.86h37.206v29.663h31.86v-29.663h39.478
	v34.203h-29.59V240.6h29.59v31.86H423.12v-29.956h-31.86v29.956h-37.206v-29.956h-29.591V65.625h29.591V35.669h37.206v29.956h31.86
	V35.669H462.596z"/>
<path id="path2457" sodipodi:nodetypes="cssssssszsssssssc" fill="none" stroke="#000000" stroke-width="14" stroke-linecap="square" d="
	M279.089,36.997c0,0,0,171.769,0,247.628c0,17.059,1.876,46.869-13.115,55.524c-20.282,11.71-28.7-5.364-62.909-5.364
	s-67.077,31.768-67.077,64.277s32.438,65.766,67.077,65.766s45.417-22.833,61.124-7.126c15.842,15.843-11.697,38.616-11.697,65.665
	c0,31.067,30.474,36.417,47.51,36.417c17.037,0,47.511-5.35,47.511-36.417c0-27.049-27.538-49.822-11.696-65.665
	c15.706-15.707,26.482,7.126,61.123,7.126c34.64,0,67.077-33.255,67.077-65.766s-32.868-64.277-67.077-64.277
	s-42.626,17.074-62.908,5.364c-14.992-8.655-13.116-38.467-13.116-55.524c0-75.859,0-247.628,0-247.628"/>
<path id="path1577" sodipodi:nodetypes="cssssssszsssssssc" fill="none" stroke="#FFFFFF" stroke-width="12" stroke-linecap="square" d="
	M279.089,36.997c0,0,0,171.769,0,247.628c0,17.059,1.876,46.869-13.115,55.524c-20.282,11.71-28.7-5.364-62.909-5.364
	s-67.077,31.768-67.077,64.277s32.438,65.766,67.077,65.766s45.417-22.833,61.124-7.126c15.842,15.843-11.697,38.616-11.697,65.665
	c0,31.067,30.474,36.417,47.51,36.417c17.037,0,47.511-5.35,47.511-36.417c0-27.049-27.538-49.822-11.696-65.665
	c15.706-15.707,26.482,7.126,61.123,7.126c34.64,0,67.077-33.255,67.077-65.766s-32.868-64.277-67.077-64.277
	s-42.626,17.074-62.908,5.364c-14.992-8.655-13.116-38.467-13.116-55.524c0-75.859,0-247.628,0-247.628"/>
<path id="rect2461" fill="#FFFFFF" stroke="#000000" stroke-linecap="square" d="M262.709,290.455h74.583
	c1.988,0,3.601,1.61,3.601,3.601l0,0c0,1.988-1.611,3.6-3.601,3.6h-74.583c-1.987,0-3.601-1.61-3.601-3.6l0,0
	C259.108,292.067,260.72,290.455,262.709,290.455z"/>
<path id="rect2465" fill="#FFFFFF" stroke="#000000" stroke-linecap="square" d="M265.509,297.967h68.982
	c5.303,0,9.601,4.298,9.601,9.601l0,0c0,5.302-4.298,9.602-9.601,9.602h-68.982c-5.302,0-9.601-4.3-9.601-9.602l0,0
	C255.908,302.265,260.207,297.967,265.509,297.967z"/>
<path id="rect2467" fill="#FFFFFF" stroke="#000000" stroke-linecap="square" d="M262.709,317.168h74.583
	c1.988,0,3.601,1.61,3.601,3.6l0,0c0,1.988-1.611,3.601-3.601,3.601h-74.583c-1.987,0-3.601-1.611-3.601-3.601l0,0
	C259.108,318.78,260.72,317.168,262.709,317.168z"/>
</svg>
