<?xml version="1.0" encoding="utf-8"?>
<!-- Generator: Adobe Illustrator 14.0.0, SVG Export Plug-In . SVG Version: 6.00 Build 43363)  -->
<!DOCTYPE svg PUBLIC "-//W3C//DTD SVG 1.1//EN" "http://www.w3.org/Graphics/SVG/1.1/DTD/svg11.dtd">
<svg version="1.1"
	 id="OW" xmlns:rdf="http://www.w3.org/1999/02/22-rdf-syntax-ns#" xmlns:sodipodi="http://inkscape.sourceforge.net/DTD/sodipodi-0.dtd" sodipodi:docbase="C:\Documents and Settings\David Nelson\Archives\Svg" xmlns:cc="http://web.resource.org/cc/" sodipodi:docname="Flag_of_Canton_of_Obwalden.svg" sodipodi:version="0.32" xmlns:svg="http://www.w3.org/2000/svg" inkscape:version="0.43" xmlns:inkscape="http://www.inkscape.org/namespaces/inkscape" xmlns:dc="http://purl.org/dc/elements/1.1/"
	 xmlns="http://www.w3.org/2000/svg" xmlns:xlink="http://www.w3.org/1999/xlink" x="0px" y="0px" width="600px" height="600px"
	 viewBox="0 0 600 600" enable-background="new 0 0 600 600" xml:space="preserve">
<rect id="rect2660" x="0" y="0" fill="#FFFFFF" width="600" height="600"/>
<rect id="rect2658" x="0" y="0" fill="#FF0000" width="600" height="300"/>
<path id="path2492" fill="#FF0000" d="M255.484,458.563c-0.119,0.004-0.224,0.024-0.344,0.031
	c-15.377,0.856-31.375,24.407-31.375,40.438c0,47.255,45.9,76.469,76.25,76.469c30.351,0,76.219-29.214,76.219-76.469
	c0-23.897-35.479-64.459-51.562-21.719c-0.005,0.012-0.026,0.019-0.031,0.031c-0.031,0.083-0.062,0.165-0.094,0.25
	c-0.026,0.061-0.037,0.125-0.062,0.188c-0.004,0.009,0.004,0.021,0,0.031c-0.005,0.013-0.026,0.018-0.031,0.031
	c-0.377,0.944-0.594,1.952-0.594,3.031c0,4.558,3.691,8.281,8.25,8.281s8.281-3.724,8.281-8.281c0-4.559-3.723-8.25-8.281-8.25
	c-0.926,0-1.794,0.155-2.625,0.438c11.635-7.549,29.562-0.161,29.562,24.5c0,18.244-25.956,43.594-59.031,43.594
	s-59.031-25.35-59.031-43.594c0-24.703,17.992-32.083,29.625-24.469c-0.858-0.303-1.757-0.469-2.719-0.469
	c-4.559,0-8.281,3.691-8.281,8.25c0,4.558,3.723,8.281,8.281,8.281s8.25-3.724,8.25-8.281c0-1.104-0.231-2.131-0.625-3.094
	c0.019,0.023,0.045,0.037,0.062,0.062C270.353,463.584,263.004,458.317,255.484,458.563z"/>
<path id="path2492_1_" fill="#FF0000" d="M322.672,395.107c-0.057-0.104-0.091-0.206-0.145-0.312
	c-6.946-13.746,5.45-39.376,19.332-47.391c40.925-23.628,89.174,1.517,104.349,27.8c15.175,26.284,12.811,80.614-28.114,104.242
	c-20.695,11.948-73.562,1.503-44.59-33.795c0.009-0.011,0.003-0.032,0.012-0.043c0.057-0.069,0.111-0.137,0.169-0.206
	c0.04-0.054,0.09-0.095,0.132-0.148c0.006-0.008,0.021-0.007,0.026-0.016c0.009-0.01,0.003-0.032,0.012-0.042
	c0.63-0.799,1.394-1.49,2.328-2.03c3.948-2.279,9.018-0.943,11.297,3.004c2.279,3.948,0.916,9.033-3.031,11.312
	s-9.006,0.901-11.285-3.047c-0.463-0.802-0.762-1.631-0.934-2.492c-0.72,13.851,14.643,25.683,35.999,13.353
	c15.8-9.122,24.774-44.276,8.237-72.92s-51.469-38.447-67.269-29.325c-21.394,12.352-18.788,31.623-6.378,37.89
	c-0.691-0.592-1.285-1.287-1.766-2.12c-2.279-3.947-0.943-9.018,3.004-11.296c3.947-2.279,9.033-0.917,11.312,3.03
	c2.279,3.948,0.901,9.007-3.047,11.286c-0.956,0.552-1.961,0.864-2.991,1.005c0.029,0.004,0.055,0.02,0.085,0.023
	C334.456,405.473,326.219,401.741,322.672,395.107z"/>
<path id="path2492_2_" fill="#FF0000" d="M277.328,395.107c0.057-0.104,0.091-0.206,0.146-0.312
	c6.946-13.746-5.45-39.376-19.333-47.391c-40.924-23.628-89.174,1.517-104.349,27.8c-15.175,26.284-12.81,80.614,28.114,104.242
	c20.695,11.948,73.562,1.503,44.591-33.795c-0.009-0.011-0.003-0.032-0.012-0.043c-0.057-0.069-0.112-0.137-0.17-0.206
	c-0.039-0.054-0.09-0.095-0.131-0.148c-0.006-0.008-0.021-0.007-0.027-0.016c-0.009-0.01-0.002-0.032-0.011-0.042
	c-0.631-0.799-1.395-1.49-2.329-2.03c-3.947-2.279-9.018-0.943-11.297,3.004c-2.278,3.948-0.916,9.033,3.031,11.312
	c3.948,2.279,9.007,0.901,11.286-3.047c0.463-0.802,0.762-1.631,0.934-2.492c0.72,13.851-14.643,25.683-35.999,13.353
	c-15.801-9.122-24.775-44.276-8.238-72.92c16.538-28.644,51.469-38.447,67.27-29.325c21.394,12.352,18.788,31.623,6.378,37.89
	c0.691-0.592,1.284-1.287,1.766-2.12c2.278-3.947,0.943-9.018-3.005-11.296c-3.947-2.279-9.033-0.917-11.312,3.03
	c-2.278,3.948-0.9,9.007,3.047,11.286c0.956,0.552,1.961,0.864,2.992,1.005c-0.03,0.004-0.056,0.02-0.085,0.023
	C265.545,405.473,273.782,401.741,277.328,395.107z"/>
<path id="path2530" sodipodi:ry="17.171885" sodipodi:cx="194.43004" sodipodi:cy="503.06195" sodipodi:type="arc" sodipodi:rx="17.171885" fill="#FF0000" d="
	M221.994,503.062c0.005,9.483-7.68,17.176-17.163,17.181c-9.484,0.005-17.176-7.68-17.181-17.163c0-0.006,0-0.012,0-0.018
	c-0.005-9.483,7.68-17.176,17.163-17.181s17.176,7.68,17.181,17.163C221.994,503.05,221.994,503.056,221.994,503.062z"/>
<path id="path2532" sodipodi:ry="17.171885" sodipodi:cx="194.43004" sodipodi:cy="503.06195" sodipodi:type="arc" sodipodi:rx="17.171885" fill="#FF0000" d="
	M378.007,503.062c-0.005,9.483,7.679,17.176,17.163,17.181c9.483,0.005,17.176-7.68,17.181-17.163c0-0.006,0-0.012,0-0.018
	c0.004-9.483-7.68-17.176-17.164-17.181c-9.483-0.005-17.176,7.68-17.18,17.163C378.007,503.05,378.007,503.056,378.007,503.062z"/>
<path id="path2534" sodipodi:ry="17.171885" sodipodi:cx="194.43004" sodipodi:cy="503.06195" sodipodi:type="arc" sodipodi:rx="17.171885" fill="#FF0000" d="
	M263.48,440.831c0.005,9.484-7.68,17.176-17.163,17.181s-17.176-7.68-17.181-17.163c0-0.006,0-0.012,0-0.018
	c-0.005-9.483,7.68-17.176,17.163-17.18c9.484-0.005,17.176,7.679,17.181,17.163C263.48,440.821,263.48,440.826,263.48,440.831z"/>
<path id="path2536" sodipodi:ry="17.171885" sodipodi:cx="194.43004" sodipodi:cy="503.06195" sodipodi:type="arc" sodipodi:rx="17.171885" fill="#FF0000" d="
	M336.519,440.831c-0.005,9.484,7.68,17.176,17.163,17.181c9.484,0.005,17.176-7.68,17.181-17.163c0-0.006,0-0.012,0-0.018
	c0.005-9.483-7.68-17.176-17.163-17.18c-9.483-0.005-17.176,7.679-17.181,17.163C336.519,440.821,336.519,440.826,336.519,440.831z"
	/>
<path id="path2538" sodipodi:ry="17.171885" sodipodi:cx="194.43004" sodipodi:cy="503.06195" sodipodi:type="arc" sodipodi:rx="17.171885" fill="#FF0000" d="
	M317.172,389.771c0.005,9.484-7.68,17.176-17.163,17.181s-17.176-7.68-17.181-17.163c0-0.006,0-0.012,0-0.018
	c-0.005-9.483,7.68-17.175,17.163-17.18c9.484-0.005,17.176,7.679,17.181,17.163C317.172,389.76,317.172,389.766,317.172,389.771z"
	/>
<path id="path2540" sodipodi:nodetypes="ccccc" fill="#FF0000" d="M288.324,372.323h-5.521
	c-4.006-16.099-19.607-26.021-19.607-31.981c0-8.771,13.518-9.708,22.844-9.708C286.04,336.295,278.426,345.038,288.324,372.323z"/>
<path id="path2540_1_" sodipodi:nodetypes="ccccc" fill="#FF0000" d="M311.676,372.323h5.521
	c4.006-16.099,19.607-26.021,19.607-31.981c0-8.771-13.517-9.708-22.844-9.708C313.96,336.295,321.575,345.038,311.676,372.323z"/>
<path id="path2546" sodipodi:ry="19.561701" sodipodi:cx="288.59549" sodipodi:cy="350.04492" sodipodi:type="arc" sodipodi:rx="10.626109" fill="#FF0000" d="
	M314.008,350.196c0.011,10.804-6.252,19.574-13.988,19.589c-7.735,0.015-14.016-8.73-14.026-19.534c0-0.019,0-0.037,0-0.055
	c-0.011-10.804,6.252-19.574,13.987-19.589c7.736-0.016,14.017,8.73,14.027,19.534C314.008,350.159,314.008,350.177,314.008,350.196
	z"/>
<path id="rect2548" fill="#FF0000" d="M276.585,302.628h46.83c4.115,0,7.45,3.335,7.45,7.45v10.217c0,4.115-3.335,7.451-7.45,7.451
	h-46.83c-4.114,0-7.45-3.336-7.45-7.451v-10.217C269.135,305.963,272.47,302.628,276.585,302.628z"/>
<path id="rect2552" fill="#FF0000" stroke="#FFFFFF" stroke-width="2.777" stroke-linecap="round" d="M271.263,309.44h57.474
	c3.174,0,5.747,2.573,5.747,5.747l0,0c0,3.175-2.573,5.747-5.747,5.747h-57.474c-3.174,0-5.747-2.572-5.747-5.747l0,0
	C265.516,312.013,268.09,309.44,271.263,309.44z"/>
<path id="rect2554" fill="#FFFFFF" d="M291.201,27.531h13.321c3.146,0,5.695,2.55,5.695,5.695v257.958
	c0,3.146-2.55,5.695-5.695,5.695h-13.321c-3.145,0-5.694-2.55-5.694-5.695V33.227C285.507,30.081,288.056,27.531,291.201,27.531z"/>
<path id="rect2556" sodipodi:nodetypes="cccccccccccccccccccssscssccccccccccccccsscsssccccccccccccccccccccccccc" fill="#FFFFFF" d="
	M252.956,50.425c-2.235,0.28-3.969,2.218-3.969,4.531v16.438c0,2.285-2.062,4.031-4.375,4.031h-15.438
	c-2.425,0-4.375-1.949-4.375-4.375V57.394c0-2.695-2.773-4.719-5.594-4.719h-38.969c-3.139,0-5.656,2.518-5.656,5.656v19.406
	c0,3.139,2.518,5.656,5.656,5.656l31.5,0.062c2.249,0,4.062,1.783,4.062,4.031v13.906c0,2.248-1.813,4.062-4.062,4.062l-31.5,0.062
	c-3.139,0-5.656,2.549-5.656,5.688v19.406c0,2.97,2.425,5.656,5.156,5.656c0.003,0,0.025,0,0.031,0c0.021,0,0.042,0.001,0.062,0
	c0.007,0,39.375,0,39.375,0c2.82,0,5.594-2.031,5.594-4.719c0-0.003,0-16.125,0-16.125c0-2.425,1.95-4.375,4.375-4.375h15.438
	c2.312,0,4.204,1.766,4.375,4.031v16.688c0,2.507,2.024,4.531,4.531,4.531h16.5c2.137,0,3.75,1.783,3.75,4v14.938
	c0,2.217-1.613,4-3.75,4h-16.5c-2.507,0-4.531,2.024-4.531,4.531v16.688c-0.171,2.267-2.062,4.031-4.375,4.031h-15.438
	c-2.425,0-4.375-1.949-4.375-4.375c0,0,0-16.122,0-16.125c0-2.688-2.773-4.719-5.594-4.719c0,0-39.368,0-39.375,0
	c-0.021,0-0.042,0-0.062,0c-0.006,0-0.028,0-0.031,0c-2.731,0-5.156,2.688-5.156,5.656v19.406c0,3.139,2.518,5.688,5.656,5.688
	l31.5,0.062c2.249,0,4.062,1.814,4.062,4.062v13.906c0,2.248-1.813,4.031-4.062,4.031l-31.5,0.062c-3.139,0-5.656,2.518-5.656,5.656
	v19.406c0,3.139,2.518,5.656,5.656,5.656h38.969c2.82,0,5.594-2.022,5.594-4.719v-13.656c0-2.425,1.95-4.375,4.375-4.375h15.438
	c2.312,0,4.375,1.746,4.375,4.031v16.438c0,2.351,1.774,4.3,4.062,4.531h25.344c2.288-0.231,4.062-2.181,4.062-4.531V54.956
	c0-2.35-1.774-4.3-4.062-4.531H253.05C253.014,50.429,252.992,50.421,252.956,50.425z"/>
</svg>
