<?xml version="1.0" encoding="utf-8"?>
<!-- Generator: Adobe Illustrator 14.0.0, SVG Export Plug-In . SVG Version: 6.00 Build 43363)  -->
<!DOCTYPE svg PUBLIC "-//W3C//DTD SVG 1.1//EN" "http://www.w3.org/Graphics/SVG/1.1/DTD/svg11.dtd">
<svg version="1.1" id="SG" xmlns:svg="http://www.w3.org/2000/svg"
	 xmlns="http://www.w3.org/2000/svg" xmlns:xlink="http://www.w3.org/1999/xlink" x="0px" y="0px" width="600px" height="600px"
	 viewBox="0 0 600 600" enable-background="new 0 0 600 600" xml:space="preserve">
<rect x="0" y="0" fill="#008000" width="600" height="600"/>
<rect id="main_stick" x="287.5" y="21.5" fill="#FFFFFF" stroke="#000000" stroke-width="3" width="25" height="557"/>
<path id="main_fasce" fill="#FFFFFF" stroke="#000000" stroke-width="3" d="M295,130.5h10c6.903,0,12.5,5.596,12.5,12.5v375
	c0,6.903-5.597,12.5-12.5,12.5h-10c-6.903,0-12.5-5.597-12.5-12.5V143C282.5,136.096,288.096,130.5,295,130.5z"/>
<path id="lateral-fasce" fill="#FFFFFF" stroke="#000000" stroke-width="3" d="M243,130.5L243,130.5c6.903,0,12.5,5.596,12.5,12.5
	v375c0,6.903-5.597,12.5-12.5,12.5l0,0c-6.903,0-12.5-5.597-12.5-12.5V143C230.5,136.096,236.096,130.5,243,130.5z"/>
<path id="lateral-fasce_1_" fill="#FFFFFF" stroke="#000000" stroke-width="3" d="M269,130.5L269,130.5
	c6.903,0,12.5,5.596,12.5,12.5v375c0,6.903-5.597,12.5-12.5,12.5l0,0c-6.903,0-12.5-5.597-12.5-12.5V143
	C256.5,136.096,262.096,130.5,269,130.5z"/>
<path id="lateral-fasce_2_" fill="#FFFFFF" stroke="#000000" stroke-width="3" d="M331,130.5L331,130.5
	c6.903,0,12.5,5.596,12.5,12.5v375c0,6.903-5.597,12.5-12.5,12.5l0,0c-6.903,0-12.5-5.597-12.5-12.5V143
	C318.5,136.096,324.096,130.5,331,130.5z"/>
<path id="lateral-fasce_3_" fill="#FFFFFF" stroke="#000000" stroke-width="3" d="M357,130.5L357,130.5
	c6.903,0,12.5,5.596,12.5,12.5v375c0,6.903-5.597,12.5-12.5,12.5l0,0c-6.903,0-12.5-5.597-12.5-12.5V143
	C344.5,136.096,350.096,130.5,357,130.5z"/>
<path id="ribbon-horizontal" fill="#008000" stroke="#000000" stroke-width="3" d="M231,166.5h138c2.762,0,5,2.238,5,5v22
	c0,2.761-2.238,5-5,5H231c-2.761,0-5-2.239-5-5v-22C226,168.739,228.239,166.5,231,166.5z"/>
<path id="ribbon-horizontal_1_" fill="#008000" stroke="#000000" stroke-width="3" d="M231,466.5h138c2.762,0,5,2.238,5,5v22
	c0,2.761-2.238,5-5,5H231c-2.761,0-5-2.239-5-5v-22C226,468.739,228.239,466.5,231,466.5z"/>
<path id="ribbon-diagonal" fill="#008000" stroke="#000000" stroke-width="3" stroke-linejoin="round" d="M374,218v50L226,445v-50
	L374,218z"/>
<path id="ribbon-diagonal_1_" fill="#008000" stroke="#000000" stroke-width="3" stroke-linejoin="round" d="M226,218v50l148,177
	v-50L226,218z"/>
<path id="axe-1" fill="#FFFFFF" stroke="#000000" stroke-width="3" d="M326,86c7-1,7-9,0-11c-40-8-69-28-96-59c-18,40-18,74,0,110
	C255,102,286,89,326,86z"/>
<path id="axe-2" fill="#FFFFFF" stroke="#000000" stroke-width="3" d="M317,70v20c-12,3-22,6-34,5V59C295,60,305,66,317,70z"/>
</svg>
