<?xml version="1.0" encoding="utf-8"?>
<!-- Generator: Adobe Illustrator 14.0.0, SVG Export Plug-In . SVG Version: 6.00 Build 43363)  -->
<!DOCTYPE svg PUBLIC "-//W3C//DTD SVG 1.1//EN" "http://www.w3.org/Graphics/SVG/1.1/DTD/svg11.dtd">
<svg version="1.1" id="VD" xmlns:svg="http://www.w3.org/2000/svg"
	 xmlns="http://www.w3.org/2000/svg" xmlns:xlink="http://www.w3.org/1999/xlink" x="0px" y="0px" width="600px" height="600px"
	 viewBox="0 0 600 600" enable-background="new 0 0 600 600" xml:space="preserve">
<rect id="top" x="0" y="0" fill="#FFFFFF" width="600" height="300"/>
<rect id="bottom" x="0" y="300" fill="#008000" width="600" height="300"/>
<path fill="#E0E000" d="M130.078,91.758L127.588,115H68.799v-1.807h2.197c1.92,0,3.467-0.342,4.639-1.025
	c0.846-0.455,1.497-1.236,1.953-2.344c0.358-0.781,0.537-2.832,0.537-6.152V60.117c0-3.385-0.179-5.501-0.537-6.348
	c-0.358-0.846-1.083-1.587-2.173-2.222c-1.091-0.635-2.563-0.952-4.419-0.952h-2.197v-1.807h35.303v1.807h-2.881
	c-1.921,0-3.467,0.342-4.639,1.025c-0.847,0.456-1.514,1.237-2.002,2.344c-0.358,0.781-0.537,2.832-0.537,6.152v42.188
	c0,3.386,0.195,5.542,0.586,6.47s1.155,1.62,2.295,2.075c0.813,0.293,2.783,0.439,5.908,0.439h5.518
	c3.516,0,6.445-0.618,8.789-1.855c2.344-1.236,4.37-3.189,6.079-5.859c1.709-2.669,3.328-6.607,4.858-11.816H130.078z"/>
<path fill="#E0E000" d="M170.264,113.194V115h-34.619v-1.807h2.197c1.92,0,3.467-0.342,4.639-1.025
	c0.846-0.455,1.497-1.236,1.953-2.344c0.358-0.781,0.537-2.832,0.537-6.152V60.117c0-3.385-0.179-5.501-0.537-6.348
	c-0.358-0.846-1.083-1.587-2.173-2.222c-1.091-0.635-2.563-0.952-4.419-0.952h-2.197v-1.807h34.619v1.807h-2.197
	c-1.921,0-3.467,0.342-4.639,1.025c-0.847,0.456-1.514,1.237-2.002,2.344c-0.358,0.781-0.537,2.832-0.537,6.152v43.555
	c0,3.386,0.187,5.502,0.562,6.348c0.374,0.847,1.106,1.587,2.197,2.222c1.09,0.635,2.563,0.952,4.419,0.952H170.264z"/>
<path fill="#E0E000" d="M217.041,79.893c6.282,1.465,10.693,3.239,13.232,5.322c3.646,2.963,5.469,6.804,5.469,11.523
	c0,4.98-2.002,9.099-6.006,12.354c-4.916,3.939-12.061,5.908-21.436,5.908h-33.643v-1.807c3.06,0,5.135-0.284,6.226-0.854
	c1.09-0.569,1.855-1.31,2.295-2.222c0.439-0.911,0.659-3.157,0.659-6.738V60.41c0-3.58-0.22-5.835-0.659-6.763
	s-1.213-1.668-2.319-2.222c-1.107-0.553-3.174-0.83-6.201-0.83v-1.807h31.738c7.584,0,12.956,0.676,16.113,2.026
	c3.157,1.352,5.647,3.369,7.471,6.055c1.823,2.686,2.734,5.542,2.734,8.569c0,3.19-1.156,6.03-3.467,8.521
	C226.937,76.45,222.868,78.428,217.041,79.893z M199.268,82.383v21.24l-0.049,2.441c0,1.758,0.447,3.085,1.343,3.979
	c0.895,0.896,2.222,1.343,3.979,1.343c2.604,0,5.005-0.577,7.202-1.733c2.197-1.155,3.882-2.832,5.054-5.029
	s1.758-4.646,1.758-7.349c0-3.092-0.716-5.867-2.148-8.325c-1.433-2.457-3.402-4.175-5.908-5.151
	C207.991,82.823,204.248,82.351,199.268,82.383z M199.268,78.574c4.622,0,8.032-0.521,10.229-1.562
	c2.197-1.041,3.882-2.506,5.054-4.395c1.172-1.888,1.758-4.297,1.758-7.227s-0.578-5.33-1.733-7.202
	c-1.156-1.871-2.808-3.296-4.956-4.272s-5.599-1.448-10.352-1.416V78.574z"/>
<path fill="#E0E000" d="M266.504,52.598v26.953h1.318c4.199,0,7.243-1.318,9.131-3.955c1.888-2.637,3.092-6.526,3.613-11.67h1.855
	v34.668h-1.855c-0.391-3.775-1.213-6.868-2.466-9.277c-1.253-2.408-2.71-4.028-4.37-4.858s-4.069-1.245-7.227-1.245v18.652
	c0,3.646,0.154,5.876,0.464,6.689c0.309,0.814,0.887,1.481,1.733,2.002c0.846,0.521,2.213,0.781,4.102,0.781h3.955
	c6.185,0,11.141-1.432,14.868-4.297c3.727-2.864,6.404-7.227,8.032-13.086h1.806L298.487,115H241.26v-1.807h2.197
	c1.92,0,3.467-0.342,4.639-1.025c0.846-0.455,1.497-1.236,1.953-2.344c0.358-0.781,0.537-2.832,0.537-6.152V60.117
	c0-2.994-0.082-4.834-0.244-5.518c-0.326-1.139-0.928-2.018-1.807-2.637c-1.237-0.911-2.93-1.367-5.078-1.367h-2.197v-1.807h55.42
	v19.58h-1.855c-0.944-4.785-2.271-8.219-3.979-10.303c-1.709-2.083-4.126-3.613-7.251-4.59c-1.823-0.586-5.241-0.879-10.254-0.879
	H266.504z"/>
<path fill="#E0E000" d="M332.519,84.824v18.555c0,3.581,0.221,5.835,0.66,6.763s1.212,1.669,2.318,2.222
	c1.107,0.554,3.174,0.83,6.201,0.83V115h-33.887v-1.807c3.061,0,5.135-0.284,6.227-0.854c1.09-0.569,1.855-1.31,2.295-2.222
	c0.439-0.911,0.658-3.157,0.658-6.738V60.41c0-3.58-0.219-5.835-0.658-6.763s-1.213-1.668-2.32-2.222
	c-1.106-0.553-3.174-0.83-6.201-0.83v-1.807h30.762c8.008,0,13.867,0.554,17.578,1.66c3.711,1.107,6.738,3.149,9.082,6.128
	s3.516,6.47,3.516,10.474c0,4.883-1.758,8.92-5.273,12.109c-2.246,2.019-5.387,3.532-9.424,4.541l15.918,22.412
	c2.084,2.897,3.564,4.704,4.443,5.42c1.335,1.01,2.881,1.562,4.639,1.66V115h-20.85l-21.338-30.176H332.519z M332.519,52.354v29.004
	h2.783c4.525,0,7.91-0.415,10.156-1.245s4.012-2.327,5.299-4.492c1.285-2.164,1.928-4.988,1.928-8.472
	c0-5.045-1.18-8.772-3.539-11.182c-2.361-2.408-6.161-3.613-11.402-3.613H332.519z"/>
<path fill="#E0E000" d="M437.744,48.789v17.92h-1.758c-1.041-4.134-2.197-7.104-3.467-8.911s-3.011-3.247-5.225-4.321
	c-1.236-0.586-3.401-0.879-6.494-0.879h-4.932v51.074c0,3.386,0.188,5.502,0.562,6.348c0.373,0.847,1.105,1.587,2.197,2.222
	c1.09,0.635,2.579,0.952,4.467,0.952h2.197V115h-34.668v-1.807h2.197c1.921,0,3.467-0.342,4.639-1.025
	c0.847-0.455,1.514-1.236,2.002-2.344c0.358-0.781,0.537-2.832,0.537-6.152V52.598h-4.785c-4.459,0-7.698,0.944-9.717,2.832
	c-2.832,2.637-4.622,6.396-5.371,11.279h-1.855v-17.92H437.744z"/>
<path fill="#E0E000" d="M468.603,52.598v26.953h1.318c4.199,0,7.243-1.318,9.131-3.955c1.889-2.637,3.093-6.526,3.613-11.67h1.855
	v34.668h-1.855c-0.391-3.775-1.213-6.868-2.465-9.277c-1.254-2.408-2.711-4.028-4.371-4.858s-4.068-1.245-7.227-1.245v18.652
	c0,3.646,0.154,5.876,0.465,6.689c0.309,0.814,0.887,1.481,1.732,2.002c0.847,0.521,2.214,0.781,4.102,0.781h3.955
	c6.186,0,11.141-1.432,14.869-4.297c3.727-2.864,6.404-7.227,8.031-13.086h1.807L500.586,115h-57.227v-1.807h2.197
	c1.921,0,3.467-0.342,4.639-1.025c0.847-0.455,1.498-1.236,1.953-2.344c0.358-0.781,0.537-2.832,0.537-6.152V60.117
	c0-2.994-0.081-4.834-0.244-5.518c-0.325-1.139-0.928-2.018-1.807-2.637c-1.236-0.911-2.93-1.367-5.078-1.367h-2.197v-1.807h55.42
	v19.58h-1.855c-0.943-4.785-2.27-8.219-3.979-10.303c-1.709-2.083-4.127-3.613-7.252-4.59c-1.822-0.586-5.24-0.879-10.254-0.879
	H468.603z M489.502,26.182L473.34,43.125h-4.199l5.664-16.943H489.502z"/>
<path fill="none" stroke="#000000" stroke-width="2" d="M130.078,91.758L127.588,115H68.799v-1.808h2.197
	c1.92,0,3.467-0.342,4.639-1.024c0.847-0.455,1.497-1.236,1.953-2.344c0.358-0.781,0.537-2.832,0.537-6.152V60.117
	c0-3.386-0.179-5.501-0.537-6.349c-0.357-0.846-1.083-1.587-2.173-2.222c-1.091-0.635-2.562-0.952-4.419-0.952h-2.197v-1.807h35.304
	v1.807h-2.881c-1.922,0-3.468,0.342-4.64,1.025c-0.847,0.456-1.514,1.236-2.002,2.344c-0.357,0.781-0.537,2.832-0.537,6.152v42.188
	c0,3.386,0.195,5.542,0.586,6.47c0.392,0.929,1.155,1.62,2.295,2.075c0.813,0.293,2.783,0.439,5.908,0.439h5.519
	c3.516,0,6.444-0.618,8.789-1.855c2.344-1.236,4.369-3.188,6.078-5.858c1.71-2.67,3.328-6.607,4.858-11.816H130.078z"/>
<path fill="none" stroke="#000000" stroke-width="2" d="M170.264,113.194V115h-34.619v-1.808h2.196c1.921,0,3.468-0.342,4.64-1.024
	c0.846-0.455,1.497-1.236,1.953-2.344c0.357-0.781,0.537-2.832,0.537-6.152V60.117c0-3.386-0.18-5.501-0.537-6.349
	c-0.358-0.846-1.083-1.587-2.173-2.222c-1.092-0.635-2.563-0.952-4.42-0.952h-2.196v-1.807h34.619v1.807h-2.197
	c-1.921,0-3.467,0.342-4.639,1.025c-0.848,0.456-1.515,1.236-2.003,2.344c-0.357,0.781-0.536,2.832-0.536,6.152v43.555
	c0,3.386,0.187,5.502,0.562,6.348c0.374,0.848,1.106,1.587,2.197,2.223c1.09,0.635,2.562,0.951,4.419,0.951L170.264,113.194
	L170.264,113.194z"/>
<path fill="none" stroke="#000000" stroke-width="2" d="M217.041,79.893c6.282,1.465,10.693,3.239,13.232,5.322
	c3.646,2.963,5.469,6.804,5.469,11.522c0,4.98-2.002,9.1-6.006,12.354C224.82,113.031,217.675,115,208.3,115h-33.643v-1.808
	c3.06,0,5.135-0.283,6.226-0.854c1.091-0.569,1.855-1.311,2.295-2.222s0.659-3.157,0.659-6.738V60.41c0-3.58-0.22-5.835-0.659-6.764
	c-0.438-0.928-1.213-1.668-2.318-2.222c-1.107-0.553-3.174-0.83-6.201-0.83v-1.807h31.738c7.584,0,12.956,0.676,16.112,2.025
	c3.157,1.353,5.647,3.369,7.472,6.056c1.822,2.686,2.733,5.542,2.733,8.568c0,3.19-1.155,6.03-3.467,8.521
	C226.937,76.45,222.868,78.428,217.041,79.893z M199.268,82.383v21.24l-0.049,2.44c0,1.758,0.446,3.085,1.343,3.979
	c0.895,0.896,2.222,1.343,3.979,1.343c2.604,0,5.005-0.577,7.202-1.733c2.197-1.154,3.882-2.832,5.054-5.028
	c1.173-2.197,1.759-4.646,1.759-7.35c0-3.092-0.717-5.866-2.148-8.324c-1.433-2.457-3.402-4.176-5.908-5.151
	C207.991,82.823,204.248,82.351,199.268,82.383z M199.268,78.573c4.622,0,8.031-0.521,10.229-1.562s3.882-2.506,5.054-4.395
	c1.173-1.889,1.759-4.298,1.759-7.228s-0.578-5.33-1.733-7.202c-1.156-1.871-2.808-3.296-4.956-4.271
	c-2.147-0.977-5.599-1.448-10.352-1.416V78.573z"/>
<path fill="none" stroke="#000000" stroke-width="2" d="M266.504,52.598v26.953h1.318c4.199,0,7.243-1.318,9.131-3.955
	s3.092-6.526,3.613-11.67h1.854v34.668h-1.854c-0.392-3.775-1.213-6.868-2.466-9.277c-1.253-2.407-2.71-4.027-4.37-4.857
	s-4.069-1.245-7.228-1.245v18.652c0,3.646,0.154,5.876,0.464,6.688c0.31,0.814,0.888,1.481,1.733,2.002
	c0.846,0.521,2.213,0.781,4.102,0.781h3.955c6.186,0,11.142-1.433,14.868-4.297c3.728-2.864,6.404-7.228,8.032-13.086h1.806
	L298.487,115H241.26v-1.808h2.197c1.92,0,3.467-0.342,4.64-1.024c0.846-0.455,1.496-1.236,1.952-2.344
	c0.358-0.781,0.537-2.832,0.537-6.152V60.117c0-2.994-0.082-4.834-0.244-5.519c-0.325-1.139-0.928-2.018-1.807-2.637
	c-1.237-0.911-2.93-1.367-5.078-1.367h-2.197v-1.807h55.421v19.58h-1.855c-0.944-4.785-2.271-8.22-3.979-10.304
	c-1.71-2.083-4.127-3.612-7.252-4.59c-1.822-0.586-5.24-0.879-10.254-0.879h-6.837V52.598z"/>
<path fill="none" stroke="#000000" stroke-width="2" d="M332.519,84.824v18.555c0,3.581,0.221,5.835,0.66,6.763
	c0.438,0.928,1.212,1.669,2.317,2.222c1.107,0.555,3.174,0.83,6.201,0.83V115h-33.887v-1.808c3.061,0,5.135-0.283,6.227-0.854
	c1.09-0.569,1.855-1.311,2.295-2.222s0.658-3.157,0.658-6.738V60.41c0-3.58-0.219-5.835-0.658-6.764
	c-0.438-0.928-1.213-1.668-2.319-2.222c-1.106-0.553-3.175-0.83-6.201-0.83v-1.807h30.762c8.008,0,13.867,0.554,17.578,1.659
	c3.711,1.107,6.738,3.149,9.082,6.129c2.344,2.979,3.516,6.47,3.516,10.474c0,4.883-1.758,8.92-5.272,12.109
	c-2.246,2.019-5.388,3.531-9.425,4.541l15.919,22.411c2.084,2.897,3.563,4.704,4.442,5.42c1.335,1.011,2.881,1.562,4.639,1.66V115
	h-20.85l-21.338-30.176H332.519z M332.519,52.354v29.004h2.782c4.525,0,7.91-0.415,10.156-1.245
	c2.246-0.829,4.013-2.326,5.299-4.491c1.285-2.164,1.929-4.988,1.929-8.473c0-5.045-1.181-8.771-3.539-11.182
	c-2.361-2.408-6.161-3.613-11.402-3.613H332.519z"/>
<path fill="none" stroke="#000000" stroke-width="2" d="M437.744,48.789v17.92h-1.758c-1.041-4.134-2.197-7.104-3.468-8.911
	c-1.27-1.807-3.011-3.247-5.225-4.321c-1.236-0.586-3.401-0.879-6.494-0.879h-4.932v51.074c0,3.386,0.188,5.502,0.562,6.348
	c0.372,0.848,1.104,1.587,2.196,2.223c1.09,0.635,2.579,0.951,4.467,0.951h2.197V115h-34.668v-1.808h2.197
	c1.921,0,3.467-0.342,4.639-1.024c0.848-0.455,1.515-1.236,2.002-2.344c0.358-0.781,0.537-2.832,0.537-6.152V52.598h-4.785
	c-4.459,0-7.697,0.944-9.717,2.832c-2.832,2.637-4.622,6.396-5.371,11.279h-1.854v-17.92H437.744z"/>
<path fill="none" stroke="#000000" stroke-width="2" d="M468.602,52.598v26.953h1.318c4.199,0,7.243-1.318,9.131-3.955
	c1.89-2.637,3.093-6.526,3.613-11.67h1.854v34.668h-1.854c-0.391-3.775-1.213-6.868-2.465-9.277
	c-1.254-2.407-2.711-4.027-4.371-4.857s-4.068-1.245-7.228-1.245v18.652c0,3.646,0.154,5.876,0.466,6.688
	c0.309,0.814,0.887,1.481,1.731,2.002c0.848,0.521,2.214,0.781,4.103,0.781h3.955c6.186,0,11.141-1.433,14.868-4.297
	s6.404-7.228,8.031-13.086h1.807L500.586,115h-57.227v-1.808h2.196c1.921,0,3.468-0.342,4.64-1.024
	c0.847-0.455,1.498-1.236,1.953-2.344c0.357-0.781,0.536-2.832,0.536-6.152V60.117c0-2.994-0.081-4.834-0.243-5.519
	c-0.325-1.139-0.929-2.018-1.808-2.637c-1.235-0.911-2.93-1.367-5.078-1.367h-2.196v-1.807h55.42v19.58h-1.855
	c-0.942-4.785-2.27-8.22-3.979-10.304c-1.709-2.083-4.127-3.612-7.252-4.59c-1.822-0.586-5.24-0.879-10.254-0.879h-6.837V52.598z
	 M489.502,26.182L473.34,43.125h-4.199l5.664-16.943H489.502z"/>
<path fill="#E0E000" d="M257.91,144.198v20.215h0.989c3.149,0,5.432-0.989,6.848-2.966c1.416-1.979,2.319-4.896,2.71-8.753h1.392
	v26.001h-1.392c-0.293-2.832-0.91-5.151-1.85-6.958s-2.032-3.021-3.277-3.644c-1.245-0.623-3.052-0.934-5.42-0.934v13.988
	c0,2.735,0.116,4.407,0.348,5.018s0.665,1.111,1.3,1.502c0.635,0.391,1.66,0.586,3.076,0.586h2.966
	c4.638,0,8.355-1.074,11.151-3.223c2.795-2.148,4.803-5.42,6.024-9.814h1.355L281.897,191h-42.92v-1.355h1.648
	c1.44,0,2.6-0.256,3.479-0.769c0.635-0.342,1.123-0.928,1.465-1.758c0.269-0.586,0.403-2.124,0.403-4.614v-32.666
	c0-2.246-0.061-3.625-0.183-4.139c-0.244-0.854-0.696-1.513-1.355-1.977c-0.928-0.684-2.197-1.025-3.809-1.025h-1.648v-1.355h41.565
	v14.686h-1.392c-0.708-3.59-1.703-6.165-2.984-7.728c-1.282-1.562-3.095-2.71-5.438-3.442c-1.368-0.439-3.931-0.659-7.69-0.659
	H257.91z"/>
<path fill="#E0E000" d="M334.814,141.342v13.439h-1.318c-0.781-3.1-1.647-5.328-2.6-6.683c-0.952-1.355-2.258-2.436-3.918-3.241
	c-0.929-0.439-2.552-0.659-4.871-0.659h-3.699v38.306c0,2.539,0.141,4.126,0.422,4.761c0.28,0.635,0.83,1.19,1.648,1.666
	c0.816,0.477,1.934,0.714,3.35,0.714h1.648V191h-26.001v-1.355h1.647c1.441,0,2.601-0.256,3.479-0.769
	c0.635-0.342,1.136-0.928,1.501-1.758c0.27-0.586,0.403-2.124,0.403-4.614v-38.306h-3.589c-3.345,0-5.774,0.708-7.288,2.124
	c-2.124,1.978-3.467,4.797-4.028,8.459h-1.392v-13.439H334.814z"/>
<path fill="none" stroke="#000000" stroke-width="2" d="M257.91,144.198v20.216h0.989c3.148,0,5.432-0.989,6.848-2.967
	c1.416-1.979,2.319-4.896,2.71-8.753h1.393v26.001h-1.393c-0.293-2.832-0.91-5.15-1.85-6.958c-0.94-1.807-2.032-3.021-3.277-3.644
	s-3.052-0.934-5.42-0.934v13.987c0,2.735,0.116,4.407,0.348,5.019c0.232,0.61,0.665,1.11,1.301,1.502
	c0.635,0.391,1.659,0.586,3.075,0.586h2.967c4.638,0,8.354-1.074,11.15-3.224c2.795-2.147,4.803-5.42,6.024-9.813h1.354L281.897,191
	h-42.92v-1.355h1.647c1.44,0,2.601-0.256,3.479-0.769c0.635-0.342,1.123-0.929,1.465-1.758c0.269-0.586,0.403-2.124,0.403-4.614
	v-32.666c0-2.246-0.062-3.625-0.184-4.139c-0.244-0.854-0.696-1.514-1.354-1.978c-0.929-0.684-2.197-1.025-3.81-1.025h-1.647v-1.354
	h41.564v14.686h-1.392c-0.708-3.59-1.703-6.165-2.984-7.728c-1.282-1.562-3.095-2.71-5.438-3.442
	c-1.368-0.438-3.932-0.658-7.69-0.658h-5.128V144.198z"/>
<path fill="none" stroke="#000000" stroke-width="2" d="M334.814,141.342v13.438h-1.318c-0.781-3.1-1.646-5.327-2.6-6.683
	c-0.952-1.354-2.258-2.436-3.918-3.241c-0.93-0.438-2.553-0.659-4.871-0.659h-3.699v38.307c0,2.539,0.141,4.126,0.422,4.761
	c0.28,0.635,0.83,1.19,1.648,1.666c0.815,0.478,1.934,0.714,3.35,0.714h1.648V191h-26.001v-1.355h1.646
	c1.441,0,2.602-0.256,3.479-0.769c0.635-0.342,1.136-0.929,1.501-1.758c0.27-0.586,0.402-2.124,0.402-4.614v-38.307h-3.589
	c-3.345,0-5.773,0.708-7.288,2.124c-2.124,1.979-3.467,4.798-4.027,8.459h-1.393v-13.438H334.814L334.814,141.342z"/>
<path fill="#E0E000" d="M145.508,255.02v18.359c0,3.581,0.22,5.835,0.659,6.763s1.221,1.669,2.344,2.222
	c1.123,0.554,3.182,0.83,6.177,0.83V285h-33.643v-1.807c3.06,0,5.135-0.284,6.226-0.854c1.09-0.569,1.855-1.31,2.295-2.222
	c0.439-0.911,0.659-3.157,0.659-6.738V230.41c0-3.58-0.22-5.835-0.659-6.763s-1.213-1.668-2.319-2.222
	c-1.107-0.553-3.174-0.83-6.201-0.83v-1.807h28.857c9.505,0,16.325,1.693,20.459,5.078c4.134,3.386,6.201,7.617,6.201,12.695
	c0,4.297-1.335,7.976-4.004,11.035c-2.669,3.061-6.348,5.144-11.035,6.25C158.366,254.629,153.028,255.02,145.508,255.02z
	 M145.508,222.598v28.613c1.074,0.065,1.888,0.098,2.441,0.098c3.971,0,7.031-1.18,9.18-3.54c2.148-2.359,3.223-6.014,3.223-10.962
	c0-4.915-1.074-8.512-3.223-10.791c-2.148-2.278-5.355-3.418-9.619-3.418H145.508z"/>
<path fill="#E0E000" d="M213.77,266.153h-23.389l-2.783,6.445c-0.912,2.148-1.367,3.923-1.367,5.322
	c0,1.855,0.749,3.223,2.246,4.102c0.879,0.521,3.043,0.912,6.494,1.172V285h-22.021v-1.807c2.376-0.357,4.329-1.343,5.859-2.954
	c1.53-1.611,3.418-4.939,5.664-9.985l23.682-52.832h0.928l23.877,54.297c2.278,5.144,4.15,8.383,5.615,9.717
	c1.106,1.01,2.669,1.596,4.688,1.758V285h-32.031v-1.807h1.318c2.571,0,4.378-0.357,5.42-1.074c0.716-0.521,1.074-1.27,1.074-2.246
	c0-0.586-0.098-1.188-0.293-1.807c-0.065-0.293-0.554-1.514-1.465-3.662L213.77,266.153z M212.11,262.539l-9.863-22.803
	l-10.156,22.803H212.11z"/>
<path fill="#E0E000" d="M300.049,218.789v17.92h-1.758c-1.042-4.134-2.197-7.104-3.467-8.911s-3.011-3.247-5.225-4.321
	c-1.237-0.586-3.402-0.879-6.494-0.879h-4.932v51.074c0,3.386,0.187,5.502,0.562,6.348c0.374,0.847,1.106,1.587,2.197,2.222
	c1.09,0.635,2.58,0.952,4.468,0.952h2.197V285H252.93v-1.807h2.197c1.92,0,3.467-0.342,4.639-1.025
	c0.846-0.455,1.514-1.236,2.002-2.344c0.358-0.781,0.537-2.832,0.537-6.152v-51.074h-4.785c-4.46,0-7.699,0.944-9.717,2.832
	c-2.832,2.637-4.623,6.396-5.371,11.279h-1.855v-17.92H300.049z"/>
<path fill="#E0E000" d="M330.224,254.824v18.555c0,3.581,0.221,5.835,0.66,6.763s1.212,1.669,2.318,2.222
	c1.107,0.554,3.174,0.83,6.201,0.83V285h-33.887v-1.807c3.061,0,5.135-0.284,6.227-0.854c1.09-0.569,1.855-1.31,2.295-2.222
	c0.439-0.911,0.658-3.157,0.658-6.738V230.41c0-3.58-0.219-5.835-0.658-6.763s-1.213-1.668-2.32-2.222
	c-1.106-0.553-3.174-0.83-6.201-0.83v-1.807h30.762c8.008,0,13.867,0.554,17.578,1.66c3.711,1.107,6.738,3.149,9.082,6.128
	s3.516,6.47,3.516,10.474c0,4.883-1.758,8.92-5.273,12.109c-2.246,2.019-5.387,3.532-9.424,4.541l15.918,22.412
	c2.084,2.897,3.564,4.704,4.443,5.42c1.335,1.01,2.881,1.562,4.639,1.66V285h-20.85l-21.338-30.176H330.224z M330.224,222.354
	v29.004h2.783c4.525,0,7.91-0.415,10.156-1.245s4.012-2.327,5.299-4.492c1.285-2.164,1.928-4.988,1.928-8.472
	c0-5.045-1.18-8.772-3.539-11.182c-2.361-2.408-6.161-3.613-11.402-3.613H330.224z"/>
<path fill="#E0E000" d="M412.5,283.194V285h-34.619v-1.807h2.197c1.921,0,3.467-0.342,4.639-1.025
	c0.847-0.455,1.498-1.236,1.953-2.344c0.358-0.781,0.537-2.832,0.537-6.152v-43.555c0-3.385-0.179-5.501-0.537-6.348
	c-0.357-0.846-1.082-1.587-2.172-2.222c-1.092-0.635-2.564-0.952-4.42-0.952h-2.197v-1.807H412.5v1.807h-2.197
	c-1.92,0-3.467,0.342-4.639,1.025c-0.846,0.456-1.514,1.237-2.002,2.344c-0.357,0.781-0.537,2.832-0.537,6.152v43.555
	c0,3.386,0.188,5.502,0.562,6.348c0.373,0.847,1.105,1.587,2.197,2.222c1.09,0.635,2.562,0.952,4.418,0.952H412.5z"/>
<path fill="#E0E000" d="M442.041,222.598v26.953h1.318c4.199,0,7.243-1.318,9.131-3.955c1.889-2.637,3.093-6.526,3.613-11.67h1.855
	v34.668h-1.855c-0.391-3.775-1.213-6.868-2.465-9.277c-1.254-2.408-2.711-4.028-4.371-4.858s-4.068-1.245-7.227-1.245v18.652
	c0,3.646,0.154,5.876,0.465,6.689c0.309,0.814,0.887,1.481,1.732,2.002c0.847,0.521,2.214,0.781,4.102,0.781h3.955
	c6.186,0,11.141-1.432,14.869-4.297c3.727-2.864,6.404-7.227,8.031-13.086h1.807L474.023,285h-57.227v-1.807h2.197
	c1.921,0,3.467-0.342,4.639-1.025c0.847-0.455,1.498-1.236,1.953-2.344c0.358-0.781,0.537-2.832,0.537-6.152v-43.555
	c0-2.994-0.081-4.834-0.244-5.518c-0.325-1.139-0.928-2.018-1.807-2.637c-1.236-0.911-2.93-1.367-5.078-1.367h-2.197v-1.807h55.42
	v19.58h-1.855c-0.943-4.785-2.27-8.219-3.979-10.303c-1.709-2.083-4.127-3.613-7.252-4.59c-1.822-0.586-5.24-0.879-10.254-0.879
	H442.041z"/>
<path fill="none" stroke="#000000" stroke-width="2" d="M145.508,255.02v18.359c0,3.581,0.221,5.835,0.659,6.763
	c0.439,0.928,1.222,1.669,2.344,2.222c1.123,0.555,3.183,0.83,6.178,0.83V285h-33.644v-1.808c3.061,0,5.136-0.283,6.227-0.854
	c1.09-0.569,1.854-1.311,2.295-2.222c0.438-0.911,0.659-3.157,0.659-6.738V230.41c0-3.58-0.221-5.835-0.659-6.764
	c-0.439-0.928-1.213-1.668-2.319-2.222c-1.106-0.553-3.174-0.83-6.201-0.83v-1.807h28.857c9.505,0,16.325,1.692,20.459,5.078
	s6.201,7.616,6.201,12.694c0,4.297-1.335,7.977-4.004,11.035c-2.669,3.062-6.349,5.144-11.035,6.25
	C158.366,254.629,153.028,255.02,145.508,255.02z M145.508,222.598v28.613c1.074,0.064,1.889,0.098,2.441,0.098
	c3.971,0,7.031-1.18,9.18-3.54c2.148-2.358,3.224-6.014,3.224-10.962c0-4.915-1.074-8.512-3.224-10.791
	c-2.147-2.278-5.354-3.418-9.619-3.418H145.508z"/>
<path fill="none" stroke="#000000" stroke-width="2" d="M213.77,266.153h-23.39l-2.782,6.445c-0.912,2.148-1.367,3.923-1.367,5.322
	c0,1.854,0.749,3.223,2.246,4.102c0.879,0.521,3.043,0.912,6.494,1.172V285H172.95v-1.808c2.376-0.356,4.329-1.343,5.859-2.954
	c1.529-1.61,3.418-4.938,5.664-9.984l23.682-52.832h0.928l23.877,54.297c2.278,5.144,4.15,8.383,5.615,9.717
	c1.106,1.01,2.669,1.597,4.688,1.758V285h-32.031v-1.808h1.317c2.571,0,4.379-0.356,5.421-1.073
	c0.716-0.521,1.073-1.271,1.073-2.246c0-0.586-0.098-1.188-0.293-1.808c-0.064-0.293-0.554-1.514-1.465-3.662L213.77,266.153z
	 M212.11,262.539l-9.863-22.804l-10.156,22.804H212.11z"/>
<path fill="none" stroke="#000000" stroke-width="2" d="M300.049,218.789v17.92h-1.758c-1.042-4.134-2.196-7.104-3.467-8.911
	c-1.27-1.807-3.011-3.247-5.225-4.321c-1.237-0.586-3.402-0.879-6.494-0.879h-4.933v51.074c0,3.386,0.188,5.502,0.562,6.348
	c0.374,0.848,1.105,1.587,2.197,2.223c1.09,0.635,2.58,0.951,4.468,0.951h2.197V285H252.93v-1.808h2.196
	c1.92,0,3.467-0.342,4.64-1.024c0.846-0.455,1.514-1.236,2.002-2.344c0.357-0.781,0.537-2.832,0.537-6.152v-51.074h-4.785
	c-4.46,0-7.699,0.944-9.717,2.832c-2.832,2.637-4.623,6.396-5.371,11.279h-1.855v-17.92H300.049z"/>
<path fill="none" stroke="#000000" stroke-width="2" d="M330.224,254.824v18.555c0,3.581,0.221,5.835,0.659,6.763
	c0.439,0.928,1.213,1.669,2.318,2.222c1.107,0.555,3.174,0.83,6.201,0.83V285h-33.887v-1.808c3.061,0,5.135-0.283,6.227-0.854
	c1.09-0.569,1.855-1.311,2.295-2.222s0.658-3.157,0.658-6.738V230.41c0-3.58-0.219-5.835-0.658-6.764
	c-0.438-0.928-1.213-1.668-2.32-2.222c-1.105-0.553-3.174-0.83-6.2-0.83v-1.807h30.762c8.008,0,13.867,0.554,17.578,1.659
	c3.711,1.107,6.738,3.149,9.082,6.129c2.344,2.979,3.516,6.47,3.516,10.474c0,4.883-1.758,8.92-5.272,12.109
	c-2.246,2.019-5.388,3.531-9.425,4.541l15.918,22.411c2.084,2.897,3.564,4.704,4.443,5.421c1.335,1.01,2.881,1.562,4.639,1.659V285
	h-20.85l-21.338-30.176H330.224z M330.224,222.354v29.004h2.782c4.525,0,7.91-0.415,10.156-1.245
	c2.246-0.829,4.012-2.326,5.299-4.491c1.285-2.164,1.929-4.988,1.929-8.473c0-5.045-1.181-8.771-3.539-11.182
	c-2.361-2.408-6.161-3.613-11.402-3.613H330.224z"/>
<path fill="none" stroke="#000000" stroke-width="2" d="M412.5,283.194V285h-34.619v-1.808h2.197c1.921,0,3.467-0.342,4.639-1.024
	c0.848-0.455,1.498-1.236,1.953-2.344c0.358-0.781,0.537-2.832,0.537-6.152v-43.555c0-3.386-0.179-5.501-0.537-6.349
	c-0.356-0.846-1.082-1.587-2.172-2.222c-1.092-0.635-2.563-0.952-4.42-0.952h-2.197v-1.807H412.5v1.807h-2.196
	c-1.921,0-3.468,0.342-4.64,1.025c-0.846,0.456-1.514,1.236-2.002,2.344c-0.356,0.781-0.537,2.832-0.537,6.151v43.556
	c0,3.386,0.188,5.502,0.562,6.348c0.373,0.847,1.104,1.587,2.196,2.222c1.091,0.636,2.562,0.952,4.418,0.952L412.5,283.194
	L412.5,283.194z"/>
<path fill="none" stroke="#000000" stroke-width="2" d="M442.041,222.598v26.953h1.318c4.198,0,7.242-1.318,9.131-3.955
	s3.093-6.526,3.612-11.67h1.855v34.668h-1.855c-0.391-3.775-1.213-6.868-2.465-9.277c-1.254-2.407-2.711-4.027-4.371-4.857
	c-1.659-0.83-4.067-1.245-7.227-1.245v18.652c0,3.646,0.154,5.876,0.465,6.688c0.31,0.814,0.887,1.481,1.732,2.002
	c0.847,0.521,2.214,0.781,4.102,0.781h3.955c6.187,0,11.141-1.433,14.869-4.297c3.727-2.864,6.404-7.228,8.031-13.086h1.807
	L474.023,285h-57.228v-1.808h2.197c1.921,0,3.467-0.342,4.639-1.024c0.847-0.455,1.498-1.236,1.953-2.344
	c0.358-0.781,0.537-2.832,0.537-6.152v-43.555c0-2.994-0.081-4.834-0.244-5.519c-0.325-1.139-0.928-2.018-1.807-2.637
	c-1.236-0.911-2.93-1.367-5.078-1.367h-2.197v-1.807h55.42v19.58h-1.854c-0.943-4.785-2.271-8.22-3.979-10.304
	c-1.709-2.083-4.127-3.612-7.252-4.59c-1.822-0.586-5.24-0.879-10.254-0.879h-6.835V222.598z"/>
</svg>
